<!DOCTYPE svg PUBLIC "-//W3C//DTD SVG 20010904//EN" "http://www.w3.org/TR/2001/REC-SVG-20010904/DTD/svg10.dtd">
<svg version="1.0" xmlns="http://www.w3.org/2000/svg" width="152px" height="158px" viewBox="0 0 1520 1580" preserveAspectRatio="xMidYMid meet">
<g id="layer101" fill="#a72b17" stroke="none">
 <path d="M600 1455 l0 -125 -55 0 -55 0 0 -40 0 -40 -185 0 -185 0 0 -55 0 -55 -60 0 -60 0 0 -250 0 -250 60 0 60 0 0 -55 0 -55 61 0 61 0 -41 -46 c-54 -62 -75 -127 -69 -218 8 -113 67 -200 168 -245 66 -30 178 -29 245 3 50 23 135 104 135 128 0 7 7 1 17 -12 64 -98 141 -140 253 -140 88 0 145 22 204 78 59 57 86 122 86 212 0 88 -22 146 -78 203 l-36 37 57 0 57 0 0 90 0 90 28 0 c15 0 78 -18 140 -40 l112 -40 0 255 c0 156 -4 255 -10 255 -5 0 -53 -16 -107 -35 -54 -19 -113 -35 -130 -35 l-33 0 0 90 0 90 -180 0 -180 0 0 40 0 40 -55 0 -55 0 0 125 0 125 -85 0 -85 0 0 -125z m110 -25 l0 -100 -25 0 -25 0 0 100 0 100 25 0 25 0 0 -100z m110 -165 c0 -13 -22 -15 -135 -15 -113 0 -135 2 -135 15 0 13 22 15 135 15 113 0 135 -2 135 -15z m370 -380 l0 -305 -505 0 -505 0 0 305 0 305 505 0 505 0 0 -305z m-1070 5 l0 -190 -35 0 -35 0 0 190 0 190 35 0 35 0 0 -190z m1350 -5 l0 -174 -62 22 -63 22 -3 132 -3 131 53 21 c29 11 59 20 66 20 9 1 12 -40 12 -174z m-190 0 c0 -118 -1 -125 -20 -125 -19 0 -20 7 -20 125 0 118 1 125 20 125 19 0 20 -7 20 -125z m-745 -395 c57 -30 109 -105 120 -170 18 -106 -61 -224 -171 -256 -229 -66 -397 220 -228 390 78 78 179 91 279 36z m196 -6 c-23 -26 -41 -52 -41 -58 0 -6 -7 1 -17 14 -9 14 -30 40 -46 58 l-31 32 88 0 88 0 -41 -46z m332 8 c58 -31 103 -91 118 -159 36 -156 -119 -309 -276 -274 -180 40 -248 258 -122 389 79 83 178 98 280 44z"/>
 <path d="M230 1135 c0 -25 1 -25 85 -25 84 0 85 0 85 25 0 25 -1 25 -85 25 -84 0 -85 0 -85 -25z"/>
 <path d="M230 890 l0 -180 240 0 240 0 0 180 0 180 -240 0 -240 0 0 -180z m420 -5 l0 -125 -180 0 -180 0 0 125 0 125 180 0 180 0 0 -125z"/>
 <path d="M840 735 c0 -25 0 -25 95 -25 95 0 95 0 95 25 0 25 0 25 -95 25 -95 0 -95 0 -95 -25z"/>
 <path d="M1040 735 c0 -21 5 -25 30 -25 25 0 30 4 30 25 0 21 -5 25 -30 25 -25 0 -30 -4 -30 -25z"/>
 <path d="M383 358 c-47 -23 -53 -103 -10 -133 74 -52 166 45 110 114 -21 25 -70 35 -100 19z m53 -59 c10 -17 -13 -36 -27 -22 -12 12 -4 33 11 33 5 0 12 -5 16 -11z"/>
 <path d="M913 358 c-47 -23 -53 -103 -10 -133 74 -52 166 45 110 114 -21 25 -70 35 -100 19z m53 -59 c10 -17 -13 -36 -27 -22 -12 12 -4 33 11 33 5 0 12 -5 16 -11z"/>
 <path d="M77 462 c-66 -94 -74 -214 -22 -311 39 -72 51 -79 78 -53 l21 22 -22 22 c-66 72 -69 199 -6 284 l23 31 -23 22 -23 22 -26 -39z"/>
 </g>

</svg>