<!DOCTYPE svg PUBLIC "-//W3C//DTD SVG 20010904//EN" "http://www.w3.org/TR/2001/REC-SVG-20010904/DTD/svg10.dtd">
<svg version="1.0" xmlns="http://www.w3.org/2000/svg" width="145px" height="127px" viewBox="0 0 1450 1270" preserveAspectRatio="xMidYMid meet">
<g id="layer101" fill="#a72b17" stroke="none">
 <path d="M67 1252 c-15 -17 -17 -64 -17 -471 l0 -453 -25 -20 c-32 -25 -35 -88 -5 -118 19 -19 33 -20 350 -20 182 0 330 -3 330 -6 0 -4 -11 -17 -25 -30 -31 -29 -35 -92 -7 -117 26 -23 94 -22 115 1 26 29 22 88 -8 116 -14 13 -25 26 -25 30 0 3 149 6 330 6 317 0 331 1 350 20 30 30 27 93 -5 118 l-25 20 0 454 c0 428 -1 456 -18 471 -17 15 -77 17 -659 17 -607 0 -641 -1 -656 -18z m1271 -44 c9 -9 12 -122 12 -445 l0 -433 -625 0 -625 0 0 433 c0 323 3 436 12 445 17 17 1209 17 1226 0z m57 -958 c0 -13 -82 -15 -664 -18 -395 -1 -669 2 -674 7 -29 29 13 31 671 29 585 -3 667 -5 667 -18z m-652 -167 c4 -3 2 -12 -4 -20 -9 -10 -15 -10 -25 -2 -8 6 -11 15 -8 20 6 11 28 12 37 2z"/>
 <path d="M422 1080 c-15 -14 -22 -33 -22 -59 0 -47 28 -75 75 -75 31 0 54 -20 257 -223 l223 -223 -38 0 c-42 0 -58 -20 -37 -46 10 -11 31 -14 89 -12 l76 3 0 90 c0 83 -1 90 -20 90 -16 0 -21 -8 -23 -38 l-3 -38 -222 217 c-197 194 -222 222 -225 253 -7 72 -81 106 -130 61z m68 -54 c0 -21 -21 -31 -30 -15 -5 7 -6 17 -4 21 9 14 34 9 34 -6z"/>
 <path d="M657 1093 c-12 -11 -7 -40 8 -53 14 -12 14 -15 0 -30 -19 -22 -19 -59 1 -67 8 -3 25 4 37 16 l23 21 21 -22 c40 -39 76 10 38 52 -14 15 -14 18 0 30 20 16 19 49 -1 57 -8 3 -25 -4 -38 -16 l-23 -21 -18 20 c-18 20 -36 25 -48 13z"/>
 <path d="M907 1093 c-12 -11 -8 -36 10 -55 15 -17 15 -19 0 -36 -38 -42 -4 -81 36 -43 l23 21 21 -22 c40 -39 76 10 38 52 -14 15 -14 18 0 30 21 17 20 60 -2 60 -9 0 -25 -7 -35 -17 -17 -15 -19 -15 -36 0 -19 18 -44 22 -55 10z"/>
 <path d="M400 826 c0 -13 7 -29 15 -36 14 -12 14 -15 0 -30 -17 -19 -20 -56 -4 -66 6 -3 23 3 39 14 27 20 27 20 47 1 24 -24 53 -16 53 16 0 12 -7 28 -15 35 -14 12 -14 15 1 31 35 39 -8 79 -47 43 -18 -16 -20 -16 -37 -1 -27 25 -52 22 -52 -7z"/>
 <path d="M907 843 c-12 -11 -7 -40 8 -53 14 -12 14 -15 0 -30 -37 -40 0 -90 38 -51 20 19 20 19 47 -1 16 -11 33 -17 39 -14 16 10 13 47 -4 66 -14 15 -14 18 0 30 21 17 20 60 -2 60 -9 0 -25 -7 -35 -17 -17 -15 -19 -15 -36 0 -19 18 -44 22 -55 10z"/>
 <path d="M400 576 c0 -13 7 -29 15 -36 14 -12 14 -15 0 -30 -19 -21 -19 -56 -1 -63 8 -3 25 2 38 12 23 18 24 18 46 0 13 -10 30 -15 37 -12 19 7 19 42 0 63 -14 15 -14 18 0 30 8 7 15 23 15 36 0 19 -5 24 -24 24 -13 0 -29 -7 -36 -15 -11 -13 -15 -13 -33 0 -33 23 -57 19 -57 -9z"/>
 <path d="M650 576 c0 -13 7 -29 15 -36 14 -12 14 -15 0 -30 -19 -21 -19 -56 -1 -63 8 -3 25 2 38 12 23 18 24 18 46 0 13 -10 30 -15 37 -12 19 7 19 42 0 63 -14 15 -14 18 0 30 8 7 15 23 15 36 0 28 -33 33 -60 9 -15 -14 -18 -14 -30 0 -7 8 -23 15 -36 15 -19 0 -24 -5 -24 -24z"/>
 </g>

</svg>