<!DOCTYPE svg PUBLIC "-//W3C//DTD SVG 20010904//EN" "http://www.w3.org/TR/2001/REC-SVG-20010904/DTD/svg10.dtd">
<svg version="1.0" xmlns="http://www.w3.org/2000/svg" width="134px" height="132px" viewBox="0 0 1340 1320" preserveAspectRatio="xMidYMid meet">
<g id="layer101" fill="#a72b17" stroke="none">
 <path d="M347 1283 c-3 -21 -9 -66 -13 -100 l-7 -63 -124 0 -125 0 -39 -39 -39 -39 0 -262 0 -263 38 6 c82 14 147 40 179 72 l33 33 0 146 0 146 105 0 c150 0 145 -8 145 220 l0 180 -25 0 -25 0 -2 -172 -3 -173 -122 -3 -123 -3 0 -158 c0 -151 -1 -158 -23 -179 -17 -16 -100 -51 -124 -52 -2 0 -3 99 -3 219 l0 219 31 26 c29 25 35 26 160 26 148 0 131 -14 149 123 15 118 14 127 -14 127 -19 0 -24 -6 -29 -37z"/>
 <path d="M610 1080 l0 -240 -150 0 -150 0 0 -70 0 -70 360 0 360 0 0 70 0 70 -140 0 -140 0 0 240 0 240 -30 0 -30 0 0 -240 c0 -207 -2 -240 -15 -240 -13 0 -15 33 -15 240 l0 240 -25 0 -25 0 0 -240z m370 -310 c0 -20 -7 -20 -310 -20 -303 0 -310 0 -310 20 0 20 7 20 310 20 303 0 310 0 310 -20z"/>
 <path d="M840 1140 c0 -228 -5 -220 145 -220 l105 0 0 -146 0 -146 33 -33 c32 -32 97 -58 180 -72 l37 -6 0 263 0 262 -39 39 -39 39 -125 0 -124 0 -7 63 c-15 131 -17 137 -42 137 -28 0 -29 -9 -14 -127 18 -137 1 -123 149 -123 125 0 131 -1 160 -26 l31 -26 0 -219 c0 -120 -1 -219 -2 -219 -25 1 -108 36 -125 52 -22 21 -23 28 -23 179 l0 158 -122 3 -123 3 -3 173 -2 172 -25 0 -25 0 0 -180z"/>
 <path d="M530 575 c0 -20 5 -25 25 -25 20 0 25 5 25 25 0 20 -5 25 -25 25 -20 0 -25 -5 -25 -25z"/>
 <path d="M640 575 c0 -21 5 -25 30 -25 25 0 30 4 30 25 0 21 -5 25 -30 25 -25 0 -30 -4 -30 -25z"/>
 <path d="M760 575 c0 -20 5 -25 25 -25 20 0 25 5 25 25 0 20 -5 25 -25 25 -20 0 -25 -5 -25 -25z"/>
 <path d="M35 485 c-35 -36 -35 -36 -35 -126 0 -74 4 -96 20 -119 58 -82 204 -54 226 43 3 17 19 59 35 95 16 35 29 66 29 68 0 2 -13 4 -30 4 -28 0 -30 3 -30 35 l0 35 -90 0 c-89 0 -89 0 -125 -35z m165 -50 c0 -23 5 -35 14 -35 22 0 -24 -119 -56 -143 -24 -18 -30 -18 -58 -7 -41 17 -50 37 -50 110 0 82 26 110 100 110 l50 0 0 -35z"/>
 <path d="M1090 485 c0 -32 -2 -35 -30 -35 -16 0 -30 -2 -30 -4 0 -2 13 -33 29 -68 16 -36 32 -78 35 -95 22 -97 168 -125 226 -43 16 23 20 45 20 119 0 90 0 90 -35 126 -36 35 -36 35 -125 35 l-90 0 0 -35z m175 -40 c21 -20 25 -34 25 -85 0 -73 -9 -93 -50 -110 -28 -11 -34 -11 -58 7 -32 24 -78 143 -56 143 9 0 14 12 14 35 l0 35 50 0 c41 0 56 -5 75 -25z"/>
 <path d="M460 275 l0 -165 165 0 165 0 0 -30 0 -30 -200 0 -200 0 0 42 c0 32 -6 49 -27 70 l-27 28 27 0 c25 0 27 3 27 45 0 41 2 45 25 45 20 0 25 5 25 25 0 23 -3 25 -50 25 l-50 0 0 -45 0 -45 -50 0 c-27 0 -50 -3 -50 -8 0 -4 22 -35 50 -69 45 -56 50 -67 50 -112 l0 -51 250 0 250 0 0 55 0 55 60 0 60 0 0 51 c0 46 5 57 50 114 28 35 50 66 50 69 0 3 -22 6 -50 6 l-50 0 0 45 0 45 -250 0 -250 0 0 -165z m450 70 c0 -38 3 -45 20 -45 11 0 20 -4 20 -8 0 -5 -9 -17 -20 -27 -14 -13 -20 -31 -20 -62 l0 -43 -200 0 -200 0 0 60 0 60 140 0 140 0 0 -50 c0 -47 2 -50 25 -50 24 0 25 2 25 75 l0 75 -165 0 -165 0 0 30 0 30 200 0 200 0 0 -45z"/>
 </g>

</svg>