<svg version="1.1" id="Слой_1" xmlns="http://www.w3.org/2000/svg" x="0" y="0" viewBox="0 0 78 78" xml:space="preserve"><circle cx="39" cy="39" r="39" fill="#ebeafc"/><path d="M45.4 33.1c0 .8-.1 1.5-.4 2.2-.3.7-.7 1.4-1.2 2-.5.7-1 1.3-1.6 1.9-.6.6-1.2 1.2-1.8 1.7-.3.3-.6.6-1 .9-.4.3-.7.7-1 1.1-.3.4-.6.7-.9 1-.3.3-.4.6-.5.8h9v3.8H32.1c0-.2-.1-.5-.1-.8V47c0-1 .2-1.8.5-2.6s.7-1.5 1.2-2.2c.5-.7 1.1-1.3 1.7-1.9.6-.6 1.3-1.2 1.9-1.8.5-.5.9-.9 1.4-1.3.4-.4.8-.8 1.1-1.2.3-.4.6-.8.8-1.2.2-.4.3-.8.3-1.2 0-.9-.3-1.5-.8-1.9-.5-.4-1.1-.5-1.9-.5-.5 0-1 .1-1.5.3-.5.2-.9.4-1.3.6-.4.2-.7.5-1 .7-.3.2-.5.4-.6.6l-2.2-3.1c.9-.8 1.9-1.5 3.1-2 1.2-.5 2.4-.8 3.8-.8 1.2 0 2.3.1 3.1.4.9.3 1.6.7 2.2 1.2.6.5 1 1.1 1.3 1.9.1.3.3 1.1.3 2.1z" fill="#2502a5"/></svg>