<svg version="1.1" id="Слой_1" xmlns="http://www.w3.org/2000/svg" x="0" y="0" viewBox="0 0 78 78" xml:space="preserve"><style>.st1{fill:#fff}</style><path d="M17.9 23.2c-7.8 7.8-7.8 20.4 0 28.3 7.8 7.8 20.5 7.8 28.3 0 7.9-7.8 7.9-20.5 0-28.3-7.8-7.8-20.5-7.8-28.3 0z" fill="#2a9dee"/><path class="st1" d="M59 67.6H23.6c1.8-1.5 2.9-3.7 2.9-6.2v-25c0-.5-.4-.9-.9-.9s-.9.4-.9.9v19.8c-1.5-1.8-3.7-2.9-6.2-2.9s-4.8 1.1-6.2 2.9V17.1c.2-3.3 3-5.8 6.2-5.8 3.3 0 6 2.5 6.2 5.8v15.3c0 .5.4.9.9.9s.9-.4.9-.9V19h6.8c.5 0 .9-.4.9-.9s-.4-.9-.9-.9h-6.8v-.3c-.3-4.2-3.8-7.5-8.1-7.5-4.2 0-7.7 3.2-8.1 7.3v44.6c0 4.5 3.6 8.1 8.1 8.1H59c.5 0 .9-.4.9-.9s-.4-.9-.9-.9zm-40.6 0c-3.4 0-6.2-2.8-6.2-6.2s2.8-6.2 6.2-6.2 6.2 2.8 6.2 6.2-2.7 6.2-6.2 6.2zm50.5-50.5H38.2c-.5 0-.9.4-.9.9s.4.9.9.9H68v48.6h-4c-.5 0-.9.4-.9.9s.4.9.9.9h4.9c.5 0 .9-.4.9-.9V18c0-.5-.4-.9-.9-.9z"/><path class="st1" d="M18.4 56.9c-2.4 0-4.4 2-4.4 4.4 0 2.4 2 4.4 4.4 4.4s4.4-2 4.4-4.4c0-2.4-2-4.4-4.4-4.4zm0 6.9c-1.4 0-2.5-1.1-2.5-2.5s1.1-2.5 2.5-2.5 2.5 1.1 2.5 2.5-1.1 2.5-2.5 2.5zm45.1-5.6H37c-.1 0-.2 0-.3.1l-5.9 2.2c-.4.1-.6.5-.6.9s.3.8.7.8l5.9 1.2h26.7c.5 0 .9-.4.9-.9V59c0-.4-.4-.8-.9-.8zm-27.4 3.2l-1.7-.4 1.7-.6v1zm22.7.2H37.9V60h20.9v1.6zm3.7 0h-1.9V60h1.9v1.6zm-1.4-25.9L47.9 22.8c-.4-.4-.9-.4-1.3 0L33.4 35.7c-.2.2-.3.4-.3.7v18.1c0 .5.4.9.9.9h26.5c.5 0 .9-.4.9-.9V36.3c0-.2-.1-.5-.3-.6zm-13.8-11l11 10.6h-22l11-10.6zm2.9 28.8h-5.8v-8.8h5.8v8.8zm9.4 0H52v-9.7c0-.5-.4-.9-.9-.9h-7.7c-.5 0-.9.4-.9.9v9.7H35V37.2h24.6v16.3z"/><path class="st1" d="M47.3 28.2c-1.7 0-3.2 1.4-3.2 3.2 0 1.7 1.4 3.2 3.2 3.2 1.7 0 3.2-1.4 3.2-3.2-.1-1.8-1.5-3.2-3.2-3.2zm0 4.5c-.7 0-1.3-.6-1.3-1.3 0-.7.6-1.3 1.3-1.3.7 0 1.3.6 1.3 1.3 0 .7-.6 1.3-1.3 1.3z"/></svg>