<svg version="1.1" id="Слой_1" xmlns="http://www.w3.org/2000/svg" x="0" y="0" viewBox="0 0 78 78" xml:space="preserve"><style>.st1{fill:#fff}</style><path d="M31.1 27.9c-11 .1-19.9 9.2-19.8 20.2.1 11 9.2 19.9 20.2 19.8 11.1-.1 19.9-9.1 19.8-20.2-.1-11-9.1-19.9-20.2-19.8z" fill="#2a9dee"/><path class="st1" d="M68.5 9h-17c-.5 0-.9.4-.9.9s.4.9.9.9h16.1V18h-3.4v-2.5c0-.5-.4-.9-.9-.9s-.9.4-.9.9V18h-3.8v-2.5c0-.5-.4-.9-.9-.9s-.9.4-.9.9V18H53v-2.5c0-.5-.4-.9-.9-.9s-.9.4-.9.9V18h-3.8v-2.5c0-.5-.4-.9-.9-.9s-.9.4-.9.9V18h-3.8v-2.5c0-.5-.4-.9-.9-.9s-.9.4-.9.9V18h-3.8v-2.5c0-.5-.4-.9-.9-.9s-.9.4-.9.9V18H31v-2.5c0-.5-.4-.9-.9-.9s-.9.4-.9.9V18h-3.8v-2.5c0-.5-.4-.9-.9-.9s-.9.4-.9.9V18h-3.4v-7.2h27.9c.5 0 .9-.4.9-.9s-.4-.9-.9-.9H10.3c-.5 0-.9.4-.9.8V29c0 .5.4.9.9.9s.9-.4.9-.9v-9.4h7.2V23h-2.5c-.5 0-.9.4-.9.9s.4.9.9.9h2.5v3.8h-2.5c-.5 0-.9.4-.9.9s.4.9.9.9h2.5v3.8h-2.5c-.5 0-.9.4-.9.9s.4.9.9.9h2.5v3.8h-2.5c-.5 0-.9.4-.9.9s.4.9.9.9h2.5v3.8h-2.5c-.5 0-.9.4-.9.9s.4.9.9.9h2.5V51h-2.5c-.5 0-.9.4-.9.9s.4.9.9.9h2.5v3.8h-2.5c-.5 0-.9.4-.9.9s.4.9.9.9h2.5v3.8h-2.5c-.5 0-.9.4-.9.9s.4.9.9.9h2.5v3.4h-7.2V32.6c0-.5-.4-.9-.9-.9s-.9.4-.9.9v35.5c0 .5.4.9.9.9h9c.5 0 .9-.4.9-.9v-4.3h33.4l.1-.1 9.9-9.9.1-.1c0-.1.1-.1.1-.2v-8.3c0-.5-.4-.9-.9-.9s-.9.4-.9.9v7.2h-9c-.5 0-.9.4-.9.9v9H20.2V19.7h25.7v.9c0 .5.4.9.9.9s.9-.4.9-.9v-.9h14.9v21.7c0 .5.4.9.9.9s.9-.4.9-.9V19.7h4.3c.5 0 .9-.4.9-.9v-9c-.2-.4-.6-.8-1.1-.8zm-50.1 9h-7.2v-7.2h7.2V18zm36 35.9h6.9l-6.9 6.9v-6.9z"/><path class="st1" d="M46.7 43.2c-.5 0-.9.4-.9.9v1.8c0 .5.4.9.9.9s.9-.4.9-.9v-1.8c0-.5-.4-.9-.9-.9zm0-5c-.5 0-.9.4-.9.9v1.8c0 .5.4.9.9.9s.9-.4.9-.9v-1.8c0-.5-.4-.9-.9-.9zm-7.9 7.2H37c-.5 0-.9.4-.9.9s.4.9.9.9h1.8c.5 0 .9-.4.9-.9s-.4-.9-.9-.9zm-15.2 0h-1.8c-.5 0-.9.4-.9.9s.4.9.9.9h1.8c.5 0 .9-.4.9-.9s-.4-.9-.9-.9zm5.1 0h-1.8c-.5 0-.9.4-.9.9s.4.9.9.9h1.8c.5 0 .9-.4.9-.9s-.4-.9-.9-.9zm5 0H32c-.5 0-.9.4-.9.9s.4.9.9.9h1.8c.5 0 .9-.4.9-.9-.1-.5-.5-.9-1-.9zm10.1 0H42c-.5 0-.9.4-.9.9s.4.9.9.9h1.8c.5 0 .9-.4.9-.9s-.4-.9-.9-.9zm2.9-12.3c-.5 0-.9.4-.9.9v1.8c0 .5.4.9.9.9s.9-.4.9-.9V34c0-.5-.4-.9-.9-.9zm0-10.1c-.5 0-.9.4-.9.9v1.8c0 .5.4.9.9.9s.9-.4.9-.9v-1.8c0-.5-.4-.9-.9-.9zm0 5.1c-.5 0-.9.4-.9.9v1.8c0 .5.4.9.9.9s.9-.4.9-.9V29c0-.5-.4-.9-.9-.9z"/></svg>