<svg version="1.1" id="Слой_1" xmlns="http://www.w3.org/2000/svg" x="0" y="0" viewBox="0 0 78 78" xml:space="preserve"><style>.st1{fill:#111}</style><path d="M33.4 32.2c-7.8 7.8-7.8 20.4 0 28.3 7.8 7.8 20.5 7.8 28.3 0 7.9-7.8 7.9-20.5 0-28.3-7.8-7.7-20.4-7.7-28.3 0z" fill="#2a9dee"/><path class="st1" d="M66.4 12.2H44.6v-.3c0-1.9-1.6-3.5-3.5-3.5H36c-1.9 0-3.5 1.6-3.5 3.5v.3H10.8c-1.2 0-2.2 1-2.2 2.2v6.3c0 .5.4.9.9.9s.9-.4.9-.9v-6.3c0-.2.1-.3.3-.3h26.5c.5 0 .9-.4.9-.9s-.4-.9-.9-.9h-2.8V12c0-.9.7-1.6 1.6-1.6h5.1c.9 0 1.6.7 1.6 1.6v.3h-1.6c-.5 0-.9.4-.9.9s.4.9.9.9h25.3c.2 0 .3.1.3.3v27.8c0 .5.4.9.9.9s.9-.4.9-.9V14.4c.1-1.2-.9-2.2-2.1-2.2zm1.3 32.9c-.5 0-.9.4-.9.9v6.3c0 .2-.1.3-.3.3H10.8c-.2 0-.3-.1-.3-.3V24.5c0-.5-.4-.9-.9-.9s-.9.4-.9.9v27.8c0 1.2 1 2.2 2.2 2.2H25v12h-4.1c-.5 0-.9.4-.9.9s.4.9.9.9h35.4c.5 0 .9-.4.9-.9s-.4-.9-.9-.9h-4.1v-12h14.2c1.2 0 2.2-1 2.2-2.2V46c0-.5-.4-.9-.9-.9zM50.3 57.7H29.8c-.5 0-.9.4-.9.9s.4.9.9.9h20.5v6.9H26.9v-12h23.4v3.3z"/><path class="st1" d="M15.3 30.7c-.9.2-1.6 1-1.6 2v1.5c0 1 .7 1.8 1.6 2l2.2.4c.1.4.3.7.4 1l-1.2 1.8c-.5.8-.4 1.9.3 2.6l1 1c.7.7 1.8.8 2.6.3l1.8-1.2c.3.2.7.3 1 .4l.4 2.2c.2.9 1 1.6 2 1.6h1.5c1 0 1.8-.7 2-1.6l.4-2.2c.4-.1.7-.3 1-.4l1.8 1.2c.8.5 1.9.4 2.6-.3l1-1c.7-.7.8-1.8.3-2.6l-1.2-1.8c.2-.3.3-.7.4-1l2.2-.4c.9-.2 1.6-1 1.6-2v-1.5c0-1-.7-1.8-1.6-2l-2.2-.4c-.1-.4-.3-.7-.4-1l1.2-1.8c.5-.8.4-1.9-.3-2.6l-1-1c-.7-.7-1.8-.8-2.6-.3l-1.8 1.2c-.3-.2-.7-.3-1-.4l-.4-2.2c-.2-.9-1-1.6-2-1.6h-1.5c-1 0-1.8.7-2 1.6l-.4 2.2c-.4.1-.7.3-1 .4l-1.8-1.2c-.8-.5-1.9-.4-2.6.3l-1 1c-.7.7-.8 1.8-.3 2.6l1.2 1.8c-.2.3-.3.7-.4 1l-2.2.4zm3.1 1.3c.3-.1.6-.3.7-.7.2-.6.4-1.2.7-1.7.2-.3.2-.7 0-1l-1.5-2.3v-.2l1-1s.1-.1.2 0l2.3 1.5c.3.2.7.2 1 0 .5-.3 1.1-.5 1.7-.7.3-.1.6-.4.7-.7l.5-2.7c0-.1.1-.1.1-.1h1.5c.1 0 .1 0 .1.1l.5 2.7c.1.3.3.6.7.7.6.2 1.2.4 1.7.7.3.2.7.2 1 0l2.3-1.5h.2l1 1s.1.1 0 .2l-1.5 2.3c-.2.3-.2.7 0 1 .3.5.5 1.1.7 1.7.1.3.4.6.7.7l2.7.5c.1 0 .1.1.1.1v1.5c0 .1 0 .1-.1.1l-2.7.5c-.3.1-.6.3-.7.7-.2.6-.4 1.2-.7 1.7-.2.3-.2.7 0 1l1.5 2.3v.2l-1 1s-.1.1-.2 0l-2.3-1.5c-.3-.2-.7-.2-1 0-.5.3-1.1.5-1.7.7-.3.1-.6.4-.7.7l-.5 2.7c0 .1-.1.1-.1.1h-1.5c-.1 0-.1 0-.1-.1l-.5-2.7c-.1-.3-.3-.6-.7-.7-.6-.2-1.2-.4-1.7-.7-.1-.1-.3-.1-.5-.1s-.4.1-.5.2l-2.3 1.5h-.2l-1-1s-.1-.1 0-.2l1.5-2.3c.2-.3.2-.7 0-1-.3-.5-.5-1.1-.7-1.7-.1-.3-.4-.6-.7-.7l-2.7-.5c-.1 0-.1-.1-.1-.1v-1.5c0-.1 0-.1.1-.1l2.7-.6z"/><path class="st1" d="M26.6 37.9c2.5 0 4.5-2 4.5-4.5s-2-4.5-4.5-4.5-4.5 2-4.5 4.5 2 4.5 4.5 4.5zm0-7.2c1.5 0 2.7 1.2 2.7 2.7 0 1.5-1.2 2.7-2.7 2.7-1.5 0-2.7-1.2-2.7-2.7.1-1.5 1.3-2.7 2.7-2.7zm18.3-13.4c-.5 0-.9.4-.9.9v30.3c0 .5.4.9.9.9s.9-.4.9-.9v-2.8h15.5c1.2 0 2.2-1 2.2-2.2V41c0-1.2-1-2.2-2.2-2.2h-3.8c-.5 0-.9.4-.9.9s.4.9.9.9h3.8c.2 0 .3.1.3.3v2.5c0 .2-.1.3-.3.3H45.9v-3.2h7.9c.5 0 .9-.4.9-.9s-.4-.9-.9-.9h-7.9v-1.9H55c1.2 0 2.2-1 2.2-2.2v-2.5c0-1.2-1-2.2-2.2-2.2h-2.5c-.5 0-.9.4-.9.9s.4.9.9.9H55c.2 0 .3.1.3.3v2.5c0 .2-.1.3-.3.3h-9.2v-3.2h2.8c.5 0 .9-.4.9-.9s-.4-.9-.9-.9h-2.8V28H50c1.2 0 2.2-1 2.2-2.2v-2.5c0-1.2-1-2.2-2.2-2.2h-4.1v-2.8c0-.6-.4-1-1-1zM50 23c.2 0 .3.1.3.3v2.5c0 .2-.1.3-.3.3h-4.1V23H50z"/></svg>