<svg version="1.1" id="Слой_1" xmlns="http://www.w3.org/2000/svg" x="0" y="0" viewBox="0 0 78 78" xml:space="preserve"><style>.st1{fill:#111}</style><path d="M18.9 31.2c-7.8 7.8-7.8 20.4 0 28.3 7.8 7.8 20.5 7.8 28.3 0 7.9-7.8 7.9-20.5 0-28.3-7.8-7.7-20.5-7.7-28.3 0z" fill="#2a9dee"/><path class="st1" d="M29.5 19.7v-3.3c.7.2 1.1.7 1.1 1.1 0 .5.4.9.9.9s.9-.4.9-.9c0-1.5-1.3-2.7-3-3v-.1c0-.5-.4-.9-.9-.9s-.9.4-.9.9v.1c-1.7.3-3 1.5-3 3 0 2.1 1.7 3 3 3.5v3.3c-.7-.2-1.1-.7-1.1-1.1 0-.5-.4-.9-.9-.9s-.9.4-.9.9c0 1.5 1.3 2.7 3 3v.1c0 .5.4.9.9.9s.9-.4.9-.9v-.1c1.7-.3 3-1.5 3-3 0-2.1-1.6-2.9-3-3.5zm-1.8-.7c-.9-.5-1.1-.9-1.1-1.4 0-.4.4-.9 1.1-1.1V19zm1.8 5.3v-2.5c.9.5 1.1.9 1.1 1.4.1.4-.4.9-1.1 1.1zm14.1-8.8h-8c-.5 0-.9.4-.9.9s.4.9.9.9h8c.5 0 .9-.4.9-.9.1-.5-.4-.9-.9-.9zm-7 8h-1c-.5 0-.9.4-.9.9s.4.9.9.9h1c.5 0 .9-.4.9-.9s-.4-.9-.9-.9zm17 7h-28c-.5 0-.9.4-.9.9s.4.9.9.9h28.1c.5 0 .9-.4.9-.9s-.4-.9-1-.9zm-19 6h-3c-.5 0-.9.4-.9.9s.4.9.9.9h3c.5 0 .9-.4.9-.9s-.4-.9-.9-.9zm-7 0h-2c-.5 0-.9.4-.9.9s.4.9.9.9h2c.5 0 .9-.4.9-.9s-.4-.9-.9-.9zm7 4h-3c-.5 0-.9.4-.9.9s.4.9.9.9h3c.5 0 .9-.4.9-.9s-.4-.9-.9-.9zm-7 0h-2c-.5 0-.9.4-.9.9s.4.9.9.9h2c.5 0 .9-.4.9-.9s-.4-.9-.9-.9zm7 4h-3c-.5 0-.9.4-.9.9s.4.9.9.9h3c.5 0 .9-.4.9-.9s-.4-.9-.9-.9zm-7 0h-2c-.5 0-.9.4-.9.9s.4.9.9.9h2c.5 0 .9-.4.9-.9s-.4-.9-.9-.9zm7 4h-3c-.5 0-.9.4-.9.9s.4.9.9.9h3c.5 0 .9-.4.9-.9s-.4-.9-.9-.9zm-7 0h-2c-.5 0-.9.4-.9.9s.4.9.9.9h2c.5 0 .9-.4.9-.9s-.4-.9-.9-.9zm7 4h-3c-.5 0-.9.4-.9.9s.4.9.9.9h3c.5 0 .9-.4.9-.9 0-.4-.4-.9-.9-.9zm-7 0h-2c-.5 0-.9.4-.9.9s.4.9.9.9h2c.5 0 .9-.4.9-.9 0-.4-.4-.9-.9-.9zm19-29h-1c-.5 0-.9.4-.9.9s.4.9.9.9h1c.5 0 .9-.4.9-.9s-.4-.9-.9-.9zm5 0h-1c-.5 0-.9.4-.9.9s.4.9.9.9h1c.5 0 .9-.4.9-.9s-.3-.9-.9-.9zm-10 0h-1c-.5 0-.9.4-.9.9s.4.9.9.9h1c.5 0 .9-.4.9-.9s-.4-.9-.9-.9zm4-4h-10c-.5 0-.9.4-.9.9s.4.9.9.9h10c.5 0 .9-.4.9-.9.1-.5-.4-.9-.9-.9z"/><path class="st1" d="M63.7 34.5h-4.1V19.4c0-.2-.1-.5-.3-.7l-10-10c-.2-.2-.4-.3-.7-.3h-26c-1.6 0-2.9 1.3-2.9 2.9v48.1c0 1.6 1.3 2.9 2.9 2.9h15.1v2.1c0 2.2 1.8 3.9 3.9 3.9h22c2.2 0 3.9-1.8 3.9-3.9v-26c.1-2.1-1.7-3.9-3.8-3.9zM49.6 11.7l6.8 6.8h-4.7c-1.1 0-2.1-.9-2.1-2.1v-4.7zM37.7 38.4v22.1H22.6c-.6 0-1.1-.5-1.1-1.1v-48c0-.6.5-1.1 1.1-1.1h25.1v6.1c0 2.2 1.8 3.9 3.9 3.9h6.1v14.2H41.6c-2.2 0-3.9 1.8-3.9 3.9zm28 26.1c0 1.1-.9 2.1-2.1 2.1h-22c-1.1 0-2.1-.9-2.1-2.1V38.4c0-1.1.9-2.1 2.1-2.1h22c1.1 0 2.1.9 2.1 2.1v26.1z"/><path class="st1" d="M61.7 38.5h-18c-1.1 0-1.9.9-1.9 1.9v4c0 1.1.9 1.9 1.9 1.9h18c1.1 0 1.9-.9 1.9-1.9v-4c0-1-.9-1.9-1.9-1.9zm0 6l-18.1.1s-.1 0-.1-.1v-4s0-.1.1-.1h18s.1 0 .1.1v4zm-16.1 5h-2c-1.1 0-1.9.9-1.9 1.9v2c0 1.1.9 1.9 1.9 1.9h2c1.1 0 1.9-.9 1.9-1.9v-2c.1-1-.8-1.9-1.9-1.9zm.1 4l-2.1.1s-.1 0-.1-.1v-2s0-.1.1-.1h2s.1 0 .1.1v2zm16-4h-2c-1.1 0-1.9.9-1.9 1.9v2c0 1.1.9 1.9 1.9 1.9h2c1.1 0 1.9-.9 1.9-1.9v-2c0-1-.9-1.9-1.9-1.9zm0 4l-2.1.1s-.1 0-.1-.1v-2s0-.1.1-.1h2s.1 0 .1.1v2zm-8.1-4h-2c-1.1 0-1.9.9-1.9 1.9v2c0 1.1.9 1.9 1.9 1.9h2c1.1 0 1.9-.9 1.9-1.9v-2c.1-1-.8-1.9-1.9-1.9zm.1 4l-2.1.1s-.1 0-.1-.1v-2s0-.1.1-.1h2s.1 0 .1.1v2zm-8.1 4h-2c-1.1 0-1.9.9-1.9 1.9v2c0 1.1.9 1.9 1.9 1.9h2c1.1 0 1.9-.9 1.9-1.9v-2c.1-1-.8-1.9-1.9-1.9zm.1 4s0 .1 0 0l-2.1.1s-.1 0-.1-.1v-2s0-.1.1-.1h2s.1 0 .1.1v2zm16-4h-2c-1.1 0-1.9.9-1.9 1.9v2c0 1.1.9 1.9 1.9 1.9h2c1.1 0 1.9-.9 1.9-1.9v-2c0-1-.9-1.9-1.9-1.9zm0 4s0 .1 0 0l-2.1.1s-.1 0-.1-.1v-2s0-.1.1-.1h2s.1 0 .1.1v2zm-8.1-4h-2c-1.1 0-1.9.9-1.9 1.9v2c0 1.1.9 1.9 1.9 1.9h2c1.1 0 1.9-.9 1.9-1.9v-2c.1-1-.8-1.9-1.9-1.9zm.1 4s0 .1 0 0l-2.1.1s-.1 0-.1-.1v-2s0-.1.1-.1h2s.1 0 .1.1v2z"/></svg>