<svg version="1.1" id="Слой_1" xmlns="http://www.w3.org/2000/svg" xmlns:xlink="http://www.w3.org/1999/xlink" x="0" y="0" viewBox="0 0 893 790.5" xml:space="preserve"><defs><path id="SVGID_1_" d="M0 0h893v790.5H0z"/></defs><clipPath id="SVGID_2_"><use xlink:href="#SVGID_1_" overflow="visible"/></clipPath><g clip-path="url(#SVGID_2_)"><path d="M1104.5 963.3c-2.7 2.7-2.6 7 0 9.6 2.7 2.7 7 2.7 9.7 0 2.6-2.6 2.6-6.9-.1-9.6-2.6-2.6-7-2.7-9.6 0zm-21.6 22.2c-2.5 2.5-2.5 6.6 0 9.1 2.5 2.6 6.6 2.6 9.1 0 2.5-2.5 2.5-6.6 0-9.2-2.5-2.4-6.6-2.4-9.1.1zm21-66.7c-3 3-3 7.9 0 11 3 3 7.9 3 10.9 0s3-7.9 0-11c-3-3-7.9-3-10.9 0zm-21.5 22.3c-2.8 2.8-2.8 7.3 0 10.1s7.3 2.8 10.1 0 2.8-7.3 0-10c-2.9-2.8-7.3-2.8-10.1-.1zm-21.5 22.5c-2.5 2.5-2.5 6.6 0 9.1s6.6 2.5 9.1-.1c2.5-2.5 2.5-6.6 0-9.1-2.5-2.4-6.5-2.4-9.1.1zm-21.8 22c-2.5 2.5-2.5 6.5 0 9s6.5 2.5 9 0 2.5-6.5 0-9-6.5-2.5-9 0zm62.9-112.5c-4 4-4 10.6 0 14.6s10.5 4 14.6 0c4-4 4-10.6 0-14.6s-10.5-4-14.6 0zm-21.4 22.5c-3.7 3.7-3.7 9.8 0 13.6 3.7 3.7 9.8 3.7 13.6 0 3.8-3.7 3.8-9.8 0-13.6-3.8-3.8-9.9-3.8-13.6 0zm-21.3 22.5c-3.4 3.4-3.4 9 0 12.4 3.4 3.4 9 3.4 12.4 0 3.4-3.4 3.4-9-.1-12.4-3.3-3.4-8.9-3.4-12.3 0zm-20.2 23.6a6.43 6.43 0 0 0-.1 9c2.5 2.5 6.5 2.5 9.1 0 2.5-2.5 2.5-6.5 0-9s-6.6-2.5-9 0zm-21.9 22c-2.4 2.4-2.4 6.4 0 8.9 2.4 2.4 6.4 2.4 8.8 0a6.1 6.1 0 0 0 0-8.8c-2.4-2.6-6.4-2.6-8.8-.1zm-21.7 22.1c-2.4 2.4-2.4 6.2 0 8.5 2.4 2.4 6.2 2.3 8.5 0 2.3-2.4 2.3-6.2 0-8.5-2.4-2.3-6.2-2.3-8.5 0zm-44.2 43.5c-2.5 2.5-2.5 6.6 0 9.1s6.6 2.5 9.1 0 2.5-6.6 0-9.1-6.6-2.5-9.1 0zm150.7-200c-4 4-4 10.6 0 14.7s10.7 4.1 14.7.1c4.1-4.1 4-10.7 0-14.7-4.1-4.2-10.6-4.2-14.7-.1zm-21.8 22.1c-4 4-4 10.4 0 14.4 3.9 3.9 10.4 3.9 14.4 0 3.9-4 3.9-10.4 0-14.4-4-4-10.4-4-14.4 0zM1058 873c-4.1 4.1-4.2 10.8 0 14.9 4.1 4.1 10.8 4.1 15 0 4.1-4.1 4.1-10.8 0-14.9-4.2-4.1-10.9-4.1-15 0zm-21.2 22.5c-3.8 3.8-3.8 9.9-.1 13.6 3.7 3.7 9.9 3.7 13.6 0 3.8-3.7 3.7-9.9 0-13.6-3.7-3.7-9.8-3.7-13.5 0zm-20.2 23.8c-2.7 2.7-2.7 7.2 0 10 2.8 2.8 7.2 2.8 10 0 2.7-2.7 2.7-7.2 0-10s-7.2-2.8-10 0zm-21.5 22.4c-2.5 2.5-2.5 6.6 0 9.1s6.6 2.5 9.1 0 2.5-6.6 0-9.1c-2.5-2.6-6.5-2.6-9.1 0zm-21.9 21.9c-2.5 2.5-2.5 6.5 0 9.1 2.5 2.5 6.6 2.5 9.1 0s2.5-6.6 0-9.1-6.5-2.5-9.1 0zm-21.8 22c-2.4 2.5-2.5 6.4 0 8.8 2.4 2.4 6.4 2.5 8.9 0s2.4-6.5 0-8.9c-2.5-2.4-6.4-2.4-8.9.1zm-22.2 21.6c-2.7 2.6-2.7 6.9 0 9.5 2.6 2.6 6.9 2.6 9.5 0 2.6-2.6 2.6-6.9 0-9.5-2.6-2.6-6.9-2.6-9.5 0zM1101.5 785c-4.3 4.3-4.3 11.3 0 15.5 4.3 4.3 11.3 4.3 15.6 0 4.3-4.3 4.3-11.3 0-15.5-4.3-4.3-11.2-4.3-15.6 0zm-21.3 22.5c-4 3.9-4 10.4 0 14.3 3.9 4 10.4 3.9 14.3 0 4-4 4-10.4.1-14.3-4-3.9-10.4-3.9-14.4 0zm-21.9 21.9c-4 4-4 10.4 0 14.4 3.9 3.9 10.4 3.9 14.3-.1 4-3.9 4-10.4 0-14.3-3.9-3.9-10.4-3.9-14.3 0zm-21.5 22.4c-3.7 3.7-3.7 9.8.1 13.5 3.7 3.7 9.7 3.7 13.5 0 3.7-3.7 3.7-9.7 0-13.5-3.8-3.7-9.9-3.8-13.6 0zm-22 21.8c-3.7 3.8-3.7 9.9 0 13.6 3.8 3.8 9.9 3.7 13.6 0 3.7-3.8 3.7-9.9 0-13.6-3.7-3.7-9.8-3.7-13.6 0zm-21.5 22.3c-3.6 3.6-3.6 9.3 0 12.9 3.6 3.6 9.4 3.6 12.9 0 3.6-3.6 3.5-9.4 0-12.9-3.6-3.6-9.4-3.6-12.9 0zm-21.4 22.5c-3.3 3.3-3.3 8.5 0 11.8 3.3 3.3 8.5 3.3 11.8 0 3.3-3.3 3.3-8.5 0-11.8-3.2-3.3-8.5-3.3-11.8 0zm-21.3 22.5c-3 3-3 7.7 0 10.6 2.9 2.9 7.6 2.9 10.6 0 2.9-2.9 2.9-7.6 0-10.5-3-3-7.7-3-10.6-.1zm-21.2 22.6c-2.5 2.5-2.5 6.6 0 9.2 2.5 2.5 6.6 2.5 9.1-.1 2.6-2.5 2.6-6.6.1-9.1-2.6-2.4-6.7-2.5-9.2 0zm-21.8 22c-2.5 2.5-2.5 6.5 0 9s6.5 2.5 9 0 2.5-6.5 0-9-6.6-2.4-9 0zm-43.8 44c-2.4 2.4-2.4 6.3 0 8.8 2.4 2.4 6.3 2.4 8.8 0 2.4-2.4 2.4-6.4 0-8.8-2.5-2.4-6.4-2.4-8.8 0zM1102 741.6c-4 4-4.1 10.6 0 14.6 4 4 10.6 4 14.6 0s4-10.5 0-14.6c-4-4-10.5-4-14.6 0zm-21.8 22.1c-4 4-4 10.4 0 14.4 3.9 4 10.4 4 14.4 0s3.9-10.4 0-14.4c-4-4-10.4-4-14.4 0zm-21.3 22.5c-3.7 3.6-3.6 9.5 0 13.1 3.6 3.6 9.5 3.6 13.1 0 3.6-3.6 3.7-9.5 0-13.1-3.6-3.6-9.5-3.6-13.1 0zm-21.9 21.9c-3.7 3.6-3.7 9.6 0 13.2 3.6 3.7 9.6 3.7 13.2 0 3.7-3.6 3.6-9.6 0-13.2-3.7-3.7-9.6-3.7-13.2 0zm-21.6 22.3c-3.4 3.4-3.4 8.9 0 12.4 3.4 3.4 8.9 3.4 12.4 0 3.4-3.5 3.4-9 0-12.4-3.4-3.4-8.9-3.4-12.4 0zm-21.7 22c-3.4 3.4-3.4 8.8 0 12.2s8.8 3.4 12.2 0c3.4-3.3 3.3-8.8 0-12.2-3.5-3.3-8.9-3.3-12.2 0zm-21.4 22.5c-3 3-3 8 0 11s8 3 11.1 0c3-3 3-8 0-11-3.1-3-8.1-3-11.1 0zM950.5 897c-2.9 2.9-2.9 7.7.1 10.7 3 3 7.7 3 10.7 0 3-3 3-7.8 0-10.7-3-3-7.8-3-10.8 0zm-21.9 21.9c-3 3-2.9 7.8 0 10.7 2.9 3 7.7 3 10.7 0 2.9-3 2.9-7.7 0-10.7-2.9-2.9-7.8-2.9-10.7 0zm-21 22.9c-2.5 2.5-2.5 6.5 0 8.9a6.1 6.1 0 0 0 8.8 0c2.5-2.4 2.4-6.4 0-8.9a6.1 6.1 0 0 0-8.8 0zm-22 21.8c-2.5 2.5-2.5 6.5 0 9.1 2.5 2.5 6.5 2.5 9-.1 2.5-2.5 2.5-6.5 0-9s-6.5-2.5-9 0zM864 985.9c-2.3 2.3-2.3 6.1 0 8.4 2.3 2.3 6.1 2.3 8.4 0 2.3-2.3 2.3-6.1 0-8.4a5.8 5.8 0 0 0-8.4 0zm238-288.1c-4 4-4 10.5 0 14.6 4 4 10.6 4 14.6 0s4-10.6 0-14.6-10.5-4.1-14.6 0zm-21 22.8c-3.5 3.5-3.5 9.2 0 12.8 3.5 3.6 9.2 3.5 12.8 0 3.5-3.5 3.5-9.2-.1-12.7-3.5-3.6-9.2-3.6-12.7-.1zm-21.9 21.9c-3.5 3.5-3.5 9.2 0 12.8 3.5 3.5 9.2 3.5 12.7 0 3.6-3.5 3.6-9.2 0-12.8-3.5-3.5-9.2-3.5-12.7 0zm-21.5 22.4c-3.3 3.3-3.3 8.6.1 12 3.3 3.3 8.6 3.3 11.9 0 3.3-3.3 3.3-8.6 0-11.9-3.4-3.4-8.7-3.4-12-.1zm-21.5 22.3c-3.1 3.1-3.1 8.1 0 11.2 3 3.1 8.1 3.1 11.2 0 3.1-3.1 3-8.1 0-11.2-3.2-3.1-8.1-3.1-11.2 0zm-22 21.9c-3.1 3.1-3.1 8.1 0 11.2 3.1 3.1 8.1 3.1 11.2 0 3.1-3.1 3-8.1 0-11.2-3.1-3.1-8-3.1-11.2 0zm-21.6 22.2c-3 3-3 7.7 0 10.7 3 3 7.7 3 10.7 0 3-3 3-7.7 0-10.7-3-3-7.8-3-10.7 0zM951 853.6c-2.7 2.7-2.7 7.1 0 9.7 2.7 2.7 7.1 2.7 9.7 0 2.7-2.7 2.7-7.1 0-9.8-2.6-2.5-7-2.5-9.7.1zm-22 21.9c-2.7 2.7-2.7 7.2 0 10 2.7 2.7 7.2 2.7 10 0 2.7-2.8 2.7-7.2 0-10-2.8-2.8-7.3-2.8-10 0zm-21.3 22.6c-2.4 2.4-2.4 6.2 0 8.6 2.4 2.4 6.3 2.4 8.7 0 2.4-2.4 2.4-6.3 0-8.6-2.4-2.4-6.3-2.4-8.7 0zm-21.7 22c-2.3 2.3-2.3 6 0 8.3 2.3 2.3 5.9 2.3 8.2 0 2.3-2.3 2.3-6 0-8.3-2.3-2.2-5.9-2.2-8.2 0zm-22.1 21.8c-2.4 2.4-2.4 6.3 0 8.6 2.4 2.4 6.2 2.4 8.6 0 2.4-2.4 2.4-6.2 0-8.6-2.4-2.4-6.3-2.4-8.6 0zm-21.4 22.5c-2.1 2.1-2.1 5.5 0 7.6 2.1 2.1 5.5 2.1 7.5-.1 2.1-2.1 2.1-5.4.1-7.5-2.1-2.1-5.5-2.1-7.6 0zm-21.9 21.9c-2.1 2.1-2.1 5.5 0 7.6 2.1 2.1 5.5 2.1 7.6 0 2.1-2.1 2.1-5.5 0-7.5-2.2-2.2-5.5-2.2-7.6-.1zm282.3-331.4c-3.5 3.5-3.5 9.3 0 12.8s9.2 3.5 12.8-.1c3.5-3.5 3.5-9.2 0-12.7s-9.2-3.5-12.8 0zm-21.9 21.8c-3.6 3.6-3.6 9.4 0 12.9 3.6 3.6 9.3 3.6 12.9 0 3.6-3.6 3.6-9.4 0-12.9-3.6-3.6-9.4-3.6-12.9 0zm-21 22.9c-3 3-3 7.9 0 11 3 3 7.9 3 10.9-.1 3-3 3-7.9 0-10.9s-7.9-3-10.9 0zm-22.1 21.7c-3.1 3.2-3.2 8.3 0 11.4 3.2 3.2 8.2 3.1 11.4 0 3.2-3.2 3.2-8.3 0-11.4-3.2-3.2-8.3-3.2-11.4 0zm-22 21.9a8.15 8.15 0 0 0 0 11.4c3.2 3.2 8.3 3.1 11.4 0 3.2-3.2 3.2-8.2.1-11.4-3.2-3.1-8.3-3.1-11.5 0zm-21.5 22.3c-3 3-3 7.8 0 10.7 3 2.9 7.8 2.9 10.7 0 3-3 3-7.8 0-10.7-3-3-7.8-3-10.7 0zm-21.8 22.1c-2.8 2.8-2.8 7.5 0 10.3 2.8 2.8 7.5 2.8 10.3 0 2.9-2.9 2.9-7.5 0-10.3-2.8-2.9-7.4-2.9-10.3 0zm-22 21.8c-2.9 2.9-3 7.6 0 10.6 2.9 2.9 7.6 2.9 10.6 0 2.9-3 2.9-7.7 0-10.6-3-2.9-7.7-2.9-10.6 0zm-21.1 22.7c-2.5 2.5-2.5 6.5 0 9s6.5 2.5 9.1 0c2.5-2.5 2.5-6.5 0-9-2.7-2.5-6.6-2.5-9.1 0zm-21.8 22.1c-2.4 2.4-2.4 6.3 0 8.7 2.4 2.4 6.3 2.4 8.7 0 2.4-2.4 2.4-6.3 0-8.8-2.4-2.4-6.3-2.4-8.7.1zm-21.3 22.6c-2.1 2-2 5.4 0 7.4 2.1 2.1 5.4 2.1 7.4 0 2.1-2.1 2.1-5.4 0-7.4-2-2.1-5.3-2.1-7.4 0zm-21.7 22.1c-1.9 1.9-1.9 5 0 6.9 1.9 1.9 5 1.9 6.9 0 1.9-1.9 1.9-5 0-6.9-1.9-1.9-4.9-1.9-6.9 0zm-21.9 21.9c-1.9 1.9-1.9 5 0 6.9 1.9 1.9 5 1.9 7 0 1.9-1.9 1.9-5 0-6.9-2-1.9-5.1-1.9-7 0zm-21.9 21.9c-1.9 1.9-1.9 5 .1 6.9 1.9 1.9 5 1.9 6.9 0 1.9-1.9 1.9-5 0-7-2-1.8-5.1-1.8-7 .1zm-21.8 22c-1.8 1.9-1.8 4.9 0 6.7 1.9 1.8 4.8 1.8 6.7 0 1.8-1.8 1.9-4.8 0-6.7-1.9-1.8-4.9-1.8-6.7 0zm-21.3 22.7c-1.5 1.5-1.5 3.9 0 5.3 1.5 1.5 3.9 1.5 5.3 0 1.5-1.5 1.5-3.9 0-5.3-1.4-1.5-3.8-1.5-5.3 0zm325.4-376.1c-3.4 3.4-3.4 8.9 0 12.3 3.4 3.4 8.9 3.4 12.3 0 3.4-3.4 3.4-8.9 0-12.3-3.5-3.4-9-3.4-12.3 0zm-22.1 21.8c-3.4 3.4-3.4 9.1 0 12.5 3.5 3.5 9.1 3.5 12.5 0s3.4-9.1 0-12.5c-3.4-3.5-9-3.5-12.5 0zm-21.1 22.6c-3 3.1-3 8 0 11 3.1 3.1 8 3.1 11 0 3.1-3 3.1-8 0-11.1-3-2.9-8-2.9-11 .1zm-21.5 22.4c-2.8 2.8-2.8 7.3-.1 10.1 2.8 2.8 7.3 2.8 10.1 0s2.8-7.2 0-10.1c-2.7-2.8-7.2-2.8-10 0zm-22.5 21.4c-3.1 3-3.1 8.1 0 11.2 3.1 3.1 8.1 3.1 11.2 0 3.1-3.1 3.1-8.1 0-11.2-3-3.1-8.1-3.1-11.2 0zm-21.5 22.3c-2.9 2.9-2.9 7.5 0 10.4 2.9 2.9 7.5 2.9 10.4 0 2.9-2.9 2.9-7.5 0-10.5-2.9-2.8-7.5-2.8-10.4.1zm-21.9 21.9c-2.9 2.9-2.9 7.5 0 10.4 2.9 2.9 7.6 2.9 10.4 0 2.9-2.9 2.9-7.5 0-10.4-2.9-2.9-7.5-2.9-10.4 0zM951 765.9c-2.7 2.7-2.7 7.1 0 9.8 2.7 2.7 7.1 2.7 9.8 0s2.7-7.1 0-9.8c-2.7-2.7-7.1-2.7-9.8 0zm-21.5 22.4c-2.5 2.5-2.5 6.5-.1 8.9 2.5 2.5 6.5 2.5 8.9 0 2.4-2.4 2.4-6.4 0-8.9-2.4-2.4-6.3-2.4-8.8 0zm-20.9 22.9c-1.9 1.9-1.9 5 0 6.9 1.9 1.9 5.1 1.9 6.9 0 1.9-1.9 1.9-5.1 0-7-1.9-1.8-5-1.8-6.9.1zm-22 21.9c-1.9 1.9-1.9 5.1 0 7 2 2 5.1 2 7.1 0 2-1.9 1.9-5.1 0-7.1-2-1.9-5.2-1.9-7.1.1zM865 855.3c-1.8 1.8-1.7 4.7 0 6.4 1.8 1.8 4.6 1.8 6.5 0 1.8-1.8 1.7-4.6-.1-6.5-1.8-1.7-4.6-1.7-6.4.1zm-21.6 22.2c-1.6 1.6-1.6 4.2 0 5.8 1.6 1.6 4.2 1.6 5.8 0 1.6-1.6 1.6-4.3 0-5.9-1.6-1.5-4.2-1.5-5.8.1zm-21.9 21.9c-1.6 1.6-1.6 4.2 0 5.8 1.6 1.6 4.2 1.7 5.9 0 1.6-1.6 1.6-4.2-.1-5.9-1.6-1.5-4.3-1.5-5.8.1zm-22.1 21.9c-1.7 1.7-1.7 4.3 0 6 1.7 1.7 4.4 1.7 6.1 0 1.7-1.7 1.7-4.4 0-6.1-1.7-1.6-4.4-1.6-6.1.1zm-21.8 22c-1.6 1.6-1.6 4.3 0 5.8 1.6 1.6 4.2 1.6 5.9 0 1.6-1.6 1.6-4.2 0-5.9-1.7-1.5-4.3-1.5-5.9.1zm-21 22.9c-1.1 1.1-1.1 2.8 0 3.9s2.8 1.1 3.9 0 1.1-2.8 0-3.9c-1-1.1-2.8-1.1-3.9 0zm-21.5 22.3c-.9.9-.8 2.3 0 3 .9.9 2.2.8 3 0 .8-.8.8-2.2 0-3-.7-.8-2.2-.8-3 0zm368.7-420.4c-3 3-3 7.9 0 11 3 3 7.9 3 11 0 3-3.1 3-8 0-11s-7.9-3.1-11 0zM1082 590c-3 3-3 7.8 0 10.9 3 3 7.8 3 10.8 0 3-3 3-7.8 0-10.8-3-3-7.8-3-10.8-.1zm-21.7 22.3c-2.8 2.8-2.8 7.5 0 10.3 2.9 2.8 7.5 2.8 10.3 0 2.8-2.9 2.8-7.5 0-10.3-2.8-2.9-7.4-2.9-10.3 0zm-22 21.8c-2.9 2.9-2.9 7.5 0 10.4 2.9 2.9 7.5 2.9 10.4 0 2.9-2.9 2.8-7.5 0-10.4-2.8-2.9-7.5-2.9-10.4 0zm-22.2 21.5c-3.1 3.1-3.1 8.1 0 11.2 3.1 3.1 8 3.1 11.2 0 3.1-3.1 3.1-8.1 0-11.2-3.2-3.1-8.1-3-11.2 0zm-21.8 22.1c-3 3-3 7.8 0 10.9 3 3 7.8 3 10.8 0 3-3 3-7.8 0-10.8-3-3-7.8-3.1-10.8-.1zm-21.7 22.2c-2.9 2.9-2.9 7.5 0 10.4 2.9 2.9 7.5 2.9 10.4 0 2.9-2.9 2.9-7.6 0-10.4-2.9-2.9-7.5-2.9-10.4 0zm-21.9 21.9c-2.8 2.8-2.8 7.5 0 10.3 2.9 2.8 7.5 2.8 10.3 0 2.8-2.8 2.8-7.5 0-10.3-2.8-2.8-7.4-2.8-10.3 0zm-21.6 22.3c-2.7 2.7-2.7 7.1 0 9.7 2.7 2.7 7 2.7 9.7 0 2.7-2.7 2.7-7.1.1-9.7-2.8-2.7-7.1-2.8-9.8 0zm-21.5 22.3c-2.5 2.5-2.5 6.5 0 8.9 2.4 2.4 6.3 2.4 8.8 0 2.5-2.4 2.5-6.4.1-8.8-2.5-2.5-6.5-2.5-8.9-.1zm-21.1 22.7c-2 2-2 5.3 0 7.3s5.3 2 7.3 0 2-5.3 0-7.3-5.3-2-7.3 0zm-21.8 22.1c-1.9 1.9-1.9 5 0 6.9 1.9 1.9 5 1.9 6.9 0 1.9-1.9 1.9-5.1.1-6.9-2-1.9-5.1-1.9-7 0zm-21 22.8c-1.4 1.4-1.4 3.7 0 5.1 1.4 1.4 3.7 1.4 5.1 0 1.4-1.4 1.4-3.7 0-5.1-1.4-1.4-3.7-1.4-5.1 0zm-21.8 22c-1.4 1.4-1.4 3.7 0 5 1.4 1.4 3.7 1.4 5 0 1.4-1.4 1.4-3.6 0-5-1.5-1.3-3.7-1.3-5 0zm-22 21.8c-1.4 1.4-1.5 3.7 0 5.2 1.4 1.4 3.8 1.4 5.2 0 1.4-1.4 1.4-3.8 0-5.2-1.5-1.4-3.8-1.4-5.2 0zm-22.2 21.8c-1.5 1.5-1.5 4 0 5.6 1.5 1.5 4 1.5 5.5 0 1.6-1.6 1.6-4 .1-5.6-1.5-1.5-4.1-1.5-5.6 0zm-21.9 21.9c-1.5 1.6-1.5 4.1 0 5.6 1.6 1.6 4 1.5 5.6 0 1.5-1.5 1.5-4 0-5.6-1.6-1.6-4.1-1.6-5.6 0zm-20.9 23c-1 1-1 2.5 0 3.5s2.5 1 3.5 0 1-2.5 0-3.5c-.9-1-2.5-1-3.5 0zm-21.6 22.2c-.8.8-.8 2.1.1 2.9.8.8 2.1.8 2.9 0 .8-.8.8-2.1 0-2.9-.9-.8-2.2-.9-3 0zm-21.6 22.2c-.6.7-.6 1.7 0 2.3.6.6 1.6.6 2.3 0 .6-.6.7-1.6 0-2.3-.7-.7-1.7-.7-2.3 0zM1104.6 525a6.64 6.64 0 0 0 0 9.4c2.6 2.6 6.8 2.6 9.3 0 2.6-2.6 2.6-6.8.1-9.4-2.6-2.6-6.8-2.5-9.4 0zm-22.3 21.6c-2.8 2.8-2.8 7.3 0 10.1s7.3 2.8 10.1 0 2.8-7.3 0-10.1-7.3-2.8-10.1 0zm-22 21.8c-2.8 2.9-2.8 7.5 0 10.3 2.8 2.9 7.5 2.9 10.3 0 2.8-2.8 2.8-7.4 0-10.3-2.8-2.9-7.4-2.9-10.3 0zm-22.1 21.7c-3 3-2.9 7.8 0 10.7 2.9 2.9 7.8 2.9 10.7 0 3-2.9 3-7.8 0-10.7-2.9-3-7.8-3-10.7 0zm-22.3 21.5c-3.1 3.2-3.1 8.3 0 11.5 3.2 3.1 8.3 3.1 11.5 0 3.1-3.1 3.1-8.3 0-11.4-3.2-3.2-8.4-3.2-11.5-.1zm-21.8 22c-3.1 3.1-3.1 8.2 0 11.3 3.1 3.1 8.2 3.1 11.3 0 3.1-3.1 3.1-8.2 0-11.3-3.1-3.1-8.2-3.1-11.3 0zm-21.4 22.5c-2.8 2.8-2.8 7.4 0 10.2 2.8 2.8 7.4 2.8 10.2 0 2.8-2.8 2.8-7.4.1-10.2-2.9-2.8-7.5-2.8-10.3 0zm-21.3 22.6c-2.4 2.4-2.4 6.4 0 8.9 2.4 2.4 6.4 2.5 8.9 0s2.4-6.5 0-8.9a6.4 6.4 0 0 0-8.9 0zm-21.9 21.9a6.4 6.4 0 0 0 0 8.9c2.4 2.4 6.4 2.5 8.9 0 2.4-2.4 2.4-6.5 0-8.9a6.4 6.4 0 0 0-8.9 0zm-21.9 22c-2.4 2.4-2.4 6.3 0 8.8 2.4 2.4 6.4 2.4 8.7 0 2.4-2.4 2.4-6.3 0-8.8-2.3-2.4-6.3-2.4-8.7 0zM886.2 745c-2.2 2.2-2.2 5.7 0 7.9s5.7 2.2 7.9 0 2.2-5.7 0-7.9-5.8-2.2-7.9 0zm-21.4 22.4c-1.9 1.9-1.9 4.9 0 6.8 1.9 1.9 4.9 1.9 6.8 0 1.9-1.9 1.9-4.9 0-6.8-1.9-1.9-4.9-1.9-6.8 0zm-21.2 22.7c-1.4 1.4-1.4 3.9 0 5.4 1.4 1.4 3.9 1.4 5.3 0 1.5-1.5 1.5-3.9.1-5.4-1.5-1.5-3.9-1.5-5.4 0zM821.7 812c-1.5 1.4-1.5 3.9 0 5.4 1.4 1.4 3.9 1.4 5.3 0 1.5-1.5 1.4-3.9 0-5.3-1.4-1.6-3.9-1.6-5.3-.1zm-21.6 22.2a3.32 3.32 0 0 0 0 4.7c1.3 1.3 3.4 1.3 4.7 0 1.3-1.3 1.3-3.4 0-4.7a3.32 3.32 0 0 0-4.7 0zm-21.9 22c-1.3 1.3-1.3 3.3 0 4.6 1.3 1.3 3.3 1.3 4.6 0 1.3-1.3 1.3-3.3 0-4.6-1.2-1.3-3.3-1.3-4.6 0zM756 877.8c-1.4 1.4-1.4 3.7 0 5.2s3.8 1.5 5.2 0c1.4-1.4 1.4-3.8 0-5.2-1.4-1.4-3.8-1.4-5.2 0zm-21.9 21.9c-1.4 1.4-1.5 3.8 0 5.2 1.4 1.4 3.8 1.4 5.2 0 1.4-1.4 1.4-3.8 0-5.2-1.5-1.4-3.8-1.4-5.2 0zM713 922.6c-.9.9-.9 2.4 0 3.4.9.9 2.4.9 3.4 0 .9-1 .9-2.5 0-3.4-.9-.9-2.4-.9-3.4 0zm-21.6 22.1c-.8.8-.8 2.1 0 2.9.8.8 2.1.8 2.9 0 .8-.8.8-2.1 0-2.9-.8-.7-2.1-.8-2.9 0zm-21.8 22.2c-.7.7-.7 1.9 0 2.5.7.7 1.9.7 2.6 0 .7-.7.7-1.8 0-2.5-.7-.8-1.9-.8-2.6 0zM648 989c-.6.5-.6 1.5 0 2 .5.6 1.5.6 2.1.1.6-.6.6-1.5 0-2.1-.7-.6-1.6-.5-2.1 0zm434.8-485.9c-2.5 2.6-2.5 6.7 0 9.3 2.6 2.5 6.7 2.5 9.2 0 2.6-2.6 2.6-6.7 0-9.3-2.5-2.5-6.7-2.5-9.2 0zm-22.2 21.8c-2.7 2.7-2.7 7 0 9.7 2.7 2.7 7.1 2.7 9.7 0 2.7-2.7 2.7-7.1 0-9.7-2.6-2.7-7-2.7-9.7 0zm-22.1 21.7c-2.8 2.8-2.8 7.3 0 10.1s7.3 2.8 10.1 0 2.8-7.3 0-10.1-7.3-2.8-10.1 0zm-22.2 21.7c-2.9 2.9-2.9 7.7 0 10.6 2.9 2.9 7.6 2.9 10.6 0 2.9-2.9 2.9-7.7 0-10.6-2.9-2.9-7.6-3-10.6 0zm-22 21.7c-3 3-3 7.8 0 10.8 3 3 7.8 3 10.8 0 3-3 3-7.9 0-10.9-3-2.8-7.8-2.8-10.8.1zm-21.7 22.2c-2.9 2.9-2.9 7.6 0 10.5 2.9 2.9 7.6 2.9 10.4 0 2.9-2.9 2.9-7.5 0-10.4-2.9-3-7.5-3-10.4-.1zm-21.4 22.4a6.64 6.64 0 0 0 0 9.4c2.6 2.6 6.8 2.6 9.4 0 2.6-2.6 2.6-6.8 0-9.4a6.64 6.64 0 0 0-9.4 0zm-21.8 22.1c-2.5 2.5-2.5 6.6 0 9.1s6.6 2.5 9.1 0c2.6-2.6 2.5-6.6.1-9.1-2.6-2.5-6.7-2.6-9.2 0zm-21.5 22.4c-2.2 2.3-2.2 5.9 0 8.2 2.3 2.2 5.9 2.3 8.2 0 2.2-2.2 2.2-5.9-.1-8.1-2.2-2.3-5.8-2.4-8.1-.1zm-21.7 22c-2.2 2.2-2.2 5.7 0 7.9 2.2 2.1 5.7 2.2 7.9 0s2.2-5.7 0-7.9-5.8-2.1-7.9 0zm-21.7 22.3c-2.1 2-2 5.2 0 7.3 2 2 5.3 2 7.3 0s2-5.3 0-7.3c-2-2.1-5.3-2.1-7.3 0zm-21.1 22.7c-1.6 1.5-1.6 4.1 0 5.7 1.5 1.5 4.1 1.5 5.7 0 1.6-1.6 1.6-4.2 0-5.7-1.6-1.7-4.1-1.6-5.7 0zm-21.8 22c-1.5 1.5-1.5 3.9 0 5.4 1.5 1.5 3.9 1.5 5.4 0 1.5-1.5 1.5-4 0-5.4-1.4-1.5-3.9-1.5-5.4 0zM800 790.3c-1.4 1.4-1.4 3.6 0 4.9 1.3 1.4 3.6 1.4 4.9 0 1.4-1.4 1.3-3.6 0-4.9-1.4-1.4-3.5-1.4-4.9 0zm-21.9 22c-1.3 1.3-1.3 3.4 0 4.8 1.3 1.3 3.4 1.3 4.8 0 1.3-1.3 1.3-3.4 0-4.8-1.3-1.3-3.5-1.3-4.8 0zm-21.8 22c-1.3 1.3-1.2 3.3 0 4.5 1.2 1.2 3.2 1.2 4.5 0 1.2-1.3 1.2-3.3 0-4.5-1.2-1.2-3.2-1.2-4.5 0zm-21.7 22.1c-1.2 1.2-1.2 3.1 0 4.3 1.1 1.1 3.1 1.1 4.2 0 1.2-1.1 1.1-3.1 0-4.2-1.2-1.3-3.1-1.3-4.2-.1zM713 878.6c-1 1-1 2.7-.1 3.6 1 1 2.7 1 3.7 0s1-2.6 0-3.6-2.7-1-3.6 0zm-21.8 22.2c-.8.8-.8 2.3 0 3.2.9.8 2.3.8 3.1 0 .9-.9.9-2.3.1-3.2-.9-.9-2.3-.9-3.2 0zm-21.8 22c-.8.8-.8 2.2 0 3 .8.8 2.2.8 3 0 .8-.8.9-2.2.1-3.1-.9-.8-2.3-.7-3.1.1zM647.7 945c-.7.7-.7 1.8 0 2.5s1.8.7 2.5 0 .7-1.9 0-2.5c-.6-.8-1.8-.8-2.5 0zM626 967c-.6.6-.7 1.6 0 2.2.6.6 1.6.6 2.2 0 .6-.6.6-1.6 0-2.2-.6-.6-1.6-.6-2.2 0zm-21.9 22c-.6.6-.5 1.5 0 2.1.6.6 1.5.6 2.1 0 .5-.5.6-1.5 0-2.1-.5-.5-1.5-.5-2.1 0zm456.8-507.7c-2.5 2.5-2.5 6.6 0 9.1s6.6 2.5 9.1 0 2.5-6.6 0-9.1-6.6-2.5-9.1 0zm-22.1 21.8c-2.7 2.6-2.7 6.8 0 9.4 2.6 2.6 6.8 2.6 9.4 0 2.7-2.6 2.7-6.8.1-9.4-2.6-2.7-6.9-2.7-9.5 0zm-22.2 21.6c-2.7 2.7-2.7 7.2 0 10 2.8 2.8 7.2 2.7 10 0 2.8-2.8 2.8-7.2.1-10-2.8-2.7-7.3-2.8-10.1 0zm-21.8 22c-2.7 2.7-2.7 7.1 0 9.8 2.7 2.7 7.1 2.7 9.8 0 2.7-2.7 2.7-7.1 0-9.8-2.7-2.7-7.1-2.7-9.8 0zm-22 21.8c-2.8 2.8-2.8 7.3 0 10.1s7.3 2.8 10.1 0 2.8-7.3 0-10.1-7.4-2.8-10.1 0zm-21.5 22.4c-2.6 2.6-2.6 6.7 0 9.2 2.5 2.5 6.6 2.5 9.2 0 2.5-2.5 2.5-6.7 0-9.2-2.5-2.6-6.7-2.6-9.2 0zM930 613.5c-2.2 2.2-2.2 5.7 0 7.9s5.7 2.2 7.8 0c2.2-2.2 2.2-5.7 0-7.9-2.1-2.2-5.6-2.2-7.8 0zm-21.9 21.9c-2.1 2.1-2.1 5.6 0 7.8 2.2 2.1 5.6 2.1 7.8 0 2.2-2.2 2.2-5.6 0-7.8-2.1-2.1-5.6-2.1-7.8 0zm-21.6 22.2c-2 2-1.9 5.2 0 7.2 2 2 5.2 2 7.1 0 2-2 2-5.2 0-7.2-1.9-1.9-5.1-2-7.1 0zm-21.7 22.2c-1.9 1.9-1.9 4.9 0 6.8 1.9 1.9 4.9 1.9 6.8 0 1.9-1.9 1.9-4.9 0-6.8-1.9-1.9-4.9-1.9-6.8 0zM843.2 702c-1.7 1.7-1.7 4.5 0 6.2 1.7 1.7 4.5 1.7 6.2 0 1.7-1.7 1.7-4.5 0-6.2-1.7-1.7-4.5-1.7-6.2 0zm-21.7 22.2c-1.5 1.5-1.5 4 0 5.6 1.6 1.6 4.1 1.5 5.6 0s1.6-4 0-5.6c-1.5-1.5-4-1.5-5.6 0zm-21.9 21.9c-1.6 1.5-1.5 4.1 0 5.6 1.6 1.6 4 1.5 5.6 0 1.6-1.6 1.6-4 0-5.6-1.5-1.5-4-1.6-5.6 0zM777.7 768c-1.6 1.6-1.5 4.1 0 5.6 1.6 1.6 4 1.5 5.6 0 1.6-1.5 1.6-4 .1-5.5-1.6-1.6-4.2-1.6-5.7-.1zM756 790.2c-1.4 1.4-1.4 3.7 0 5.2 1.4 1.4 3.8 1.4 5.2 0 1.4-1.4 1.4-3.7 0-5.2s-3.8-1.5-5.2 0zm-21.6 22.2c-1.3 1.3-1.3 3.3 0 4.6 1.3 1.3 3.3 1.3 4.6 0 1.2-1.2 1.3-3.3 0-4.6-1.3-1.3-3.4-1.3-4.6 0zm-21.6 22.2c-1.1 1.1-1 2.8 0 3.9 1.1 1.1 2.8 1.1 3.9 0s1.1-2.8 0-3.9c-1.1-1-2.8-1.1-3.9 0zM691 856.7c-1 1-1 2.7 0 3.7s2.7 1 3.7 0 1-2.7 0-3.6c-1.1-1.1-2.7-1.1-3.7-.1zm-21.7 22.1c-.9.9-.9 2.4 0 3.3s2.4.9 3.3 0c.9-.9.9-2.4 0-3.3-1-.9-2.4-.9-3.3 0zm-21.8 22c-.8.8-.8 2.2 0 3 .8.8 2.2.8 3 0 .8-.8.8-2.2 0-3-.8-.8-2.2-.8-3 0zM625.7 923c-.7.7-.7 1.9 0 2.6.7.7 1.8.7 2.6 0 .7-.7.7-1.9 0-2.6-.7-.7-1.8-.7-2.6 0zM604 945c-.6.6-.6 1.7 0 2.3.7.6 1.7.6 2.3 0 .6-.7.6-1.6 0-2.3-.6-.6-1.7-.6-2.3 0zm-21.9 22c-.6.6-.6 1.6 0 2.2.6.6 1.6.6 2.2 0 .6-.6.6-1.6 0-2.2-.6-.6-1.6-.6-2.2 0zm-21.8 22.1c-.5.5-.5 1.4 0 2 .5.6 1.4.5 1.9 0s.5-1.4 0-2c-.5-.6-1.3-.6-1.9 0zM1061 437.6c-2.5 2.5-2.5 6.4 0 8.9s6.4 2.5 8.9 0c2.4-2.4 2.5-6.4 0-8.9s-6.4-2.4-8.9 0zm-22 21.8c-2.5 2.5-2.6 6.6-.1 9.1s6.6 2.5 9.1 0 2.5-6.6 0-9.1c-2.4-2.5-6.5-2.5-9 0zm-22.1 21.7c-2.6 2.6-2.6 6.9 0 9.4 2.7 2.6 6.9 2.7 9.5.1 2.6-2.7 2.6-6.9 0-9.5-2.7-2.6-6.9-2.6-9.5 0zm-21.8 22c-2.6 2.6-2.6 6.8 0 9.3 2.6 2.6 6.8 2.6 9.4 0 2.6-2.6 2.6-6.8 0-9.4-2.7-2.5-6.9-2.5-9.4.1zm-22.2 21.7c-2.7 2.7-2.7 7.2 0 9.8 2.7 2.8 7.1 2.7 9.8.1 2.7-2.7 2.7-7.1 0-9.9-2.7-2.7-7.1-2.7-9.8 0zM951.2 547a6.64 6.64 0 0 0 0 9.4c2.6 2.6 6.8 2.6 9.4 0 2.6-2.6 2.6-6.8 0-9.4a6.64 6.64 0 0 0-9.4 0zm-20.9 22.9c-2.1 2.1-2.1 5.4-.1 7.4 2.1 2.1 5.4 2.1 7.5 0 2-2 2-5.3 0-7.4-2.1-2.1-5.4-2.1-7.4 0zm-21.5 22.4c-1.8 1.7-1.8 4.6 0 6.4 1.8 1.8 4.7 1.8 6.5 0 1.8-1.8 1.8-4.7 0-6.5-1.8-1.7-4.7-1.7-6.5.1zm-21.8 22c-1.7 1.7-1.7 4.5 0 6.2 1.7 1.8 4.5 1.8 6.2.1 1.7-1.8 1.7-4.5 0-6.2-1.7-1.8-4.5-1.8-6.2-.1zm-22 21.8c-1.8 1.8-1.7 4.7 0 6.4 1.8 1.8 4.6 1.8 6.5 0 1.8-1.8 1.7-4.7-.1-6.5-1.8-1.7-4.6-1.7-6.4.1zm-21.8 22c-1.7 1.7-1.7 4.5 0 6.2 1.7 1.7 4.5 1.7 6.2 0 1.7-1.7 1.7-4.5-.1-6.2-1.6-1.7-4.4-1.7-6.1 0zm-21.7 22.1c-1.6 1.6-1.6 4.2 0 5.8 1.6 1.6 4.2 1.6 5.8 0 1.6-1.6 1.6-4.2 0-5.9-1.6-1.5-4.3-1.5-5.8.1zm-21.9 22c-1.6 1.6-1.6 4.1 0 5.7 1.6 1.6 4.1 1.5 5.7 0 1.6-1.6 1.6-4.1 0-5.7-1.6-1.6-4.1-1.6-5.7 0zm-21.8 22.1c-1.4 1.5-1.5 3.9 0 5.4 1.4 1.4 3.9 1.5 5.3 0 1.5-1.4 1.5-3.9 0-5.4-1.4-1.5-3.8-1.4-5.3 0zm-22 21.8c-1.5 1.5-1.6 4 0 5.6 1.5 1.5 4.1 1.5 5.6 0 1.5-1.6 1.5-4 0-5.6-1.6-1.5-4-1.5-5.6 0zm-21.7 22.2c-1.4 1.4-1.4 3.7 0 5.1 1.4 1.4 3.7 1.4 5.1 0 1.4-1.4 1.4-3.7 0-5.2-1.4-1.3-3.7-1.3-5.1.1zm-21.6 22.2c-1.2 1.2-1.2 3.2 0 4.5 1.3 1.3 3.2 1.3 4.5 0 1.2-1.2 1.3-3.2 0-4.5-1.3-1.2-3.3-1.2-4.5 0zm-21.7 22.2c-1.1 1.1-1.1 2.9 0 4s2.9 1.1 4 .1c1.1-1.1 1.1-3 0-4-1-1.2-2.8-1.2-4-.1zm-21.7 22.1c-1 1-1 2.6 0 3.6s2.7 1 3.7 0 1-2.7-.1-3.7c-1-.9-2.6-.9-3.6.1zm-21.8 22c-.9.9-1 2.4 0 3.4s2.5.9 3.4 0c1-.9 1-2.4 0-3.4-1-.9-2.5-.9-3.4 0zm-21.8 22.1c-.8.9-.8 2.2 0 3.1.9.9 2.2.8 3.1 0 .8-.8.8-2.2 0-3-.9-.9-2.2-.9-3.1-.1zm-21.6 22.2c-.7.7-.7 1.9-.1 2.5.7.7 1.9.7 2.6 0 .7-.7.7-1.9 0-2.6-.7-.6-1.8-.6-2.5.1zm-21.8 22c-.6.6-.6 1.7 0 2.3.7.7 1.7.7 2.3.1.6-.6.6-1.7 0-2.4-.7-.6-1.7-.6-2.3 0zm-21.9 22c-.6.6-.6 1.6 0 2.3s1.7.7 2.3 0c.6-.7.6-1.7 0-2.3-.7-.7-1.7-.7-2.3 0zm-21.8 22.1c-.5.5-.5 1.4 0 1.9s1.4.5 2 0c.5-.5.5-1.4 0-1.9-.6-.6-1.5-.6-2 0zm-21.9 21.9c-.5.5-.5 1.3 0 1.8s1.3.5 1.9 0c.5-.5.5-1.3 0-1.8-.6-.5-1.4-.5-1.9 0zm500.8-551.4c-2.4 2.4-2.4 6.3 0 8.8 2.4 2.4 6.3 2.4 8.8 0 2.4-2.4 2.4-6.4 0-8.8-2.5-2.4-6.4-2.4-8.8 0zm-21.9 21.9c-2.4 2.4-2.4 6.2.1 8.6 2.4 2.4 6.2 2.4 8.6 0 2.4-2.4 2.4-6.2 0-8.6-2.4-2.3-6.3-2.4-8.7 0zm-22 21.9c-2.4 2.4-2.4 6.3 0 8.8 2.4 2.4 6.4 2.4 8.8 0 2.4-2.4 2.4-6.4 0-8.8-2.4-2.4-6.3-2.4-8.8 0zm-21.8 22.1c-2.4 2.4-2.4 6.1 0 8.5 2.4 2.4 6.2 2.4 8.5 0 2.4-2.4 2.4-6.2 0-8.5-2.3-2.4-6.1-2.4-8.5 0zm-20.9 22.8c-1.8 1.8-1.8 4.7 0 6.6 1.8 1.8 4.7 1.8 6.5 0 1.8-1.8 1.8-4.8 0-6.6-1.8-1.8-4.7-1.8-6.5 0zm-21.5 22.4c-1.6 1.6-1.6 4.1 0 5.7 1.6 1.6 4.1 1.6 5.7 0 1.5-1.5 1.5-4.1 0-5.7-1.6-1.6-4.1-1.6-5.7 0zm-21.8 22c-1.5 1.5-1.5 4 0 5.5s4 1.5 5.5 0 1.5-4 0-5.5c-1.6-1.5-4-1.5-5.5 0zm-21.8 22.1c-1.4 1.4-1.4 3.7 0 5.1 1.4 1.4 3.7 1.4 5.1 0 1.4-1.4 1.4-3.7 0-5.1-1.4-1.4-3.7-1.4-5.1 0zm-22.4 21.5c-1.7 1.7-1.7 4.4 0 6.1 1.7 1.7 4.4 1.7 6.1 0 1.7-1.7 1.6-4.4 0-6.1-1.6-1.7-4.4-1.7-6.1 0zm-21.7 22.1c-1.5 1.6-1.5 4 0 5.6 1.5 1.5 4 1.5 5.6 0 1.6-1.5 1.6-4 0-5.6-1.5-1.5-4-1.5-5.6 0zm-21.8 22c-1.5 1.5-1.5 4 0 5.5s4 1.5 5.5 0 1.5-4 0-5.5-4-1.5-5.5 0zm-22 21.9c-1.5 1.5-1.6 4 0 5.6 1.5 1.5 4 1.5 5.6-.1 1.6-1.5 1.6-4 .1-5.6-1.6-1.5-4.2-1.5-5.7.1zm-21.8 22c-1.5 1.4-1.4 3.9 0 5.4 1.5 1.4 3.9 1.4 5.3 0 1.5-1.5 1.5-3.9.1-5.3-1.5-1.6-3.9-1.6-5.4-.1zm-21.8 22c-1.4 1.4-1.4 3.7 0 5.1 1.4 1.4 3.6 1.4 5.1 0 1.4-1.4 1.4-3.7 0-5.1-1.4-1.4-3.7-1.4-5.1 0zm-21.6 22.2c-1.2 1.3-1.2 3.3 0 4.5 1.2 1.3 3.2 1.2 4.5 0 1.2-1.3 1.3-3.3 0-4.5-1.3-1.2-3.3-1.2-4.5 0zm-21.8 22a2.97 2.97 0 0 0 0 4.4c1.2 1.2 3.1 1.2 4.3 0 1.2-1.2 1.2-3.1 0-4.4-1.2-1.2-3.1-1.1-4.3 0zM669 790.8c-1.1 1.1-1.1 2.8 0 3.9s2.8 1.1 3.9.1c1.1-1.1 1.1-2.9 0-3.9-1.1-1.2-2.9-1.2-3.9-.1zM647.3 813c-1 1-1 2.5 0 3.4.9.9 2.5.9 3.4-.1.9-.9.9-2.4 0-3.3-1-1-2.5-1-3.4 0zm-21.7 22.1c-.9.9-.9 2.2 0 3 .8.8 2.2.8 3 0 .8-.8.8-2.2 0-3-.9-.9-2.2-.8-3 0zm-22 21.9c-.8.8-.9 2.2 0 3 .8.8 2.2.8 3 0 .8-.8.8-2.2 0-3-.8-.9-2.2-.8-3 0zm-21.7 22.1c-.8.8-.8 2 0 2.7.7.8 1.9.8 2.7 0 .7-.8.8-2 0-2.7-.8-.7-1.9-.7-2.7 0zm-21.8 22c-.7.7-.7 1.8 0 2.4.7.7 1.8.7 2.4 0 .7-.7.7-1.8 0-2.4s-1.7-.6-2.4 0zm-21.9 22c-.7.7-.7 1.8 0 2.4.7.7 1.8.7 2.4 0 .7-.7.7-1.8 0-2.4-.7-.7-1.8-.7-2.4 0zm-21.7 22.2c-.5.5-.5 1.3 0 1.8s1.4.5 1.8 0c.5-.5.5-1.3 0-1.8s-1.3-.5-1.8 0zm-22.3 21.4c-.8.8-.8 2 0 2.8.8.8 2 .8 2.8 0 .8-.8.7-2.1 0-2.8-.8-.7-2.1-.7-2.8 0zm-21.7 22.2c-.6.6-.6 1.7 0 2.3.6.6 1.6.6 2.3 0 .6-.6.7-1.6 0-2.3-.6-.7-1.7-.7-2.3 0zm523.3-572.7c-2.1 2.1-2.1 5.6 0 7.8 2.2 2.2 5.7 2.2 7.8 0 2.1-2.1 2.1-5.6 0-7.8-2.1-2.1-5.6-2.1-7.8 0zm-22 21.9c-2.2 2.2-2.2 5.7 0 7.9s5.7 2.2 7.9 0 2.2-5.7 0-7.9-5.7-2.2-7.9 0zM951.9 460c-2.2 2.2-2.2 5.7 0 7.9s5.7 2.2 7.9 0 2.2-5.7 0-7.9-5.7-2.2-7.9 0zm-21.2 22.7c-1.8 1.8-1.8 4.6 0 6.4 1.8 1.8 4.6 1.8 6.5 0 1.7-1.8 1.7-4.7 0-6.5-1.8-1.7-4.7-1.7-6.5.1zM909.3 505c-1.5 1.5-1.5 4 0 5.5s4 1.5 5.5 0 1.5-4 0-5.5c-1.6-1.5-4-1.4-5.5 0zm-21.8 22c-1.5 1.5-1.5 3.9 0 5.3 1.5 1.5 3.9 1.5 5.4 0 1.4-1.4 1.4-3.9 0-5.3-1.6-1.4-4-1.4-5.4 0zm-21.9 22.1c-1.4 1.4-1.4 3.7 0 5.1s3.7 1.4 5.1 0c1.4-1.4 1.4-3.7 0-5.1-1.4-1.4-3.6-1.4-5.1 0zm-21.8 22c-1.4 1.4-1.4 3.6 0 5s3.6 1.4 5 0 1.4-3.6 0-5c-1.4-1.5-3.6-1.4-5 0zm-22.3 21.5c-1.6 1.6-1.5 4.1 0 5.7 1.6 1.6 4.1 1.6 5.7 0 1.6-1.6 1.6-4.1 0-5.7-1.5-1.5-4.1-1.6-5.7 0zm-21.7 22.1c-1.5 1.5-1.5 3.9 0 5.3 1.5 1.5 3.9 1.5 5.3 0 1.5-1.5 1.5-3.9 0-5.4-1.5-1.4-3.9-1.3-5.3.1zm-21.9 22c-1.4 1.4-1.4 3.8 0 5.2 1.4 1.4 3.8 1.4 5.2 0 1.4-1.4 1.4-3.8 0-5.2-1.4-1.5-3.8-1.5-5.2 0zm-22 21.9c-1.4 1.5-1.5 3.9 0 5.3s3.9 1.5 5.4 0c1.4-1.4 1.4-3.9-.1-5.4-1.4-1.4-3.8-1.4-5.3.1zM734 680.5c-1.5 1.4-1.5 3.9 0 5.3 1.5 1.5 3.9 1.5 5.4 0 1.5-1.5 1.5-3.9 0-5.4-1.5-1.4-3.9-1.4-5.4.1zm-21.6 22.2c-1.4 1.4-1.4 3.5 0 4.8 1.4 1.4 3.5 1.4 4.9 0 1.3-1.3 1.3-3.5 0-4.8-1.5-1.4-3.6-1.4-4.9 0zm-21.7 22.2c-1.1 1.2-1.1 3.1 0 4.3 1.2 1.2 3.1 1.2 4.3 0 1.2-1.2 1.1-3.1 0-4.3-1.2-1.2-3.1-1.2-4.3 0zm-21.7 22c-1.1 1.1-1.1 2.8 0 3.9s2.8 1.1 3.9 0 1-2.8 0-3.9c-1.1-1-2.9-1-3.9 0zM647.2 769c-1 1-1 2.6 0 3.6s2.7 1 3.6 0c1-1 1-2.7 0-3.7-1-.9-2.6-.9-3.6.1zm-21.6 22.3c-.8.8-.8 2.1 0 2.9.8.8 2.1.8 2.9 0 .8-.8.8-2.1 0-2.9-.8-.8-2.1-.8-2.9 0zm-22 21.8c-.8.8-.8 2.2 0 3 .8.8 2.2.9 3.1 0 .8-.8.8-2.2 0-3-.9-.8-2.3-.8-3.1 0zm-21.8 22.1c-.8.8-.8 2.1 0 2.8.8.8 2.1.7 2.8 0 .7-.8.7-2-.1-2.8-.7-.7-1.9-.7-2.7 0zM560 857.3c-.7.7-.7 1.8 0 2.5s1.8.7 2.6 0c.7-.7.7-1.8-.1-2.6-.6-.7-1.7-.7-2.5.1zm-21.9 21.9c-.7.7-.7 1.9 0 2.5.7.7 1.8.7 2.5 0s.7-1.8 0-2.5c-.7-.8-1.8-.8-2.5 0zm-21.9 21.9c-.7.7-.7 1.9-.1 2.6.7.7 1.9.7 2.6 0 .7-.7.7-1.9 0-2.6-.6-.7-1.8-.7-2.5 0zm-21.9 22c-.7.7-.7 1.7 0 2.4s1.8.7 2.4 0c.7-.7.7-1.8 0-2.4-.6-.7-1.7-.7-2.4 0zm-22 21.8c-.7.8-.8 2 0 2.7.7.7 1.9.7 2.7 0 .7-.7.7-1.9 0-2.7-.8-.8-2-.8-2.7 0zm-22.1 21.7c-.8.8-.8 2.2 0 3 .8.8 2.2.8 3 0 .8-.8.8-2.2 0-3-.8-.8-2.2-.8-3 0zm-21.3 22.6c-.5.5-.5 1.3 0 1.8s1.3.5 1.8 0 .5-1.3 0-1.8c-.5-.6-1.3-.6-1.8 0zm567.7-616c-1.7 1.7-1.7 4.5 0 6.2 1.7 1.7 4.5 1.7 6.2 0 1.7-1.7 1.7-4.5-.1-6.2-1.6-1.7-4.4-1.8-6.1 0zM975 395.4c-1.5 1.5-1.5 4 0 5.6 1.6 1.5 4.1 1.5 5.6 0s1.6-4 0-5.6c-1.5-1.5-4-1.5-5.6 0zm-22 21.8c-1.6 1.6-1.6 4.2 0 5.8 1.6 1.6 4.2 1.6 5.9 0 1.6-1.6 1.6-4.2 0-5.8-1.7-1.6-4.3-1.6-5.9 0zm-21.9 22.1c-1.5 1.5-1.5 4 0 5.6 1.5 1.5 4 1.5 5.6 0 1.6-1.5 1.6-4 0-5.6-1.5-1.6-4-1.6-5.6 0zm-21.8 21.9c-1.5 1.5-1.5 4 0 5.5s4 1.5 5.5 0 1.5-4 0-5.5c-1.6-1.5-4-1.5-5.5 0zm-21.9 22c-1.4 1.5-1.4 3.8 0 5.3 1.5 1.5 3.9 1.5 5.3 0 1.5-1.4 1.5-3.9 0-5.3-1.4-1.5-3.8-1.5-5.3 0zm-21.7 22.1c-1.4 1.4-1.4 3.6 0 5s3.6 1.4 5 0c1.3-1.3 1.3-3.6 0-4.9-1.4-1.5-3.6-1.5-5-.1zm-21.8 22c-1.3 1.3-1.3 3.5 0 4.7 1.3 1.3 3.4 1.3 4.7 0 1.3-1.3 1.3-3.4.1-4.7-1.4-1.3-3.5-1.3-4.8 0zm-22 22c-1.3 1.3-1.3 3.5.1 4.7 1.3 1.3 3.4 1.3 4.7 0 1.3-1.3 1.3-3.4 0-4.7-1.3-1.3-3.4-1.4-4.8 0zm-21.8 21.9c-1.3 1.3-1.3 3.5 0 4.8 1.3 1.3 3.4 1.3 4.7 0 1.3-1.3 1.3-3.4 0-4.7-1.3-1.4-3.4-1.4-4.7-.1zm-22 21.8c-1.3 1.4-1.3 3.5 0 4.9 1.3 1.4 3.5 1.4 4.9.1 1.3-1.4 1.3-3.6 0-4.9-1.4-1.4-3.6-1.4-4.9-.1zm-21.8 22.1c-1.3 1.3-1.3 3.3 0 4.6 1.3 1.3 3.4 1.3 4.6 0 1.3-1.2 1.2-3.3 0-4.6-1.3-1.3-3.3-1.3-4.6 0zm-22 21.8c-1.3 1.3-1.2 3.4.1 4.8 1.3 1.3 3.4 1.3 4.7 0 1.3-1.3 1.3-3.4 0-4.8-1.3-1.2-3.5-1.3-4.8 0zm-22 21.9c-1.3 1.4-1.3 3.5 0 4.9 1.4 1.3 3.5 1.4 4.9 0 1.3-1.4 1.3-3.5 0-4.9-1.4-1.3-3.6-1.3-4.9 0zm-21.9 22c-1.3 1.3-1.3 3.5 0 4.7 1.3 1.3 3.4 1.3 4.8 0 1.3-1.3 1.3-3.4 0-4.7-1.3-1.3-3.4-1.3-4.8 0zm-21.9 21.9a3.32 3.32 0 0 0 0 4.7c1.3 1.3 3.4 1.3 4.7 0 1.3-1.3 1.3-3.4 0-4.7-1.2-1.3-3.4-1.3-4.7 0zm-21.6 22.2c-1.2 1.2-1.2 3.1 0 4.3 1.2 1.2 3.1 1.2 4.3 0 1.1-1.1 1.1-3.1-.1-4.3-1.2-1.2-3.1-1.2-4.2 0zM625.1 747c-1 1-1 2.7.1 3.8 1 1 2.7 1 3.7 0 1-1.1 1-2.8 0-3.8s-2.7-1-3.8 0zm-21.4 22.4c-.8.8-.8 2.1 0 2.9.8.8 2.1.8 2.9 0 .8-.8.8-2.1 0-2.9-.8-.8-2.1-.8-2.9 0zm-21.9 22c-.8.8-.8 2.1 0 2.8.8.8 2 .8 2.8 0 .8-.8.8-2 .1-2.8-.9-.8-2.1-.8-2.9 0zm-21.8 22c-.7.7-.7 1.9 0 2.6.7.7 1.8.7 2.5-.1.7-.7.7-1.8 0-2.5-.6-.7-1.7-.7-2.5 0zm-21.8 22c-.6.7-.6 1.7 0 2.4.6.6 1.6.6 2.3 0 .6-.7.6-1.7 0-2.3-.6-.7-1.7-.7-2.3-.1zm-22 21.9c-.7.7-.7 1.8 0 2.4.7.7 1.7.7 2.4 0s.7-1.8 0-2.4c-.6-.7-1.7-.7-2.4 0zm-21.9 21.9c-.7.7-.7 1.9 0 2.5.7.7 1.9.7 2.6 0 .7-.7.7-1.9 0-2.5-.8-.8-1.9-.8-2.6 0zm-22 21.8c-.7.7-.7 1.9 0 2.7.7.7 1.9.7 2.7 0 .7-.7.7-2 0-2.7-.8-.7-2-.7-2.7 0zm-21.7 22.2c-.6.6-.6 1.6 0 2.2.6.6 1.6.6 2.2 0 .6-.6.6-1.6 0-2.2-.6-.6-1.6-.6-2.2 0zm-21.9 22c-.5.6-.5 1.5.1 2.1.5.5 1.5.5 2 0 .6-.6.6-1.5 0-2.1-.5-.6-1.5-.6-2.1 0zm-21.8 22c-.5.5-.5 1.4 0 1.9s1.4.5 1.9 0c.6-.5.6-1.4.1-1.9-.6-.6-1.5-.6-2 0zm-21.8 22c-.4.4-.4 1.1 0 1.6.4.4 1.1.5 1.6 0s.4-1.2 0-1.6c-.4-.4-1.1-.4-1.6 0zM997.3 330c-1.4 1.4-1.4 3.5 0 4.9 1.4 1.3 3.5 1.4 4.9 0 1.3-1.3 1.3-3.5 0-4.9-1.4-1.4-3.6-1.3-4.9 0zm-22.6 21.3c-1.7 1.7-1.7 4.4 0 6.1 1.7 1.7 4.4 1.7 6.1 0 1.7-1.7 1.7-4.4 0-6.1-1.7-1.7-4.4-1.7-6.1 0zm-21.5 22.3c-1.5 1.5-1.5 3.9 0 5.3 1.5 1.5 3.9 1.5 5.3 0 1.5-1.5 1.5-3.9 0-5.3-1.4-1.5-3.8-1.4-5.3 0zm-21.9 21.9c-1.5 1.5-1.5 3.9 0 5.3 1.4 1.5 3.9 1.5 5.3 0 1.5-1.5 1.5-3.8 0-5.3-1.4-1.4-3.8-1.5-5.3 0zm-21.9 22c-1.4 1.4-1.4 3.8 0 5.2 1.5 1.4 3.8 1.4 5.2 0 1.4-1.5 1.4-3.8 0-5.2-1.4-1.4-3.7-1.4-5.2 0zm-21.9 21.9c-1.4 1.4-1.4 3.8 0 5.3 1.4 1.4 3.8 1.4 5.3 0 1.4-1.4 1.4-3.8 0-5.2-1.5-1.5-3.9-1.5-5.3-.1zm-22 21.8c-1.5 1.5-1.5 4 0 5.5s4 1.5 5.5 0 1.5-4 0-5.5c-1.6-1.5-4-1.5-5.5 0zm-22 21.9c-1.5 1.5-1.5 4 0 5.5s3.9 1.5 5.5 0c1.5-1.5 1.5-4 0-5.5s-3.9-1.5-5.5 0zm-21.6 22.3c-1.4 1.3-1.4 3.5 0 4.9 1.3 1.3 3.5 1.4 4.9 0 1.4-1.4 1.4-3.5 0-4.9-1.4-1.4-3.5-1.4-4.9 0zm-22 21.8c-1.4 1.4-1.4 3.7 0 5.1 1.4 1.4 3.7 1.4 5.1 0 1.4-1.4 1.4-3.7 0-5.1-1.4-1.4-3.7-1.4-5.1 0zm-21.7 22.1c-1.3 1.3-1.3 3.3 0 4.6 1.3 1.3 3.3 1.2 4.6 0 1.3-1.3 1.3-3.3 0-4.6-1.3-1.3-3.3-1.3-4.6 0zm-21.9 22c-1.3 1.2-1.2 3.3 0 4.5 1.2 1.2 3.2 1.2 4.5 0 1.3-1.3 1.3-3.3.1-4.5-1.3-1.2-3.3-1.3-4.6 0zm-21.9 21.8c-1.3 1.3-1.3 3.3 0 4.6 1.3 1.3 3.3 1.3 4.6 0 1.3-1.3 1.3-3.3 0-4.6s-3.4-1.2-4.6 0zm-21.9 22c-1.2 1.2-1.2 3.3 0 4.5 1.2 1.2 3.2 1.2 4.5 0 1.2-1.3 1.2-3.2 0-4.5-1.3-1.2-3.3-1.2-4.5 0zm-21.8 22.1c-1.1 1.2-1.1 3.1 0 4.3 1.2 1.1 3.1 1.1 4.3 0 1.2-1.2 1.2-3.1 0-4.3-1.2-1.2-3.1-1.2-4.3 0zm-22 21.8c-1.2 1.2-1.2 3.2 0 4.4 1.2 1.2 3.2 1.2 4.4 0 1.2-1.2 1.2-3.2 0-4.4-1.2-1.2-3.2-1.2-4.4 0zm-22.1 21.7c-1.4 1.3-1.4 3.5 0 4.8 1.3 1.4 3.5 1.4 4.8 0 1.4-1.3 1.3-3.5 0-4.8-1.3-1.3-3.5-1.3-4.8 0zm-22.1 21.8c-1.4 1.4-1.4 3.7 0 5.1 1.4 1.4 3.7 1.4 5.1 0 1.4-1.4 1.4-3.7 0-5.1-1.4-1.4-3.7-1.4-5.1 0zM603.2 725c-1.1 1.1-1 2.8 0 3.9 1.1 1 2.8 1.1 3.9 0s1.1-2.8 0-3.9c-1.1-1-2.8-1-3.9 0zm-21.6 22.3c-.9.9-.9 2.4 0 3.3.9.9 2.4.9 3.3 0 .9-.9.9-2.4 0-3.3-.9-1-2.4-1-3.3 0zM560 769.5c-.8.7-.8 1.9 0 2.7.7.7 1.9.7 2.7 0 .7-.7.7-1.9 0-2.7-.8-.8-2-.7-2.7 0zm-21.8 22c-.7.7-.7 1.8 0 2.4.7.7 1.8.7 2.4 0 .7-.7.7-1.8 0-2.4s-1.8-.6-2.4 0zm-22 22c-.7.7-.7 1.8 0 2.4.7.7 1.7.7 2.4 0s.7-1.8 0-2.4-1.7-.7-2.4 0zm-21.8 22c-.6.6-.6 1.6 0 2.2.6.6 1.6.6 2.2 0 .6-.6.7-1.6.1-2.2-.7-.6-1.7-.6-2.3 0zm-21.9 21.8c-.7.7-.6 1.7 0 2.4.7.6 1.7.6 2.3 0 .7-.6.7-1.7 0-2.3-.7-.7-1.7-.7-2.3-.1zm-22 22c-.6.6-.6 1.7 0 2.3.6.7 1.6.7 2.3 0 .6-.6.7-1.6 0-2.3-.6-.7-1.6-.7-2.3 0zm-21.9 21.8c-.7.7-.7 1.7 0 2.4s1.7.7 2.4 0 .7-1.7 0-2.4c-.7-.6-1.8-.6-2.4 0zm-21.7 22.2c-.5.5-.5 1.4 0 1.9.5.6 1.4.6 1.9 0 .6-.5.6-1.4 0-1.9-.5-.6-1.4-.6-1.9 0zm-21.9 22c-.5.5-.5 1.3 0 1.8s1.3.5 1.8 0 .5-1.3 0-1.8c-.4-.5-1.3-.5-1.8 0zm-21.7 22.1c-.4.4-.4 1.1 0 1.4.4.4 1 .4 1.4 0 .4-.4.4-1 0-1.4-.4-.4-1-.4-1.4 0zm-22 21.9c-.4.4-.4 1.1 0 1.4.4.4 1 .4 1.4 0 .4-.4.4-1 0-1.4-.3-.4-.9-.4-1.4 0zm656.2-702.9c-1.2 1.2-1.2 3.2 0 4.4 1.2 1.2 3.2 1.2 4.4 0 1.2-1.2 1.2-3.1 0-4.4-1.2-1.2-3.2-1.2-4.4 0zm-21.9 21.9c-1.2 1.2-1.1 3.2 0 4.4 1.2 1.2 3.2 1.2 4.4 0 1.2-1.2 1.2-3.2 0-4.4-1.2-1.2-3.2-1.2-4.4 0zm-22.3 21.6c-1.4 1.4-1.4 3.7 0 5.1 1.4 1.4 3.7 1.4 5.1 0 1.4-1.4 1.4-3.7-.1-5.1-1.3-1.4-3.6-1.4-5 0zm-21.8 22c-1.4 1.4-1.4 3.6 0 4.9 1.3 1.4 3.6 1.4 5 0s1.4-3.6 0-5c-1.4-1.3-3.7-1.3-5 .1zm-22.1 21.8c-1.4 1.4-1.4 3.7 0 5.1 1.4 1.4 3.7 1.4 5.1 0 1.4-1.4 1.4-3.7 0-5.1-1.3-1.4-3.6-1.4-5.1 0zm-21.7 22.1c-1.3 1.3-1.3 3.5 0 4.8 1.4 1.4 3.6 1.4 4.9 0 1.4-1.4 1.3-3.5 0-4.9-1.4-1.3-3.6-1.3-4.9.1zm-21.8 22c-1.3 1.2-1.3 3.3 0 4.6 1.3 1.3 3.3 1.3 4.6 0 1.2-1.2 1.3-3.3 0-4.6-1.2-1.3-3.4-1.3-4.6 0zm-22.3 21.6c-1.5 1.5-1.5 3.9 0 5.3 1.5 1.5 3.9 1.5 5.3 0 1.5-1.4 1.5-3.9 0-5.4-1.4-1.4-3.8-1.4-5.3.1zm-22.1 21.7c-1.6 1.6-1.6 4.1 0 5.7 1.6 1.6 4.1 1.5 5.7-.1 1.6-1.5 1.6-4.1 0-5.7-1.6-1.5-4.1-1.5-5.7.1zM799.6 483c-1.6 1.5-1.6 4.1 0 5.7 1.6 1.6 4.1 1.6 5.7 0 1.6-1.6 1.6-4.1 0-5.7-1.6-1.6-4.1-1.6-5.7 0zm-21.7 22.2c-1.4 1.4-1.4 3.8 0 5.2 1.4 1.4 3.8 1.4 5.2 0 1.5-1.5 1.5-3.8 0-5.3-1.4-1.4-3.8-1.4-5.2.1zm-21.7 22.1c-1.3 1.3-1.3 3.5 0 4.8 1.3 1.4 3.5 1.4 4.9.1 1.3-1.4 1.3-3.6-.1-4.9-1.3-1.3-3.5-1.4-4.8 0zm-21.7 22.1c-1.2 1.2-1.2 3.2 0 4.4 1.2 1.2 3.2 1.2 4.4 0 1.2-1.2 1.2-3.2 0-4.4-1.2-1.1-3.3-1.2-4.4 0zm-22 21.9c-1.2 1.2-1.2 3.3 0 4.5 1.3 1.3 3.2 1.3 4.5 0 1.2-1.2 1.3-3.3 0-4.5-1.2-1.2-3.3-1.2-4.5 0zm-22.1 21.8a3.32 3.32 0 0 0 0 4.7c1.3 1.3 3.4 1.3 4.8 0 1.3-1.3 1.3-3.4 0-4.7-1.3-1.3-3.4-1.3-4.8 0zm-21.6 22.2c-1.2 1.2-1.2 3.1 0 4.2 1.2 1.2 3.1 1.2 4.3.1 1.2-1.2 1.2-3.1 0-4.3-1.2-1.2-3.2-1.2-4.3 0zm-21.7 22.1c-1.1 1.1-1.1 2.8 0 3.8 1.1 1.1 2.8 1.1 3.9 0 1.1-1 1.1-2.7 0-3.9-1.2-1-2.9-1-3.9.1zm-22.5 21.4c-1.4 1.4-1.4 3.6 0 4.9 1.4 1.3 3.6 1.3 4.9 0 1.4-1.3 1.3-3.5 0-4.9-1.3-1.3-3.5-1.3-4.9 0zm-21.7 22.1c-1.2 1.2-1.1 3.2 0 4.4 1.2 1.2 3.2 1.2 4.4 0 1.1-1.2 1.2-3.2 0-4.4-1.2-1.1-3.2-1.1-4.4 0zm-21.6 22.2c-1.1 1.1-1.1 2.8 0 3.9s2.8 1.1 3.9 0 1.1-2.8 0-3.9-2.8-1-3.9 0zm-21.9 22c-1 1-1 2.8 0 3.8 1 1.1 2.7 1.1 3.8 0 1.1-1 1.1-2.8 0-3.8s-2.7-1-3.8 0zM538 747.6c-.8.8-.8 1.9 0 2.7.7.7 2 .7 2.7 0 .7-.7.7-2 0-2.7-.8-.8-1.9-.7-2.7 0zm-21.8 22c-.7.7-.7 1.7 0 2.4s1.7.7 2.4 0 .7-1.7 0-2.4c-.6-.7-1.7-.7-2.4 0zm-21.8 22.1c-.6.6-.6 1.6 0 2.2.6.6 1.6.6 2.2 0 .6-.6.7-1.6 0-2.2-.6-.6-1.6-.6-2.2 0zm-21.8 21.9c-.6.6-.5 1.5 0 2.1.5.6 1.5.6 2.1.1.6-.6.6-1.6 0-2.1-.6-.6-1.6-.6-2.1-.1zm-21.9 21.9c-.6.6-.6 1.5 0 2.1.6.6 1.5.6 2.1.1.6-.6.6-1.5 0-2.1-.6-.6-1.6-.6-2.1-.1zm-21.9 22.1c-.5.5-.5 1.4 0 1.9s1.4.5 2 0c.5-.5.5-1.4 0-1.9-.6-.6-1.5-.6-2 0zm-21.9 21.9c-.5.5-.5 1.3 0 1.8s1.3.5 1.8 0 .5-1.3 0-1.8c-.4-.4-1.3-.5-1.8 0zM385 901.4c-.5.5-.5 1.3 0 1.8s1.3.5 1.8 0 .5-1.3 0-1.8c-.5-.4-1.3-.4-1.8 0zm-22 21.9c-.5.5-.5 1.4 0 1.9s1.4.5 1.9 0c.6-.5.6-1.4 0-2-.4-.4-1.3-.5-1.9.1zm-21.6 22.2c-.4.4-.4 1 0 1.4.4.4 1.1.4 1.5 0 .4-.4.4-1.1 0-1.5-.5-.3-1.1-.3-1.5.1zm-21.9 22c-.4.4-.3 1 0 1.3.4.4 1 .4 1.3 0 .4-.4.4-1 0-1.3-.3-.4-.9-.4-1.3 0zm-22.2 21.6c-.5.5-.5 1.3 0 1.8s1.3.5 1.9 0c.5-.5.5-1.3 0-1.8s-1.4-.5-1.9 0zm700.3-746.5c-1.1 1.1-1.1 3 .1 4.3 1.1 1.1 3.1 1.1 4.2 0 1.1-1.2 1.1-3.1 0-4.3-1.3-1.2-3.2-1.2-4.3 0zm-22 21.9c-1.2 1.2-1.2 3.1 0 4.3 1.2 1.1 3.1 1.1 4.3-.1 1.1-1.2 1.1-3 0-4.2-1.2-1.2-3-1.2-4.3 0zm-21.9 21.9c-1.2 1.2-1.2 3.1 0 4.3 1.2 1.2 3.1 1.2 4.3 0 1.2-1.2 1.1-3.1 0-4.2-1.2-1.2-3.1-1.2-4.3-.1zm-21.9 21.9c-1.2 1.2-1.2 3.2 0 4.4 1.2 1.2 3.2 1.2 4.4 0 1.2-1.2 1.2-3.1 0-4.4-1.2-1.2-3.2-1.2-4.4 0zm-21.9 22c-1.2 1.2-1.2 3.1 0 4.4 1.2 1.2 3.1 1.2 4.3 0 1.2-1.2 1.2-3.2 0-4.4-1.2-1.3-3.1-1.3-4.3 0zm-22.5 21.3c-1.5 1.5-1.5 4 0 5.5s4 1.5 5.5 0 1.5-4 0-5.5c-1.6-1.5-4-1.5-5.5 0zm-22.1 21.8c-1.6 1.6-1.6 4.1 0 5.7 1.6 1.6 4.1 1.6 5.7 0 1.6-1.6 1.5-4.1 0-5.7-1.6-1.5-4.1-1.5-5.7 0zm-21.4 22.4a3.32 3.32 0 0 0 0 4.7c1.3 1.3 3.4 1.3 4.7 0 1.3-1.3 1.3-3.4.1-4.7-1.4-1.3-3.5-1.3-4.8 0zm-22.3 21.6c-1.4 1.4-1.4 3.9.1 5.4 1.5 1.4 3.9 1.4 5.3 0 1.5-1.5 1.5-3.9 0-5.3-1.4-1.5-3.9-1.5-5.4-.1zm-22.1 21.7c-1.6 1.6-1.6 4.2 0 5.9 1.6 1.6 4.2 1.6 5.8 0 1.6-1.6 1.6-4.2 0-5.8-1.6-1.7-4.2-1.7-5.8-.1zm-24.7 19.2c-3.1 3.1-3.2 8.2 0 11.4 3.1 3.1 8.3 3.1 11.4-.1 3.2-3.1 3.1-8.3 0-11.4-3.1-3.1-8.3-3.1-11.4.1zm-25.8 18c-5.3 5.2-5.3 13.8 0 19.1 5.3 5.3 13.8 5.3 19.1 0 5.3-5.3 5.3-13.8 0-19.1-5.2-5.2-13.8-5.2-19.1 0zm-14.9 28.9c-1.4 1.4-1.4 3.8 0 5.2 1.4 1.4 3.8 1.4 5.2 0 1.4-1.4 1.4-3.8 0-5.2-1.5-1.5-3.8-1.5-5.2 0zm-21.7 22.2c-1.2 1.3-1.3 3.3 0 4.6 1.3 1.2 3.3 1.3 4.6 0 1.3-1.3 1.3-3.4 0-4.6-1.2-1.3-3.3-1.3-4.6 0zm-21.6 22.2c-1.1 1.1-1.1 2.9.1 4 1.1 1.1 2.8 1.1 4 0 1.1-1.1 1.1-2.9 0-4-1.2-1.1-3-1.1-4.1 0zm-22.1 21.8c-1.1 1.2-1.2 3.1 0 4.3 1.1 1.2 3.1 1.1 4.2 0 1.2-1.2 1.2-3.1.1-4.3-1.1-1.2-3.1-1.2-4.3 0zm-27.1 16.7c-4.1 4.1-4.1 10.7 0 14.8 4.1 4.1 10.7 4.1 14.8 0 4.1-4.1 4.1-10.7 0-14.8-4.1-4.2-10.7-4.1-14.8 0zm-16.7 27.2c-1.2 1.1-1.2 3.1 0 4.3 1.2 1.1 3.1 1.1 4.3-.1 1.2-1.1 1.2-3 0-4.2-1.2-1.2-3.1-1.2-4.3 0zM603 637.2c-1.2 1.1-1.2 3.1 0 4.3 1.2 1.1 3.1 1.1 4.3 0 1.1-1.2 1.1-3 0-4.2-1.2-1.3-3.1-1.3-4.3-.1zm-27.7 16.1c-4.4 4.4-4.4 11.5 0 15.9 4.4 4.3 11.4 4.3 15.8 0 4.3-4.4 4.3-11.4 0-15.8-4.4-4.5-11.4-4.5-15.8-.1zm-15.9 28c-1 1-1 2.7 0 3.7 1.1 1.1 2.7 1 3.7 0 1.1-1 1.1-2.7.1-3.8-1.1-1-2.7-1-3.8.1zm-21.9 21.9c-1 1-1.1 2.7 0 3.8 1 1 2.7 1 3.7-.1 1-1 1.1-2.7 0-3.7-1-1.1-2.7-1-3.7 0zm-24.2 19.6c-2.4 2.3-2.3 6.1 0 8.4 2.3 2.3 6 2.3 8.4 0 2.3-2.3 2.4-6.1 0-8.4-2.3-2.3-6.1-2.3-8.4 0zm-19.1 24.8c-.8.8-.8 2 0 2.7.7.7 1.9.7 2.7 0 .7-.8.7-1.9 0-2.7-.8-.7-2-.7-2.7 0zm-21.6 22.2c-.6.5-.5 1.5 0 2.1.6.6 1.4.6 2 0 .6-.6.6-1.5 0-2.1-.5-.6-1.5-.6-2 0zm-22 21.9c-.6.6-.5 1.5 0 2.1.6.6 1.4.6 2.1 0 .5-.5.6-1.4 0-2.1-.5-.6-1.5-.5-2.1 0zm-21.8 22c-.6.6-.6 1.4 0 2 .5.5 1.4.5 1.9-.1.5-.5.5-1.4 0-1.9-.5-.6-1.4-.6-1.9 0zm-22 21.8c-.5.6-.5 1.5 0 2.1.6.6 1.5.5 2 0 .6-.6.6-1.5.1-2.1-.6-.5-1.5-.5-2.1 0zM385 857.6c-.5.5-.5 1.3 0 1.8s1.3.5 1.8 0 .5-1.3 0-1.8-1.3-.5-1.8 0zm-21.7 22.1c-.5.4-.5 1.1 0 1.6.4.5 1.2.5 1.6 0 .5-.4.4-1.1 0-1.5-.6-.6-1.2-.6-1.6-.1zm-22.2 21.7c-.5.5-.5 1.4 0 2 .5.5 1.4.5 1.9 0 .5-.6.5-1.4 0-2-.5-.6-1.3-.6-1.9 0zm-21.7 22.1c-.5.4-.5 1.1 0 1.6.4.4 1.1.4 1.6 0 .5-.5.5-1.2 0-1.6-.5-.5-1.1-.4-1.6 0zm-21.8 22.1c-.4.4-.4.9 0 1.3.3.4 1 .4 1.3 0 .4-.4.4-1 0-1.3-.3-.4-1-.4-1.3 0zm-21.9 21.9c-.4.4-.4 1 0 1.4.3.3 1 .4 1.3 0 .4-.4.3-1 0-1.3-.4-.5-1-.5-1.3-.1zm-22 21.8c-.4.4-.4 1.1 0 1.5.4.4 1.1.4 1.4-.1.4-.4.4-1 0-1.4-.4-.4-1-.4-1.4 0zm744.6-789.8c-.8.8-.8 2.1 0 2.9.8.8 2.1.8 2.9 0 .8-.8.8-2.1 0-2.9-.9-.8-2.1-.8-2.9 0zm-22.5 21.4c-1.1 1.1-1 2.8 0 3.9 1.1 1.1 2.8 1.1 3.9 0s1-2.8 0-3.9-2.8-1.1-3.9 0zm-21.9 21.9c-1.1 1.1-1.1 2.8 0 3.9s2.8 1.1 3.9 0 1-2.8 0-3.9-2.8-1.1-3.9 0zM932 264.7c-1.1 1.1-1.1 2.8 0 3.9s2.8 1.1 3.9 0 1.1-2.8 0-3.9c-1.1-1-2.8-1-3.9 0zm-22.1 21.7c-1.2 1.2-1.2 3.2 0 4.4 1.2 1.2 3.1 1.2 4.3 0 1.2-1.2 1.2-3.1 0-4.4-1.2-1.2-3.2-1.2-4.3 0zm-22.1 21.8c-1.3 1.3-1.3 3.4 0 4.6 1.3 1.3 3.3 1.3 4.6 0 1.3-1.3 1.3-3.3 0-4.6-1.2-1.3-3.4-1.3-4.6 0zm-22.3 21.5c-1.5 1.5-1.5 4 0 5.5s4 1.5 5.5 0 1.5-4 0-5.5c-1.6-1.5-4-1.5-5.5 0zm-21.9 22c-1.5 1.5-1.5 3.9 0 5.3s3.9 1.5 5.4 0c1.4-1.5 1.4-3.9-.1-5.4-1.4-1.4-3.8-1.4-5.3.1zm-21.4 22.4c-1.2 1.2-1.2 3.1 0 4.3 1.2 1.2 3.1 1.2 4.3 0 1.2-1.2 1.2-3 0-4.3-1.2-1.1-3.1-1.1-4.3 0zm-22.1 21.8c-1.3 1.3-1.2 3.3 0 4.6 1.3 1.3 3.3 1.3 4.6 0 1.3-1.3 1.3-3.3 0-4.6-1.2-1.3-3.3-1.3-4.6 0zm-22.4 21.3c-1.6 1.6-1.6 4.2 0 5.7 1.6 1.6 4.2 1.6 5.7 0 1.6-1.6 1.6-4.1 0-5.7-1.6-1.5-4.2-1.5-5.7 0zm-22 21.9c-1.6 1.6-1.6 4.2 0 5.8 1.6 1.6 4.2 1.6 5.8 0 1.6-1.6 1.6-4.3 0-5.9-1.6-1.5-4.2-1.5-5.8.1zm-23 20.9c-2.2 2.2-2.2 5.7 0 7.9s5.7 2.2 7.9 0 2.2-5.7 0-7.9-5.7-2.2-7.9 0zm-25.9 17.9c-4.4 4.4-4.4 11.5 0 15.9s11.5 4.4 15.9 0 4.4-11.5 0-15.9-11.5-4.4-15.9 0zm-16.2 27.7c-1.2 1.2-1.2 3.1 0 4.3 1.2 1.2 3.2 1.2 4.4 0 1.2-1.2 1.2-3.1 0-4.3-1.2-1.2-3.2-1.2-4.4 0zm-21.8 22c-1.1 1.1-1.1 3 0 4.1 1.1 1.2 3 1.2 4.1 0 1.1-1.1 1.1-3 0-4.1-1-1.1-2.9-1.1-4.1 0zm-21.8 22c-1.1 1.1-1.1 2.9 0 4s2.9 1.1 4 0 1.1-2.9 0-4-2.9-1.1-4 0zm-29.2 14.7c-5.2 5.1-5.2 13.5-.1 18.6 5.2 5.1 13.5 5.1 18.6 0s5.1-13.5 0-18.6c-5.1-5.2-13.4-5.2-18.5 0zm-14.6 29.2c-1.1 1.1-1.1 2.8 0 3.9s2.8 1.1 3.9 0 1-2.8-.1-3.9c-1-1-2.7-1-3.8 0zm-22 21.9c-1.1 1.1-1.1 2.9 0 4s2.9 1.1 4 0 1.1-2.9 0-4-2.8-1.1-4 0zm-23.1 20.7c-1.8 1.8-1.8 4.6 0 6.4 1.8 1.8 4.6 1.8 6.5 0 1.7-1.8 1.7-4.6-.1-6.5-1.8-1.7-4.6-1.7-6.4.1zm-20.7 23.2c-1 1-1 2.8.1 3.8 1 1.1 2.8 1.1 3.9 0s1.1-2.8 0-3.9c-1.2-1-2.9-1-4 .1zm-21.9 21.9c-1.1 1.1-1.1 2.8 0 3.9s2.8 1.1 3.9 0 1.1-2.8 0-3.9-2.8-1.1-3.9 0zm-22 21.9c-1.1 1.1-1.1 2.9 0 4s2.9 1.1 4 0 1.1-2.9 0-4c-1-1.1-2.9-1.1-4 0zm-21.3 22.4c-.8.8-.8 2.1 0 2.9.8.8 2.1.8 2.9 0 .8-.8.8-2.1 0-2.9-.8-.8-2.1-.8-2.9 0zm-21.8 22.2c-.7.7-.7 1.8 0 2.5s1.8.7 2.5 0 .7-1.9 0-2.6c-.6-.7-1.7-.7-2.5.1zm-21.6 22.2c-.5.5-.5 1.4 0 1.9s1.4.5 2 0c.5-.5.5-1.4 0-1.9-.6-.6-1.5-.6-2 0zM407 791.8c-.5.5-.5 1.3 0 1.8s1.3.5 1.8 0 .5-1.3 0-1.8-1.3-.5-1.8 0zm-22 22c-.5.5-.5 1.3 0 1.8s1.3.5 1.8-.1c.5-.5.5-1.3 0-1.8-.5-.4-1.3-.4-1.8.1zm-21.9 21.9c-.5.5-.5 1.3 0 1.8s1.3.5 1.8 0 .5-1.3 0-1.8-1.3-.5-1.8 0zm-21.9 22c-.5.5-.5 1.2 0 1.7s1.3.5 1.7 0c.5-.5.5-1.2 0-1.7-.4-.5-1.2-.5-1.7 0zm-21.8 22c-.5.4-.4 1.1 0 1.6s1.1.4 1.6 0c.4-.4.5-1.1 0-1.6s-1.2-.5-1.6 0zm-21.9 22c-.4.4-.4 1 0 1.4.4.4 1 .4 1.4 0 .4-.4.4-1.1 0-1.5-.3-.3-1-.3-1.4.1zm-21.9 21.9c-.4.4-.4 1 0 1.4.4.4 1.1.4 1.5 0 .4-.4.4-1.1 0-1.5-.4-.3-1.1-.3-1.5.1zm-21.9 21.9c-.4.4-.4 1.1 0 1.4.4.4 1.1.4 1.5 0 .4-.4.4-1.1 0-1.5-.5-.3-1.1-.3-1.5.1zm-21.9 21.9c-.4.4-.4 1.1 0 1.4.4.4 1.1.4 1.5 0 .4-.4.4-1 0-1.4-.5-.4-1.1-.4-1.5 0zm-21.9 22c-.4.4-.4.9 0 1.3s1 .4 1.3 0c.4-.4.4-.9 0-1.3-.3-.4-.9-.4-1.3 0zm788.4-833.7c-.8.8-.8 2 0 2.8.8.8 2 .8 2.8 0 .8-.8.8-2 0-2.8-.8-.8-2-.8-2.8 0zm-21.9 22c-.7.8-.7 2 0 2.7.8.8 2 .8 2.7 0 .7-.7.7-1.9 0-2.7-.7-.8-1.9-.8-2.7 0zm-22.3 21.4c-1 1-1 2.6 0 3.6 1 .9 2.6.9 3.6 0 1-1 1-2.6 0-3.6-1-.9-2.6-.9-3.6 0zm-22 21.9c-1 1-1 2.6 0 3.6s2.6 1 3.6 0 1-2.6 0-3.6-2.5-1-3.6 0zm-21.9 21.9c-1 1-1 2.6 0 3.6s2.6 1 3.6 0 1-2.7 0-3.6c-1-1-2.6-1-3.6 0zm-22 21.8c-1.1 1.1-1.1 2.8 0 3.9s2.8 1.1 3.9 0 1.1-2.8 0-3.9-2.9-1-3.9 0zm-21.9 22c-1 1-1 2.7.1 3.8 1 1 2.7 1.1 3.7 0s1-2.8 0-3.8c-1.1-1.1-2.8-1.1-3.8 0zm-23 20.8c-1.7 1.7-1.7 4.3 0 6 1.6 1.7 4.3 1.7 5.9 0 1.7-1.6 1.7-4.3 0-6-1.6-1.6-4.3-1.6-5.9 0zm-21.8 22.1c-1.6 1.6-1.6 4.1 0 5.7 1.6 1.6 4.1 1.6 5.7 0 1.6-1.6 1.6-4.1 0-5.7-1.6-1.6-4.1-1.6-5.7 0zm-20.9 22.9c-1 1-1 2.6.1 3.7 1 1 2.6 1 3.6 0s1-2.6 0-3.6c-1.1-1.1-2.7-1.1-3.7-.1zm-22.2 21.6c-1.2 1.2-1.2 3.1 0 4.3 1.1 1.2 3 1.2 4.3 0 1.1-1.2 1.1-3.1 0-4.3-1.3-1.2-3.1-1.1-4.3 0zm-22.2 21.7a3.32 3.32 0 0 0 0 4.7c1.3 1.3 3.4 1.3 4.8 0 1.3-1.3 1.3-3.4 0-4.7-1.3-1.3-3.4-1.3-4.8 0zm-22.1 21.8c-1.4 1.4-1.4 3.7 0 5.1 1.4 1.4 3.7 1.4 5.1 0 1.4-1.4 1.4-3.7 0-5.1-1.4-1.5-3.7-1.5-5.1 0zm-21.9 21.9c-1.4 1.4-1.4 3.7.1 5.1 1.4 1.4 3.7 1.4 5.1 0 1.4-1.4 1.4-3.7 0-5.1-1.5-1.4-3.8-1.4-5.2 0zM689 460.1c-2.1 2.1-2.1 5.6 0 7.7 2.1 2.1 5.6 2.1 7.7 0 2.1-2.1 2.1-5.5 0-7.7-2.2-2.1-5.6-2.1-7.7 0zm-20.4 23.5c-1.3 1.3-1.3 3.3 0 4.6 1.3 1.3 3.4 1.3 4.6 0 1.3-1.3 1.2-3.4 0-4.6-1.3-1.3-3.3-1.3-4.6 0zm-21.7 22.1c-1.2 1.2-1.2 3 0 4.2 1.2 1.2 3.1 1.2 4.3 0 1.1-1.1 1.1-3.1-.1-4.2-1.2-1.2-3.1-1.2-4.2 0zm-22.2 21.6a3.32 3.32 0 0 0 0 4.7c1.3 1.3 3.4 1.3 4.7 0 1.3-1.3 1.3-3.4 0-4.7a3.32 3.32 0 0 0-4.7 0zm-25 18.9c-3 3-3 7.9 0 11 3 3 7.9 3 10.9 0s3.1-7.9 0-11c-3-3-7.9-3-10.9 0zm-18.4 25.5c-1.1 1.1-1 2.7 0 3.8 1 1 2.7 1.1 3.8 0 1-1.1 1-2.7 0-3.7-1.1-1.2-2.7-1.2-3.8-.1zm-23.8 20c-2.1 2.1-2.1 5.5 0 7.5 2.1 2.1 5.4 2.1 7.5 0 2.1-2.1 2.1-5.5 0-7.5-2-2.1-5.4-2.1-7.5 0zm-27 16.7c-4.9 4.9-4.9 12.9 0 17.9 4.9 4.9 12.9 4.9 17.9 0 4.9-4.9 4.9-12.9 0-17.9-5-4.9-13-4.9-17.9 0zm-14.9 29.1c-1 1-1 2.6 0 3.7 1 1 2.6 1 3.7 0 1-1 1-2.6 0-3.7-1-1-2.7-1-3.7 0zm-21.9 21.9c-1 1-1 2.7 0 3.7s2.6 1 3.7 0c1-1 1-2.7 0-3.6-1.1-1.1-2.7-1.1-3.7-.1zM468 677.6c-3.1 3-3.1 8.1 0 11.2 3.1 3.1 8.1 3.1 11.2 0 3.1-3.1 3.1-8.1 0-11.2-3.1-3.1-8.1-3.1-11.2 0zm-17.8 26c-.8.8-.8 2.2 0 3 .8.9 2.2.8 3 0 .8-.8.8-2.2 0-3-.8-.9-2.2-.9-3 0zm-21.8 22c-.8.8-.8 2 0 2.7.8.7 1.9.7 2.7 0 .7-.8.7-2 0-2.7-.7-.7-1.9-.7-2.7 0zm-21.7 22.2c-.6.6-.6 1.6 0 2.3.6.6 1.7.6 2.3 0 .6-.7.6-1.7 0-2.3-.6-.6-1.7-.7-2.3 0zM385 769.9c-.6.5-.6 1.4 0 1.9.5.5 1.4.5 1.9 0s.6-1.4 0-1.9c-.5-.6-1.4-.6-1.9 0zm-21.9 21.9c-.5.5-.5 1.3 0 1.9.5.5 1.3.5 1.8 0s.5-1.4 0-1.9-1.3-.4-1.8 0zm-22 21.8c-.6.6-.6 1.5 0 2.1.6.5 1.5.5 2.1 0 .6-.6.6-1.5 0-2.1-.6-.5-1.6-.5-2.1 0zm-21.8 22.1c-.5.5-.5 1.2 0 1.7s1.2.5 1.7 0 .5-1.3 0-1.7c-.5-.4-1.2-.4-1.7 0zm-21.8 22.1c-.4.4-.4 1 0 1.4.4.4 1 .4 1.4 0 .4-.4.4-1.1 0-1.4-.3-.4-1-.4-1.4 0zm-21.8 22c-.4.4-.4 1 0 1.3.4.4 1 .4 1.3 0 .4-.4.3-1 0-1.4-.4-.3-1-.3-1.3.1zm-22 21.8c-.4.4-.4 1.1 0 1.4s1.1.4 1.4 0c.4-.4.4-1.1 0-1.4-.3-.3-1-.3-1.4 0zm-21.9 21.9c-.4.4-.4 1.1 0 1.5.4.4 1 .4 1.5 0 .4-.4.4-1.1 0-1.5-.5-.3-1.1-.4-1.5 0zm-22 22c-.4.4-.4 1.1 0 1.5.4.4 1.1.4 1.4 0 .4-.4.4-1.1 0-1.4-.3-.5-.9-.5-1.4-.1zm-21.8 22c-.4.4-.4 1 0 1.3.4.4 1 .4 1.3 0 .4-.4.4-1 0-1.4-.4-.3-1-.3-1.3.1zm-22 21.9c-.4.3-.4.9 0 1.3s1 .4 1.4.1c.4-.4.3-1 0-1.4-.4-.4-1-.4-1.4 0zm832.3-877.6c-.8.8-.8 2 0 2.8.8.8 2 .8 2.8 0 .8-.8.8-2.1 0-2.8-.8-.8-2-.7-2.8 0zm-21.8 22c-.8.8-.8 2-.1 2.7.8.7 2 .8 2.7 0 .7-.7.7-1.9 0-2.7-.7-.7-1.9-.7-2.6 0zm-22 21.9c-.7.8-.7 2 0 2.7.7.8 1.9.8 2.7 0 .8-.7.7-2 0-2.7-.7-.7-1.9-.7-2.7 0zm-21.8 22c-.7.7-.7 1.8 0 2.5s1.8.7 2.5 0 .7-1.9 0-2.6c-.7-.6-1.8-.6-2.5.1zm-22.2 21.6c-.9.9-.9 2.3-.1 3.1.9.9 2.3.9 3.2 0 .9-.8.9-2.2 0-3.1-.9-.8-2.3-.8-3.1 0zM888.3 221c-1 1-1 2.6 0 3.6s2.6 1 3.7 0c1-1 1-2.6 0-3.6-1.1-1-2.7-1-3.7 0zm-21.9 22c-1 1-1 2.5 0 3.5s2.6 1 3.6 0 .9-2.5-.1-3.5c-.9-1-2.5-1-3.5 0zm-21.9 21.9c-1 1-1 2.6 0 3.6s2.7 1 3.6 0c1-1 1-2.7 0-3.7s-2.7-1-3.6.1zm-23 20.9c-1.5 1.5-1.5 4 0 5.6 1.6 1.5 4.1 1.5 5.6 0 1.6-1.5 1.6-4 0-5.6-1.5-1.5-4-1.6-5.6 0zm-24 19.8c-2.7 2.7-2.7 7.1 0 9.8 2.7 2.7 7.2 2.7 9.8 0 2.7-2.7 2.7-7.1 0-9.9-2.6-2.6-7.1-2.6-9.8.1zm-20.3 23.6c-1.8 1.8-1.8 4.8 0 6.5 1.8 1.8 4.8 1.8 6.6 0 1.8-1.8 1.8-4.7 0-6.5-1.8-1.8-4.8-1.8-6.6 0zm-20.8 22.9c-1.2 1.2-1.2 3.2 0 4.4 1.2 1.2 3.1 1.2 4.3 0 1.2-1.2 1.3-3.2 0-4.4-1.1-1.2-3.1-1.2-4.3 0zm-21.8 22.1c-1.2 1.2-1.2 3 0 4.2 1.1 1.1 3 1.1 4.1 0 1.1-1.1 1.1-3 0-4.1-1.1-1.2-3-1.2-4.1-.1zm-21.9 22c-1.1 1.1-1.1 2.9 0 4s2.9 1.1 4 0 1.1-2.9 0-4-2.8-1.1-4 0zm-22.4 21.4c-1.4 1.4-1.4 3.7 0 5 1.4 1.4 3.7 1.4 5.1 0 1.4-1.4 1.4-3.7 0-5.1-1.4-1.4-3.7-1.4-5.1.1zM663.9 435c-3.9 3.9-3.9 10.2-.1 14.1 3.9 3.9 10.2 3.9 14.1 0 3.9-3.9 3.9-10.2 0-14.1-3.9-3.9-10.1-3.9-14 0zM643 458a8.39 8.39 0 0 0 0 11.9c3.3 3.3 8.6 3.3 11.9 0 3.3-3.3 3.3-8.6 0-11.9a8.39 8.39 0 0 0-11.9 0zm-21.1 22.7c-2.8 2.9-2.8 7.5 0 10.3 2.9 2.9 7.5 2.9 10.4 0 2.8-2.8 2.8-7.5-.1-10.3-2.8-2.8-7.4-2.8-10.3 0zm-25.3 18.6c-4.6 4.7-4.6 12.3 0 17 4.8 4.7 12.4 4.7 17.1 0 4.7-4.7 4.7-12.3 0-17-4.7-4.7-12.4-4.7-17.1 0zm-17.8 26c-2.4 2.4-2.4 6.5 0 8.9 2.5 2.5 6.4 2.4 8.9 0 2.4-2.4 2.5-6.4 0-8.9s-6.5-2.5-8.9 0zm-22.5 21.3c-2.8 2.8-2.7 7.2 0 10s7.2 2.8 10 0c2.7-2.8 2.7-7.2 0-10-2.8-2.7-7.2-2.7-10 0zM537.9 572c-.8.8-.8 2.2 0 3 .8.8 2.2.8 3 0 .8-.8.8-2.2 0-3-.8-.8-2.2-.8-3 0zm-22.2 21.8c-.9.9-.9 2.5 0 3.4 1 .9 2.5.9 3.4 0 .9-.9.9-2.5 0-3.4-.9-1-2.4-1-3.4 0zm-21.8 22c-.8.9-.9 2.3 0 3.2.9.9 2.3.9 3.2 0 .9-.9.9-2.3 0-3.2-.9-.9-2.2-.8-3.2 0zM472 637.7c-.9.9-.9 2.3 0 3.2.9.9 2.3.8 3.1-.1.9-.8.9-2.3 0-3.1-.8-.9-2.2-.9-3.1 0zm-21.8 22c-.9.9-.8 2.2 0 3.1.8.8 2.2.8 3 0 .8-.8.8-2.2 0-3.1-.8-.8-2.2-.8-3 0zm-21.8 22.1c-.8.7-.8 1.9 0 2.7.7.7 2 .7 2.7 0 .7-.7.7-1.9 0-2.7-.8-.7-1.9-.7-2.7 0zm-21.7 22.1c-.7.7-.6 1.7 0 2.3.7.6 1.7.7 2.3 0 .6-.6.6-1.7 0-2.3-.6-.6-1.6-.6-2.3 0zm-21.9 22c-.6.6-.6 1.6 0 2.2.6.6 1.6.6 2.2 0 .6-.6.6-1.6 0-2.2-.6-.6-1.6-.6-2.2 0zM363.1 748c-.5.5-.5 1.4 0 1.8.5.5 1.3.5 1.8 0s.5-1.3 0-1.8-1.3-.5-1.8 0zm-21.8 22.1c-.4.4-.4 1.1 0 1.6.5.4 1.2.4 1.6 0 .5-.5.4-1.1 0-1.6s-1.1-.5-1.6 0zM319.4 792c-.5.5-.5 1.1 0 1.6.5.4 1.2.5 1.6 0 .5-.4.4-1.1 0-1.6-.5-.5-1.2-.5-1.6 0zm-21.9 21.9c-.5.5-.5 1.2 0 1.6.5.4 1.2.4 1.6 0 .5-.5.4-1.1 0-1.6-.5-.4-1.2-.4-1.6 0zm-21.9 21.9c-.4.4-.4 1.1 0 1.4.4.5 1.1.5 1.5.1.4-.4.4-1.1 0-1.5-.4-.4-1.1-.4-1.5 0zm-21.9 22c-.4.4-.4 1.1 0 1.4.4.5 1.1.5 1.5 0 .4-.4.4-1.1 0-1.5-.4-.3-1.1-.3-1.5.1zm-21.9 21.9c-.4.4-.4 1.1 0 1.4.4.4 1.1.4 1.5 0 .4-.4.4-1 0-1.4-.5-.4-1.2-.4-1.5 0zm-22 21.9c-.5.5-.5 1.2 0 1.6.5.4 1.2.4 1.6 0 .5-.5.4-1.1 0-1.6-.5-.5-1.2-.5-1.6 0zm-21.9 21.9c-.4.4-.4 1.1 0 1.5.4.4 1.1.4 1.5 0 .4-.4.4-1.1 0-1.5-.4-.3-1.1-.4-1.5 0zm-21.9 22c-.4.4-.4 1 0 1.3.4.4 1 .4 1.3 0 .4-.4.4-1 0-1.4-.3-.2-.9-.2-1.3.1zm-21.9 22c-.4.4-.4 1 0 1.3.4.4 1 .4 1.3 0 .4-.4.4-1 0-1.3-.3-.4-.9-.4-1.3 0zm-22 21.8c-.4.5-.4 1.1 0 1.5.4.4 1.1.4 1.5 0 .4-.4.4-1 0-1.4-.4-.5-1-.5-1.5-.1zM998.5 68.2c-.7.7-.7 1.8-.1 2.4.7.7 1.8.7 2.4 0 .7-.7.7-1.7 0-2.4-.6-.7-1.6-.7-2.3 0zM976.6 90c-.7.7-.7 1.9-.1 2.5.7.7 1.9.7 2.6 0 .7-.7.7-1.8 0-2.6-.7-.6-1.9-.5-2.5.1zm-22 22c-.7.7-.7 1.8 0 2.5s1.9.7 2.6 0c.7-.7.7-1.8 0-2.6-.7-.7-1.9-.7-2.6.1zm-21.9 21.9c-.7.7-.7 1.8 0 2.5s1.8.7 2.6 0c.7-.7.7-1.8 0-2.6-.8-.6-1.9-.6-2.6.1zm-22 21.8c-.8.8-.8 1.9 0 2.7.7.7 2 .8 2.7 0 .8-.7.7-2 0-2.7-.8-.7-2-.7-2.7 0zm-22 21.9c-.8.8-.8 2-.1 2.8.8.8 2.1.8 2.8 0 .8-.8.8-2 0-2.8-.7-.8-1.9-.8-2.7 0zm-22 21.8c-.8.8-.8 2.1 0 2.9.8.8 2.1.8 3 0 .8-.8.8-2.1 0-3-.9-.7-2.1-.7-3 .1zm-21.9 22c-.8.8-.8 2.1 0 2.9.8.8 2.1.8 2.9 0 .8-.8.8-2.1 0-2.9-.8-.8-2.1-.8-2.9 0zM822.5 243c-1 1-1 2.5 0 3.5s2.6 1 3.5 0c1-1 1-2.6 0-3.6-.9-.9-2.5-.9-3.5.1zm-22.1 21.7c-1.1 1.1-1.1 2.9 0 4s2.9 1.1 4 0 1.1-2.9 0-4-2.9-1.1-4 0zm-22.9 20.9c-1.6 1.7-1.7 4.4 0 6.1 1.7 1.7 4.4 1.7 6.1 0 1.7-1.7 1.7-4.4 0-6.1-1.7-1.7-4.4-1.7-6.1 0zM755 306.9c-2 2-2 5.2 0 7.1 2 2 5.2 2 7.2 0s2-5.2 0-7.1c-2-1.9-5.2-1.9-7.2 0zm-21 22.9c-1.4 1.4-1.4 3.8 0 5.2 1.5 1.5 3.8 1.4 5.2 0 1.4-1.4 1.5-3.7 0-5.2-1.3-1.4-3.7-1.5-5.2 0zm-21.2 22.6c-1.1 1.1-1.1 2.8 0 3.9s2.8 1.1 3.9 0 1.1-2.8 0-3.9-2.8-1.1-3.9 0zm-22.1 21.8c-1.1 1.1-1.1 3 0 4.1 1.1 1.1 3 1.1 4.1 0 1.1-1.1 1.1-3 0-4.2-1-1.1-2.9-1-4.1.1zm-22.1 21.7c-1.3 1.3-1.3 3.4 0 4.6 1.3 1.3 3.3 1.3 4.6 0 1.3-1.3 1.3-3.3 0-4.6-1.3-1.3-3.4-1.3-4.6 0zm-22.2 21.6c-1.4 1.4-1.4 3.7 0 5.1 1.4 1.4 3.7 1.4 5.2 0 1.4-1.4 1.4-3.7 0-5.1-1.5-1.4-3.8-1.4-5.2 0zm-21.7 22.2c-1.2 1.3-1.2 3.4 0 4.6 1.3 1.3 3.4 1.3 4.6 0 1.3-1.3 1.3-3.3 0-4.6-1.2-1.3-3.3-1.3-4.6 0zm-21.9 21.9c-1.3 1.3-1.3 3.4 0 4.6 1.3 1.3 3.3 1.3 4.6 0 1.3-1.3 1.3-3.3 0-4.6-1.2-1.2-3.3-1.2-4.6 0zM581 483.7c-1.2 1.2-1.2 3.2 0 4.4 1.2 1.2 3.1 1.2 4.3 0 1.2-1.2 1.2-3.2 0-4.4-1.1-1.2-3.1-1.2-4.3 0zM559.5 506c-1 1-1 2.5 0 3.5s2.6 1 3.5 0c1-1 1-2.6 0-3.6-.9-.9-2.5-.9-3.5.1zm-21.6 22.2c-.8.8-.8 2.1-.1 2.9.8.8 2.2.8 3 0 .8-.8.8-2.1 0-2.9-.7-.8-2.1-.7-2.9 0zm-21.7 22.2c-.7.7-.7 1.8 0 2.4.7.7 1.7.6 2.4 0 .7-.7.7-1.7 0-2.4-.6-.7-1.7-.7-2.4 0zm-22 21.8c-.8.8-.8 2 0 2.7.7.7 1.9.7 2.7 0 .7-.8.7-2-.1-2.7-.7-.7-1.9-.7-2.6 0zm-21.9 21.9c-.8.7-.8 1.9 0 2.7.7.7 1.9.8 2.7 0 .7-.7.7-1.9 0-2.7-.8-.7-2-.7-2.7 0zm-22 21.8c-.8.8-.8 2.1 0 2.9.8.8 2.1.8 2.9 0 .8-.8.8-2.1 0-2.9-.9-.8-2.2-.8-2.9 0zm-21.9 22c-.8.8-.8 2-.1 2.8.8.8 2.1.8 2.8 0 .7-.8.8-2 0-2.8-.7-.8-1.9-.7-2.7 0zm-21.9 22c-.7.7-.7 1.9 0 2.7.7.7 1.9.7 2.7 0 .7-.7.7-2-.1-2.7-.7-.8-1.8-.8-2.6 0zM384.8 682c-.6.7-.6 1.7 0 2.3.6.6 1.6.7 2.3 0 .6-.7.6-1.7 0-2.3-.6-.7-1.7-.7-2.3 0zM363 704c-.6.6-.6 1.5 0 2.1.6.6 1.5.6 2.1 0 .5-.5.6-1.5 0-2.1-.6-.5-1.6-.5-2.1 0zm-21.8 22.1c-.5.5-.5 1.3 0 1.8s1.3.5 1.9.1c.5-.5.5-1.3 0-1.9-.6-.5-1.4-.5-1.9 0zM319.3 748c-.5.5-.5 1.4 0 1.8.5.5 1.4.5 1.9 0s.5-1.3 0-1.9c-.6-.4-1.4-.4-1.9.1zm-21.8 22c-.5.5-.5 1.1 0 1.6s1.2.5 1.6 0c.4-.4.4-1.1 0-1.6-.5-.4-1.2-.4-1.6 0zm-22 22c-.5.4-.5 1.1 0 1.6s1.2.5 1.6 0c.4-.4.4-1.1 0-1.6s-1.1-.5-1.6 0zm-21.9 21.9c-.5.4-.5 1.1 0 1.5.4.5 1.1.5 1.6 0 .5-.4.5-1.1 0-1.6-.4-.4-1.2-.3-1.6.1zm-21.8 22c-.4.4-.4 1 0 1.4.4.4 1.1.5 1.5.1.4-.4.4-1.1 0-1.5-.5-.5-1.1-.4-1.5 0zm-22 21.9c-.4.4-.4 1 0 1.4.4.5 1.1.5 1.5 0 .4-.4.4-1.1 0-1.5-.4-.3-1-.3-1.5.1zm-21.9 21.9c-.4.4-.4 1.1 0 1.4.4.4 1.1.4 1.5 0 .4-.4.4-1.1 0-1.4-.5-.4-1.1-.4-1.5 0zM166 901.6c-.4.4-.4 1.1 0 1.4.4.4 1.1.4 1.5 0 .4-.4.4-1.1 0-1.5-.5-.3-1.1-.2-1.5.1zm-21.9 22c-.4.4-.4 1 0 1.3.4.4 1 .4 1.3 0 .4-.4.4-1 0-1.4-.3-.3-.9-.3-1.3.1zm-21.9 21.9c-.4.4-.4 1 0 1.3.4.4 1 .4 1.3 0 .4-.4.4-1 0-1.4-.3-.2-.9-.2-1.3.1zm-21.9 21.9c-.4.4-.4 1 0 1.4.4.4 1.1.4 1.5 0 .4-.4.4-1.1 0-1.4-.5-.4-1.2-.4-1.5 0zm-22 21.9c-.4.4-.4 1.1 0 1.4.4.4 1.1.4 1.5 0 .4-.4.4-1 0-1.4-.4-.4-1.1-.4-1.5 0zM998.5 24.4c-.7.6-.7 1.8 0 2.4.7.7 1.7.7 2.4 0 .7-.6.7-1.8 0-2.4-.6-.7-1.7-.7-2.4 0zm-21.9 21.8c-.7.7-.7 1.8 0 2.4.7.7 1.8.7 2.4 0 .7-.7.7-1.7 0-2.4-.6-.6-1.7-.6-2.4 0zm-22 22c-.7.7-.7 1.7 0 2.4s1.8.7 2.4 0c.7-.7.7-1.7 0-2.4-.6-.7-1.7-.7-2.4 0zm-21.7 22c-.6.6-.6 1.6 0 2.2.6.6 1.6.6 2.2 0 .6-.6.6-1.6 0-2.2-.7-.6-1.6-.6-2.2 0zm-21.8 22.1c-.5.5-.5 1.4 0 1.9s1.4.5 1.9 0c.5-.6.5-1.4 0-2-.5-.5-1.4-.5-1.9.1zm-21.9 21.9c-.5.5-.5 1.3 0 1.8s1.3.5 1.8 0 .5-1.3 0-1.8c-.5-.4-1.3-.5-1.8 0zm-22 21.9c-.6.6-.6 1.4 0 2 .5.5 1.4.5 2 0 .5-.5.5-1.4-.1-2-.5-.5-1.4-.5-1.9 0zm-22.3 21.6c-.7.8-.7 1.9 0 2.7.7.8 1.9.8 2.7 0 .8-.8.7-1.9 0-2.7-.7-.8-1.9-.8-2.7 0zM823 199.6c-.7.7-.8 2 0 2.7.7.7 1.9.7 2.7 0 .7-.8.7-2 0-2.7-.7-.8-1.9-.8-2.7 0zm-22 21.8c-.7.8-.7 2.1 0 2.8.8.8 2.1.8 2.8 0 .8-.8.8-2.1 0-2.8-.7-.7-2-.7-2.8 0zm-22.1 21.8c-.8.8-.8 2.3 0 3.1.9.8 2.3.8 3.1 0 .9-.9.9-2.3 0-3.1-.8-.9-2.2-.9-3.1 0zm-22.7 21.1c-1.3 1.4-1.3 3.5 0 4.8 1.3 1.4 3.5 1.4 4.8 0 1.4-1.4 1.4-3.5 0-4.9-1.3-1.3-3.5-1.3-4.8.1zm-21 22.8c-.8.8-.8 2.2 0 3 .8.8 2.1.8 2.9 0 .8-.8.8-2.1 0-2.9-.8-.9-2.1-.9-2.9-.1zM713 308.8c-1 1-1 2.5 0 3.5s2.5 1 3.5 0 1-2.5 0-3.5-2.5-1-3.5 0zm-22 21.8c-1 1-1 2.7 0 3.6 1 1 2.6 1 3.6 0s1-2.6 0-3.6-2.6-1-3.6 0zm-21.7 22.2c-.9.8-.9 2.3 0 3.1.8.9 2.3.9 3.1 0 .9-.9.9-2.3 0-3.2-.8-.8-2.2-.8-3.1.1zM647 374.3c-1.1 1.1-1 2.8 0 3.9 1.1 1.1 2.8 1.1 3.9 0s1.1-2.9 0-3.9c-1-1-2.8-1.1-3.9 0zm-22.3 21.5a3.32 3.32 0 0 0 0 4.7c1.3 1.3 3.4 1.3 4.7 0 1.3-1.3 1.3-3.4 0-4.7a3.32 3.32 0 0 0-4.7 0zm-21.9 22c-1.3 1.3-1.3 3.3 0 4.6 1.3 1.3 3.4 1.3 4.6 0 1.3-1.3 1.3-3.3 0-4.6-1.2-1.3-3.3-1.3-4.6 0zm-22 21.8c-1.3 1.3-1.4 3.5 0 4.9 1.3 1.3 3.5 1.3 4.9 0 1.4-1.4 1.4-3.5 0-4.9-1.4-1.4-3.5-1.3-4.9 0zm-21.1 22.7c-.9.9-.9 2.4 0 3.2.9.9 2.4.9 3.3 0 .9-.9.9-2.4 0-3.3-.9-.8-2.4-.8-3.3.1zM538 484.6c-.7.7-.7 1.9 0 2.7.8.7 2 .8 2.7 0 .7-.7.7-1.9 0-2.7-.7-.8-1.9-.8-2.7 0zm-21.8 21.9c-.8.7-.8 1.9-.1 2.7.8.8 2 .8 2.7 0 .7-.7.7-1.9 0-2.7-.7-.8-1.9-.8-2.6 0zm-21.7 22.2c-.6.6-.6 1.5 0 2.1.6.6 1.5.6 2.1 0 .6-.5.6-1.5.1-2.1-.7-.6-1.6-.6-2.2 0zm-21.9 21.9c-.5.6-.5 1.4 0 2 .5.5 1.4.6 2 0 .5-.5.5-1.4-.1-1.9-.5-.6-1.3-.6-1.9-.1zm-22 21.9c-.6.6-.5 1.5 0 2.1.6.6 1.4.6 2.1 0 .5-.6.6-1.5 0-2.1-.5-.6-1.5-.6-2.1 0zm-22.1 21.7c-.7.7-.7 1.8 0 2.6.7.7 1.8.7 2.6 0 .7-.7.7-1.8 0-2.5-.8-.8-1.9-.8-2.6-.1zm-21.8 22c-.7.6-.7 1.7 0 2.3.7.6 1.7.6 2.3 0 .7-.7.7-1.7 0-2.3-.6-.6-1.7-.6-2.3 0zm-22 21.8c-.7.7-.7 1.9 0 2.6.7.7 1.9.7 2.5 0 .7-.7.7-1.8 0-2.6-.7-.6-1.8-.7-2.5 0zm-21.9 22c-.6.7-.6 1.7 0 2.3.7.7 1.6.7 2.3 0 .6-.6.7-1.7 0-2.3-.6-.6-1.6-.6-2.3 0zm-21.7 22.1c-.6.5-.6 1.5 0 2.1.6.6 1.5.6 2.1 0 .5-.5.6-1.5 0-2.1-.6-.6-1.6-.5-2.1 0zm-21.8 22.1c-.5.5-.5 1.3 0 1.8s1.3.5 1.8 0 .5-1.3 0-1.8-1.3-.6-1.8 0zm-22 21.9c-.5.5-.5 1.4 0 1.9s1.3.5 1.8 0 .5-1.3 0-1.9c-.4-.5-1.3-.5-1.8 0zm-21.8 22c-.5.5-.5 1.2 0 1.7s1.2.5 1.7 0 .5-1.2 0-1.7-1.2-.5-1.7 0zm-21.8 22c-.4.4-.4 1.1 0 1.5.4.4 1.1.4 1.4 0 .4-.4.4-1 0-1.4-.3-.5-1-.5-1.4-.1zM231.8 792c-.4.4-.4 1.1 0 1.4.4.4 1 .4 1.4 0 .4-.4.4-1.1 0-1.4-.4-.4-1.1-.4-1.4 0zm-22 21.9c-.4.4-.5 1.1 0 1.5.4.4 1.1.4 1.6 0 .5-.5.5-1.1 0-1.6-.5-.4-1.1-.3-1.6.1zm-21.9 21.9c-.4.4-.4 1.1 0 1.5.4.4 1 .4 1.4-.1.4-.4.4-1 0-1.4-.3-.3-1-.4-1.4 0zM166 857.7c-.4.4-.5 1.1 0 1.6.4.4 1.1.4 1.6 0 .4-.5.4-1.1 0-1.6-.5-.4-1.2-.4-1.6 0zm-21.9 22c-.4.4-.4 1.1 0 1.4.4.4 1.1.4 1.4 0 .4-.4.4-1 0-1.4-.3-.4-1-.4-1.4 0zm-22 21.9c-.4.4-.4 1.1 0 1.5.4.4 1.1.4 1.4 0 .4-.4.5-1 0-1.4-.3-.4-.9-.4-1.4-.1zm-21.9 21.9c-.4.4-.4 1.1 0 1.5.4.4 1.1.4 1.4-.1.4-.4.4-1 0-1.4-.3-.3-1-.4-1.4 0zm-21.8 22c-.4.4-.4 1 0 1.3.4.4.9.4 1.3 0s.3-1 0-1.4c-.4-.2-.9-.2-1.3.1zm-22 21.9c-.4.4-.4 1.1 0 1.5.4.4 1 .4 1.4 0 .4-.4.4-1 0-1.4-.3-.5-1-.5-1.4-.1zM998.7-19.3c-.6.6-.6 1.5 0 2.1.6.6 1.5.6 2.1 0 .6-.6.5-1.5 0-2.1-.7-.6-1.6-.6-2.1 0zm-22 21.9c-.5.5-.5 1.4 0 2 .6.6 1.5.6 2.1 0 .6-.5.5-1.5 0-2.1-.6-.5-1.5-.5-2.1.1zm-21.9 21.9c-.5.6-.6 1.5 0 2.1.6.6 1.5.6 2.1 0 .5-.6.5-1.5-.1-2.1-.5-.6-1.4-.6-2 0zm-21.9 21.9c-.6.6-.6 1.6 0 2.2.6.6 1.6.6 2.2 0 .6-.6.7-1.6 0-2.2-.6-.6-1.6-.6-2.2 0zm-21.8 22.1c-.5.5-.5 1.3 0 1.8s1.3.5 1.8 0 .5-1.3 0-1.8-1.3-.5-1.8 0zm-21.9 22c-.5.5-.4 1.2 0 1.7.5.5 1.2.5 1.7 0s.5-1.3 0-1.7c-.4-.5-1.2-.5-1.7 0zm-21.8 21.9c-.4.4-.4 1.1 0 1.6.4.4 1.1.4 1.6 0 .5-.5.5-1.1 0-1.6-.5-.4-1.2-.4-1.6 0zm-22 21.9c-.5.5-.5 1.2 0 1.7s1.2.5 1.7 0 .5-1.2 0-1.7c-.4-.5-1.2-.5-1.7 0zM823.3 156c-.6.6-.6 1.5 0 2.1.6.6 1.5.6 2.1 0 .6-.6.6-1.5 0-2.1-.6-.6-1.5-.5-2.1 0zm-22.1 21.7c-.7.7-.7 1.8 0 2.4.7.7 1.8.7 2.4 0 .7-.7.7-1.7 0-2.4-.6-.6-1.7-.6-2.4 0zm-22.1 21.8c-.8.8-.8 2.1 0 2.9.8.8 2.1.8 2.9 0 .8-.8.8-2.1 0-2.9-.9-.9-2.2-.8-2.9 0zm-21.9 21.9c-.8.8-.8 2 0 2.8.8.8 2 .8 2.8 0 .8-.8.8-2 0-2.8-.8-.7-2-.7-2.8 0zm-21.9 21.9c-.8.8-.8 2 0 2.8.8.8 2 .8 2.8 0 .8-.8.8-2 0-2.8-.8-.7-2.1-.7-2.8 0zm-21.9 22c-.8.8-.8 1.9 0 2.7.7.7 1.9.7 2.7 0 .7-.8.7-1.9 0-2.7-.8-.7-1.9-.7-2.7 0zm-22 21.9c-.8.8-.8 2.1 0 2.9.8.8 2.1.8 2.9 0 .8-.8.8-2.1 0-2.9-.8-.9-2.1-.9-2.9 0zm-22.3 21.5c-1 1-1 2.6 0 3.5 1 1 2.5 1 3.5 0s1-2.6 0-3.5c-.9-1-2.5-.9-3.5 0zm-21.9 21.9c-1 1-1 2.6 0 3.6s2.6 1 3.6 0 1-2.6 0-3.6-2.6-1-3.6 0zm-21.9 21.9c-1 1-1 2.6 0 3.6s2.6 1 3.6 0c1-1.1 1-2.7 0-3.7-1-.9-2.6-.9-3.6.1zm-22.1 21.8c-1.1 1.1-1.1 2.9-.1 4 1.1 1.1 2.9 1.1 4 0s1.1-2.9 0-4-2.8-1.1-3.9 0zm-22 21.9c-1.1 1.1-1.1 2.9 0 4s2.9 1.1 4 0 1.1-2.9 0-4-2.8-1.1-4 0zm-21.8 22c-1 1-1.1 2.7 0 3.8 1 1.1 2.7 1 3.7 0s1.1-2.7 0-3.7c-1-1.1-2.6-1.1-3.7-.1zm-21.5 22.4c-.8.8-.8 2.1 0 2.9.8.8 2.1.8 2.9 0 .8-.8.8-2.1 0-2.9-.8-.9-2.1-.8-2.9 0zm-21.7 22.1c-.7.7-.7 1.8 0 2.4.7.7 1.7.7 2.4 0s.7-1.7 0-2.4c-.6-.6-1.7-.6-2.4 0zm-21.8 22c-.7.7-.7 1.6-.1 2.3.6.6 1.7.6 2.3 0 .7-.7.6-1.7 0-2.3-.6-.6-1.6-.6-2.2 0zm-21.9 22c-.6.6-.6 1.6 0 2.2.6.6 1.6.6 2.2 0 .6-.6.7-1.6 0-2.2-.6-.6-1.6-.6-2.2 0zm-21.7 22.1c-.5.5-.5 1.3 0 1.8s1.3.5 1.8 0 .5-1.3 0-1.8-1.3-.5-1.8 0zm-22 21.8c-.5.5-.5 1.4 0 2 .5.5 1.4.5 2 0 .5-.5.5-1.4 0-2-.5-.4-1.5-.5-2 0zm-22 21.9c-.6.6-.6 1.6 0 2.2.6.6 1.6.6 2.2 0 .6-.6.6-1.6 0-2.2-.6-.6-1.6-.7-2.2 0zm-22 21.9c-.6.6-.6 1.6 0 2.2.6.6 1.6.6 2.2 0 .6-.6.6-1.6 0-2.2-.6-.6-1.6-.6-2.2 0zm-21.9 21.9c-.6.6-.6 1.6 0 2.2.6.6 1.6.6 2.2 0 .6-.6.6-1.5 0-2.2-.6-.6-1.6-.6-2.2 0zM341 638.2c-.6.6-.6 1.6 0 2.2.6.6 1.6.6 2.2 0 .6-.6.6-1.6 0-2.2-.6-.6-1.6-.6-2.2 0zm-21.8 22c-.6.6-.6 1.4 0 2.1.6.5 1.5.6 2.1 0 .6-.5.6-1.5 0-2.1-.7-.6-1.6-.6-2.1 0zm-21.8 22.1c-.5.5-.5 1.3 0 1.8s1.3.5 1.8 0 .5-1.3 0-1.8c-.5-.6-1.4-.6-1.8 0zm-22 21.9c-.5.5-.5 1.3 0 1.8s1.3.5 1.8 0 .5-1.3 0-1.8-1.3-.5-1.8 0zm-21.8 22c-.5.5-.4 1.1 0 1.6s1.1.5 1.6 0c.4-.4.4-1.1 0-1.5-.4-.5-1.1-.5-1.6-.1zm-21.9 22c-.4.4-.4 1.1 0 1.6.5.4 1.2.4 1.6 0 .4-.4.4-1.1 0-1.5-.4-.6-1.2-.6-1.6-.1zm-21.9 21.9c-.4.4-.4 1 0 1.4.4.4 1 .4 1.4 0 .4-.4.4-1.1 0-1.5-.3-.3-.9-.3-1.4.1zm-21.9 22c-.4.4-.4 1 0 1.4.4.4 1 .4 1.4 0 .4-.4.4-1.1 0-1.4-.3-.5-1-.5-1.4 0zM166 814c-.4.4-.4 1 0 1.4.4.4 1.1.4 1.5 0 .4-.4.4-1.1 0-1.5-.4-.3-1.1-.3-1.5.1zm-21.9 21.9c-.4.4-.4 1 0 1.4.4.4 1.1.4 1.5 0 .4-.4.4-1.1 0-1.5-.4-.3-1.1-.3-1.5.1zm-21.9 21.9c-.4.4-.4 1.1 0 1.4.4.4 1.1.4 1.5 0 .4-.4.4-1.1 0-1.4-.5-.4-1.1-.4-1.5 0zm-21.9 21.9c-.4.4-.4 1.1 0 1.4.4.4 1.1.4 1.5 0 .4-.4.4-1.1 0-1.4-.5-.4-1.2-.3-1.5 0zm-21.9 22c-.4.4-.3 1 0 1.3.4.4.9.4 1.3 0s.4-.9 0-1.3-.9-.4-1.3 0zm-22 21.9c-.4.5-.4 1.1 0 1.4.4.4 1 .5 1.5.1.4-.4.4-1.1 0-1.5-.4-.4-1.1-.4-1.5 0zm-21.9 21.9c-.4.4-.4 1.1 0 1.4.4.4 1.1.4 1.5 0 .4-.4.4-1.1 0-1.5-.5-.3-1.1-.3-1.5.1zM977.1-40.9c-.4.4-.4 1 0 1.4.4.4 1.1.4 1.5 0 .4-.4.4-1.1 0-1.4-.5-.4-1.1-.4-1.5 0zm-22 21.9c-.4.4-.4 1 0 1.4.4.4 1.1.4 1.4 0 .5-.4.5-1 .1-1.4-.4-.4-1-.4-1.5 0zM933.3 2.9c-.5.4-.4 1 0 1.4.4.4 1 .4 1.4 0 .4-.4.4-1.1 0-1.5-.4-.3-1.1-.3-1.4.1zm-22 21.9c-.4.4-.4 1.1 0 1.6.4.4 1.1.4 1.6 0 .4-.5.4-1.1 0-1.6-.5-.5-1.2-.5-1.6 0zm-22 21.8c-.5.5-.5 1.2 0 1.7.4.5 1.2.5 1.7-.1.4-.4.5-1.2 0-1.7-.5-.4-1.3-.3-1.7.1zm-21.9 22.1c-.4.4-.4 1.1 0 1.5.4.4 1.1.4 1.4 0 .4-.4.4-1 0-1.4-.3-.5-.9-.5-1.4-.1zm-21.9 21.8c-.4.5-.4 1.1 0 1.6.4.4 1.1.4 1.6 0 .4-.4.4-1.1 0-1.6-.5-.4-1.2-.4-1.6 0zm-22 21.8c-.5.5-.5 1.3 0 1.8s1.3.5 1.8 0 .5-1.3 0-1.8c-.6-.5-1.4-.5-1.8 0zm-22.1 21.8c-.6.6-.6 1.6 0 2.2.6.6 1.6.6 2.2 0 .6-.6.6-1.6 0-2.2-.7-.7-1.6-.6-2.2 0zm-22 21.8c-.7.7-.7 1.7 0 2.3.6.6 1.6.6 2.3 0 .6-.6.6-1.7 0-2.3-.7-.6-1.7-.6-2.3 0zm-22.1 21.8c-.7.7-.7 1.8 0 2.6.7.7 1.8.7 2.6 0 .7-.7.7-1.9 0-2.6-.8-.7-1.9-.7-2.6 0zm-21.9 22c-.7.7-.7 1.8 0 2.4.7.7 1.7.7 2.4 0s.7-1.8 0-2.4c-.6-.7-1.7-.7-2.4 0zm-21.7 22.1c-.6.6-.6 1.6 0 2.1.6.6 1.6.6 2.2 0 .6-.6.6-1.6 0-2.2-.7-.6-1.6-.5-2.2.1zm-22.1 21.7c-.7.7-.7 1.7.1 2.4.7.7 1.8.7 2.4 0 .7-.7.7-1.7 0-2.4-.8-.6-1.8-.6-2.5 0zm-22 21.8c-.7.7-.7 2 0 2.7.7.8 2 .8 2.7 0 .8-.8.8-1.9 0-2.7-.8-.7-2-.7-2.7 0zm-22.1 21.8c-.8.8-.8 2.2 0 3 .8.8 2.1.8 3 0 .8-.8.8-2.1 0-2.9-.9-.9-2.2-.9-3-.1zm-22 21.8c-.9.8-.9 2.3 0 3.2.8.8 2.3.8 3.1 0 .9-.9.9-2.3 0-3.2-.8-.8-2.2-.8-3.1 0zM603.7 331c-.8.8-.8 2.1 0 2.9.8.8 2.1.8 2.9 0 .8-.8.8-2.1 0-2.9-.8-.8-2.1-.8-2.9 0zm-21.8 22c-.7.8-.7 2 0 2.7.7.7 1.9.7 2.7 0 .8-.8.7-2 0-2.7-.8-.7-2-.7-2.7 0zm-22.4 21.5c-1 1-1 2.6 0 3.5 1 1 2.6 1 3.5 0 1-1 1-2.5 0-3.5-.9-1-2.5-1-3.5 0zm-21.9 21.9c-1 1-1 2.7 0 3.7s2.6 1 3.6 0 1-2.6 0-3.6c-1-1.1-2.6-1.1-3.6-.1zm-21.7 22.2c-.8.8-.9 2.2 0 3.1.8.8 2.2.8 3 0 .8-.8.8-2.2 0-3-.8-1-2.1-1-3-.1zm-21.5 22.3c-.6.6-.6 1.7 0 2.3.6.6 1.7.6 2.3 0 .6-.6.6-1.7 0-2.3-.7-.6-1.7-.6-2.3 0zM472.6 463c-.5.5-.5 1.4 0 1.9s1.4.5 1.9-.1c.5-.5.5-1.4 0-1.9s-1.3-.4-1.9.1zm-21.8 22c-.5.5-.5 1.3 0 1.8s1.3.5 1.8 0 .5-1.3 0-1.8c-.5-.6-1.3-.5-1.8 0zM429 507c-.5.4-.5 1.1 0 1.6.4.4 1.1.4 1.6 0 .4-.4.4-1.1 0-1.6-.4-.4-1.2-.4-1.6 0zm-22 21.9c-.5.5-.5 1.2 0 1.7.4.5 1.2.5 1.6 0 .5-.5.5-1.2.1-1.7s-1.2-.5-1.7 0zm-22.1 21.7c-.6.6-.6 1.5 0 2.1.6.5 1.5.5 2.1 0 .6-.5.6-1.5 0-2-.6-.7-1.5-.7-2.1-.1zm-21.8 22c-.5.5-.6 1.4 0 1.9.5.5 1.4.5 1.9 0 .6-.5.6-1.4 0-1.9s-1.4-.5-1.9 0zm-22 21.8c-.6.5-.6 1.5 0 2.1.6.6 1.5.5 2.1 0 .6-.6.6-1.5 0-2.1-.6-.6-1.6-.6-2.1 0zm-22 21.9c-.6.6-.6 1.6 0 2.2.6.6 1.6.6 2.2.1.6-.6.6-1.6 0-2.2-.6-.7-1.6-.7-2.2-.1zm-21.9 21.9c-.6.6-.6 1.6 0 2.2.6.6 1.6.6 2.2 0 .6-.6.6-1.6 0-2.2-.7-.6-1.6-.5-2.2 0zm-21.8 22.1c-.5.5-.5 1.3 0 1.8s1.3.5 1.8 0 .5-1.3 0-1.8-1.3-.5-1.8 0zm-21.9 22c-.5.5-.5 1.3 0 1.8s1.3.5 1.8 0 .5-1.3 0-1.8c-.5-.6-1.3-.5-1.8 0zm-21.8 22c-.5.5-.5 1.1 0 1.6.4.5 1.1.5 1.6 0 .5-.4.4-1.1 0-1.6-.5-.4-1.2-.4-1.6 0zm-21.9 22c-.4.4-.4 1.1 0 1.5.4.4 1.1.4 1.4 0 .4-.4.4-1.1 0-1.4-.3-.5-.9-.5-1.4-.1zm-21.9 21.9c-.4.4-.4 1 0 1.4.4.4 1 .4 1.4 0s.4-1.1 0-1.4c-.3-.4-1-.4-1.4 0zM166 770.1c-.4.4-.4 1 0 1.4.4.4 1.1.4 1.4 0 .4-.4.4-1 0-1.4-.3-.4-1-.4-1.4 0zM144 792c-.4.4-.5 1.1 0 1.6.4.4 1.1.4 1.6 0 .4-.4.4-1.1 0-1.6s-1.2-.5-1.6 0zm-21.8 22c-.4.4-.4 1.1 0 1.5.4.4 1.1.4 1.5 0 .4-.4.4-1.1 0-1.4-.5-.5-1.1-.5-1.5-.1zm-21.9 21.9c-.4.4-.4 1 0 1.4.4.4 1.1.4 1.5 0 .4-.4.4-1.1 0-1.4-.5-.4-1.1-.4-1.5 0zm-22 21.9c-.4.4-.4 1 0 1.4.4.4 1.1.4 1.5 0 .4-.4.4-1.1 0-1.4-.4-.4-1.1-.4-1.5 0zm-21.9 22c-.4.4-.4 1 0 1.3.4.4 1 .4 1.3 0 .4-.4.3-1 0-1.4-.3-.3-.9-.3-1.3.1zm-21.9 21.8c-.4.4-.4 1.1 0 1.4s1 .4 1.4 0c.4-.4.4-1.1 0-1.4-.4-.3-1-.3-1.4 0zm-21.9 22c-.4.4-.4 1 0 1.4.4.4 1.1.4 1.5 0 .4-.4.4-1.1 0-1.5-.5-.3-1.1-.3-1.5.1zM955.2-62.8c-.4.4-.4 1 0 1.4.4.4 1 .3 1.4 0 .4-.4.4-1 0-1.3-.4-.5-1-.5-1.4-.1zm-21.9 21.9c-.4.4-.4 1 0 1.3.4.4 1 .4 1.3 0 .4-.4.4-1 0-1.3-.4-.4-1-.4-1.3 0zM911.4-19c-.4.4-.4.9 0 1.3s1 .4 1.3 0c.4-.4.4-1 0-1.3-.4-.3-1-.3-1.3 0zm-22 21.9c-.4.4-.4 1.1 0 1.5.4.4 1.1.4 1.5 0 .4-.4.4-1.1 0-1.4-.5-.5-1.1-.5-1.5-.1zm-22 21.9c-.4.5-.4 1.1 0 1.5.4.4 1.1.4 1.5 0 .4-.4.4-1 0-1.4-.4-.5-1-.5-1.5-.1zm-22 21.8c-.5.5-.5 1.2 0 1.7s1.2.5 1.7 0 .5-1.3 0-1.7c-.4-.5-1.2-.5-1.7 0zm-21.9 21.9c-.5.5-.5 1.3 0 1.8s1.3.5 1.8 0 .5-1.3 0-1.8-1.4-.5-1.8 0zm-22 21.9c-.5.5-.5 1.3 0 1.8s1.3.5 1.8 0 .5-1.3 0-1.8c-.4-.5-1.3-.5-1.8 0zm-22 21.9c-.5.5-.5 1.4 0 2 .5.5 1.4.5 2 0 .5-.5.5-1.4 0-2-.6-.6-1.4-.6-2 0zm-22 21.8c-.6.6-.6 1.6 0 2.2.6.6 1.6.6 2.2 0 .6-.6.5-1.6 0-2.2-.6-.7-1.6-.7-2.2 0zM735.6 156c-.6.6-.6 1.6 0 2.2.6.6 1.6.6 2.2 0 .6-.6.6-1.7 0-2.2-.6-.6-1.6-.6-2.2 0zm-21.9 21.9c-.6.6-.6 1.6-.1 2.2.6.6 1.6.6 2.2 0 .6-.6.5-1.6 0-2.2-.6-.6-1.5-.6-2.1 0zm-21.9 22c-.6.6-.6 1.5 0 2.1.6.5 1.5.5 2.1 0 .6-.6.6-1.5 0-2.1-.6-.6-1.5-.6-2.1 0zm-21.9 22c-.5.5-.5 1.4 0 2s1.4.5 2 0c.5-.5.5-1.4 0-2-.6-.6-1.4-.6-2 0zm-22.2 21.5c-.7.8-.7 2 0 2.7.7.7 1.9.7 2.7 0 .7-.7.7-2 0-2.7-.8-.7-2-.7-2.7 0zm-21.6 22.2c-.5.6-.6 1.5 0 2.1.6.5 1.5.5 2.1 0 .5-.6.5-1.5 0-2.1-.7-.5-1.6-.5-2.1 0zm-22.4 21.6c-.8.8-.8 2 0 2.8.8.8 2.1.8 2.8 0 .8-.8.8-2.1 0-2.8-.7-.8-2-.8-2.8 0zm-21.8 22c-.7.7-.7 1.8 0 2.6.7.7 1.9.7 2.5 0 .7-.7.7-1.8 0-2.6-.6-.7-1.7-.7-2.5 0zm-21.7 22.1c-.6.6-.6 1.7 0 2.3.6.6 1.7.6 2.3 0 .7-.7.7-1.7 0-2.3-.7-.7-1.7-.7-2.3 0zm-22.1 21.8c-.7.7-.8 1.8 0 2.6.7.7 1.8.7 2.5 0s.7-1.8 0-2.5c-.7-.8-1.8-.8-2.5-.1zm-22.4 21.4c-.9 1-.9 2.5.1 3.4.9.9 2.4.9 3.4 0 .9-1 .9-2.5 0-3.4-1-.9-2.5-.9-3.5 0zm-21.9 22c-.9.9-.9 2.4 0 3.4.9.9 2.4.9 3.3 0 1-.9 1-2.5.1-3.4-.9-1-2.5-.9-3.4 0zm-21.5 22.3c-.7.7-.7 1.8 0 2.6.7.7 1.9.7 2.5 0 .7-.7.7-1.8 0-2.6-.6-.7-1.8-.7-2.5 0zm-21.5 22.3c-.5.5-.5 1.3 0 1.8s1.3.5 1.8 0 .5-1.3 0-1.8-1.3-.5-1.8 0zM428.9 463c-.5.5-.5 1.4 0 1.8.5.5 1.3.5 1.8 0s.5-1.3 0-1.8-1.3-.5-1.8 0zM407 485c-.5.5-.5 1.2 0 1.7s1.2.5 1.7 0c.4-.5.4-1.2 0-1.7-.5-.4-1.2-.4-1.7 0zm-21.9 22c-.4.4-.4 1.1 0 1.6.4.4 1.2.4 1.6 0 .4-.4.4-1.1 0-1.6-.4-.4-1.1-.4-1.6 0zm-22 21.7c-.6.5-.6 1.4 0 2 .5.5 1.4.6 2 0 .5-.5.5-1.4 0-2-.7-.5-1.5-.5-2 0zm-22 21.9c-.6.5-.6 1.5 0 2.1.6.5 1.5.5 2.1 0 .6-.6.6-1.5 0-2.1-.6-.6-1.6-.6-2.1 0zM319 572.4c-.6.6-.6 1.7 0 2.3.6.6 1.7.6 2.3 0 .6-.7.6-1.7 0-2.3-.6-.6-1.6-.6-2.3 0zm-21.8 22c-.6.6-.6 1.6 0 2.2.6.6 1.6.6 2.2 0 .6-.6.6-1.6 0-2.2-.6-.6-1.6-.6-2.2 0zm-21.9 22c-.6.6-.6 1.5 0 2.1.6.6 1.5.6 2.1 0 .6-.5.6-1.5 0-2.1-.6-.6-1.5-.6-2.1 0zm-21.9 21.9c-.5.6-.5 1.4 0 2 .5.5 1.4.5 2 0 .5-.5.5-1.4 0-2-.6-.5-1.4-.5-2 0zm-21.8 22.1c-.5.5-.5 1.2 0 1.7.4.5 1.2.5 1.7 0s.5-1.2 0-1.7c-.4-.5-1.2-.5-1.7 0zm-21.8 22c-.4.4-.4 1 0 1.5.4.4 1 .4 1.4 0 .4-.4.4-1 0-1.4-.3-.5-.9-.5-1.4-.1zm-21.9 21.9c-.4.4-.4 1.1 0 1.5s1.1.4 1.4 0c.4-.4.4-1 0-1.4-.3-.4-1-.5-1.4-.1zM166 726.2c-.4.4-.4 1.1 0 1.5.4.4 1.1.4 1.4 0 .4-.4.4-1.1 0-1.5-.3-.3-1-.3-1.4 0zm-21.9 22c-.4.4-.4 1 0 1.4.4.4 1.1.4 1.4 0 .4-.4.4-1.1 0-1.4-.3-.4-1-.4-1.4 0zm-22 21.9c-.4.4-.4 1 0 1.4.4.4 1.1.4 1.4 0 .4-.4.4-1 0-1.4-.3-.4-.9-.4-1.4 0zM100.2 792c-.4.4-.4 1.1 0 1.4.4.4 1.1.4 1.5 0 .4-.4.4-1 0-1.4-.4-.4-1.1-.4-1.5 0zm-21.9 21.9c-.4.4-.4 1.1 0 1.5.4.4 1.1.4 1.5 0 .4-.4.4-1.1 0-1.4-.4-.4-1.1-.5-1.5-.1zm-21.9 21.9c-.4.4-.4 1.1 0 1.5.4.4 1.1.4 1.4 0 .4-.4.4-1.1 0-1.5-.3-.4-1-.3-1.4 0zm-21.9 22c-.4.4-.4 1 0 1.4.4.4 1.1.4 1.4 0 .4-.4.4-1.1 0-1.4-.4-.4-1-.4-1.4 0zm-21.9 21.9c-.4.4-.4 1.1 0 1.4.4.4 1 .4 1.4 0 .4-.4.4-1 0-1.4-.4-.4-1.1-.4-1.4 0zm-22 21.9c-.4.4-.4 1.1 0 1.5.4.4 1.1.4 1.5 0 .4-.4.4-1.1 0-1.4-.4-.4-1-.5-1.5-.1zM933.3-84.7c-.4.4-.4 1 0 1.4.4.4 1 .4 1.3 0 .4-.4.4-1 0-1.4-.4-.4-1-.4-1.3 0zm-22 21.9c-.4.4-.4 1 0 1.3.4.4 1 .4 1.3 0 .4-.4.4-1 0-1.3-.3-.4-.9-.4-1.3 0zm-21.8 21.9c-.4.4-.4 1 0 1.4.4.4.9.4 1.3 0s.4-1 0-1.3c-.4-.5-1-.5-1.3-.1zM867.4-19c-.4.4-.4 1 0 1.4.4.4 1.1.4 1.4 0 .4-.4.4-1.1 0-1.4-.3-.4-.9-.4-1.4 0zM845.6 2.9c-.4.4-.4 1 0 1.4.4.4 1 .4 1.4 0 .3-.3.4-1 0-1.3-.4-.4-1-.4-1.4-.1zm-22 21.9c-.4.4-.5 1.1 0 1.5.4.4 1.1.4 1.5 0 .4-.4.4-1 0-1.4-.4-.5-1.1-.5-1.5-.1zm-22.1 21.7c-.5.5-.5 1.3 0 1.8s1.3.5 1.8 0 .5-1.3 0-1.8-1.3-.5-1.8 0zm-21.9 22c-.5.5-.5 1.3 0 1.8s1.3.5 1.8 0 .5-1.3 0-1.8-1.3-.5-1.8 0zm-21.9 21.9c-.5.5-.5 1.3 0 1.8s1.3.5 1.8 0 .5-1.3 0-1.8-1.3-.5-1.8 0zm-22 21.8c-.5.5-.5 1.4 0 2 .5.5 1.4.5 1.9 0s.5-1.4 0-1.9c-.5-.6-1.4-.6-1.9-.1zm-21.9 22c-.5.5-.5 1.4 0 1.9s1.4.6 1.9 0c.5-.5.5-1.4 0-1.9-.5-.6-1.4-.6-1.9 0zm-22 21.9c-.5.5-.5 1.4 0 2 .5.5 1.4.5 1.9 0 .6-.5.5-1.4 0-1.9-.5-.6-1.3-.6-1.9-.1zm-21.8 22c-.5.5-.5 1.3 0 1.8s1.3.5 1.8 0 .5-1.3 0-1.8-1.3-.6-1.8 0zm-21.9 22c-.5.5-.5 1.2 0 1.7s1.2.5 1.7 0 .5-1.2 0-1.7c-.4-.5-1.2-.5-1.7 0zm-22 21.8c-.5.5-.5 1.3 0 1.8s1.3.5 1.8 0 .5-1.3 0-1.8-1.2-.5-1.8 0zm-21.9 21.9c-.6.5-.6 1.4 0 2 .5.5 1.4.5 1.9 0s.5-1.4 0-2c-.5-.5-1.4-.5-1.9 0zm-22.1 21.8c-.6.6-.6 1.6 0 2.2.6.6 1.6.6 2.2 0 .6-.6.6-1.6 0-2.2-.6-.6-1.6-.6-2.2 0zm-21.9 21.9c-.6.6-.6 1.7 0 2.3.6.6 1.7.6 2.3 0 .7-.6.7-1.7 0-2.3-.7-.7-1.7-.7-2.3 0zm-21.9 21.9c-.6.6-.6 1.6 0 2.2.6.6 1.6.6 2.2 0 .6-.6.6-1.6 0-2.2-.6-.6-1.6-.6-2.2 0zm-21.9 22c-.5.6-.5 1.5.1 2.1.5.5 1.4.6 2 0 .6-.6.6-1.5 0-2.1-.6-.6-1.5-.6-2.1 0zM494 352.8c-.8.8-.8 2.2 0 3 .9.8 2.2.8 3 0 .8-.8.8-2.2 0-3-.8-.8-2.1-.8-3 0zm-22.2 21.7c-1 1-.9 2.5 0 3.5 1 .9 2.5.9 3.5 0 1-1 1-2.6 0-3.5-.9-1-2.5-1-3.5 0zm-21.6 22.2c-.8.8-.8 2.2 0 3.1.8.8 2.2.8 3 0 .8-.8.8-2.2 0-3-.8-1-2.2-1-3-.1zM428.7 419c-.6.6-.6 1.6 0 2.2.6.6 1.5.6 2.2 0 .6-.6.6-1.6 0-2.2-.6-.6-1.6-.6-2.2 0zm-21.8 22.1c-.5.5-.5 1.3 0 1.8s1.3.5 1.8 0 .5-1.3 0-1.8-1.3-.5-1.8 0zM385 463c-.5.5-.5 1.3 0 1.8s1.3.5 1.8 0 .5-1.3 0-1.8-1.3-.5-1.8 0zm-21.8 22.1c-.4.4-.4 1.1 0 1.6.5.4 1.2.4 1.6 0 .5-.4.5-1.1 0-1.6-.4-.5-1.1-.5-1.6 0zm-22.1 21.7c-.6.6-.6 1.5 0 2.1.6.5 1.5.5 2.1 0 .6-.6.6-1.5 0-2.1-.6-.6-1.6-.6-2.1 0zm-22 21.8c-.6.6-.6 1.6 0 2.2.6.6 1.6.6 2.2 0 .6-.6.6-1.6 0-2.2-.6-.6-1.6-.6-2.2 0zm-21.9 21.9c-.6.6-.6 1.6 0 2.2.6.6 1.6.6 2.2 0 .6-.6.6-1.6 0-2.2-.7-.5-1.6-.6-2.2 0zm-22 22c-.6.6-.6 1.6 0 2.2.6.6 1.6.6 2.2 0 .6-.6.6-1.6 0-2.2-.6-.7-1.6-.7-2.2 0zm-21.9 21.9c-.6.6-.6 1.6 0 2.2.6.6 1.6.6 2.2 0 .6-.6.6-1.6 0-2.2-.6-.6-1.6-.6-2.2 0zm-21.8 22c-.6.5-.6 1.4 0 1.9.5.5 1.4.6 1.9 0 .5-.5.5-1.4 0-1.9s-1.4-.5-1.9 0zm-21.8 22.1c-.5.5-.5 1.2 0 1.7s1.2.5 1.7 0 .5-1.3 0-1.7c-.4-.5-1.2-.5-1.7 0zm-21.8 22c-.4.4-.4 1 0 1.4.4.4 1 .4 1.4 0 .4-.4.4-1.1 0-1.4-.4-.4-1-.4-1.4 0zm-22 21.8c-.5.5-.5 1.2 0 1.7s1.2.5 1.7 0 .5-1.2 0-1.7-1.2-.5-1.7 0zm-21.9 22c-.5.4-.5 1.1 0 1.6s1.1.5 1.6 0c.4-.4.4-1.1 0-1.6s-1.2-.4-1.6 0zm-21.8 22c-.4.4-.4 1 0 1.4.4.4 1.1.4 1.4 0 .4-.4.4-1.1 0-1.5-.4-.3-1-.3-1.4.1zm-22 21.9c-.4.4-.4 1 0 1.4.4.4 1.1.4 1.5 0 .4-.4.4-1.1 0-1.4-.4-.4-1.1-.4-1.5 0zm-21.9 21.9c-.4.4-.4 1 0 1.4.4.4 1.1.4 1.5 0 .4-.4.4-1.1 0-1.4-.5-.4-1.1-.4-1.5 0zM56.4 792c-.4.4-.4 1.1 0 1.4.4.4 1.1.4 1.4 0s.4-1.1 0-1.4c-.4-.4-1-.4-1.4 0zm-21.9 22c-.4.4-.4 1 0 1.4.4.4 1.1.4 1.4 0 .4-.4.4-1.1 0-1.5-.4-.4-1-.3-1.4.1zm-21.9 21.9c-.4.4-.4 1 0 1.4.4.4 1 .4 1.4 0 .4-.4.4-1.1 0-1.5-.4-.4-1-.3-1.4.1zm-21.9 21.9c-.4.4-.4 1 0 1.4.4.4 1 .5 1.4 0 .4-.4.4-1.1 0-1.4-.4-.4-1-.4-1.4 0zm-22.1 21.8c-.5.5-.5 1.2 0 1.7s1.2.4 1.7-.1.5-1.2 0-1.7c-.5-.4-1.2-.4-1.7.1zm942.7-986.3c-.4.4-.4 1.1 0 1.4.4.4 1 .4 1.4 0 .4-.4.4-1.1 0-1.4-.3-.4-1-.4-1.4 0zm-21.9 21.9c-.4.4-.4 1.1 0 1.4.4.4 1.1.4 1.4 0 .4-.4.4-1 .1-1.4-.5-.4-1.1-.4-1.5 0zm-21.9 22c-.4.4-.4.9 0 1.3s.9.4 1.3 0 .4-1 0-1.3c-.3-.4-.9-.4-1.3 0zm-21.9 21.9c-.4.4-.4.9 0 1.3s1 .4 1.3 0c.4-.4.4-1 0-1.3-.3-.4-.9-.4-1.3 0zm-22 21.9c-.4.4-.4 1.1 0 1.5.4.4 1 .4 1.4 0 .4-.4.4-1 0-1.4-.3-.5-1-.5-1.4-.1zM801.7 2.9c-.4.4-.4 1.1 0 1.5.4.4 1.1.4 1.4 0 .4-.4.5-1 .1-1.4-.5-.5-1.1-.5-1.5-.1zm-22.1 21.8c-.5.5-.5 1.2 0 1.7s1.3.5 1.7 0c.5-.4.5-1.2 0-1.7-.4-.5-1.2-.5-1.7 0zm-21.9 21.9c-.5.5-.4 1.2 0 1.7.5.5 1.2.5 1.7 0 .4-.5.4-1.2-.1-1.7-.3-.4-1.1-.5-1.6 0zm-22 21.9c-.5.5-.5 1.3 0 1.8s1.3.5 1.8 0 .5-1.3 0-1.8c-.4-.5-1.3-.6-1.8 0zm-21.9 21.9c-.5.5-.5 1.4 0 1.8.5.5 1.3.5 1.8 0s.5-1.3 0-1.8c-.4-.5-1.3-.5-1.8 0zm-21.9 21.9c-.5.5-.5 1.3 0 1.8s1.3.5 1.8 0 .5-1.3.1-1.8c-.6-.5-1.4-.5-1.9 0zM670 134.2c-.5.5-.5 1.4 0 1.9s1.3.5 1.8 0 .5-1.3 0-1.8-1.3-.6-1.8-.1zm-21.9 22c-.5.5-.5 1.2 0 1.7s1.3.5 1.7 0c.5-.5.5-1.2 0-1.7s-1.2-.5-1.7 0zm-21.8 22c-.5.5-.5 1.1 0 1.6.4.5 1.1.5 1.6 0 .4-.4.4-1.1 0-1.6-.5-.5-1.2-.5-1.6 0zm-21.9 21.9c-.4.4-.5 1.1 0 1.6.5.4 1.1.4 1.6 0 .5-.5.5-1.1 0-1.6-.5-.4-1.2-.4-1.6 0zm-22 21.9c-.5.5-.5 1.3 0 1.7.5.5 1.3.5 1.8 0 .4-.5.5-1.2 0-1.7-.6-.5-1.4-.5-1.8 0zm-22 21.9c-.5.5-.5 1.2 0 1.7s1.2.5 1.7 0 .5-1.2 0-1.7c-.4-.4-1.2-.5-1.7 0zm-22.1 21.7c-.6.5-.6 1.5 0 2.1.6.6 1.5.6 2.1 0 .5-.6.5-1.5 0-2.1-.6-.5-1.5-.5-2.1 0zm-21.8 22.1c-.5.5-.5 1.3 0 1.8s1.3.5 1.8 0 .5-1.3 0-1.8-1.3-.5-1.8 0zm-21.9 21.8c-.5.5-.6 1.4 0 1.9.5.5 1.4.5 1.9 0 .5-.6.5-1.4 0-2-.5-.4-1.4-.4-1.9.1zm-22 22c-.5.5-.5 1.4 0 2 .5.5 1.4.5 2 0 .5-.5.5-1.4-.1-2-.5-.6-1.3-.6-1.9 0zM450 352.7c-1 .9-.9 2.4 0 3.4.9.9 2.4.9 3.4 0 .9-.9.9-2.4 0-3.4s-2.5-1-3.4 0zm-21.9 21.9c-.9.9-.9 2.5 0 3.4.9.9 2.4.9 3.4 0 .9-1 1-2.5 0-3.4-1-1-2.5-1-3.4 0zM406.7 397c-.7.6-.6 1.7 0 2.3.7.7 1.7.7 2.3 0 .6-.7.6-1.7 0-2.3-.6-.6-1.6-.6-2.3 0zM385 419.2c-.5.5-.5 1.3 0 1.8s1.3.5 1.8 0 .5-1.3 0-1.8-1.3-.5-1.8 0zm-21.9 21.9c-.5.5-.5 1.4 0 1.9s1.3.5 1.8 0 .5-1.3 0-1.8c-.5-.6-1.3-.6-1.8-.1zm-21.8 22.1c-.4.5-.5 1.1 0 1.6.4.4 1.1.4 1.6 0 .4-.5.5-1.1 0-1.6s-1.1-.5-1.6 0zm-22.1 21.6c-.6.6-.6 1.5 0 2.1.6.6 1.5.5 2.1 0 .6-.6.6-1.5 0-2.1-.7-.5-1.6-.5-2.1 0zm-22 22c-.6.6-.6 1.5 0 2.1.6.6 1.5.5 2.1 0 .6-.6.6-1.5 0-2.1-.6-.6-1.5-.6-2.1 0zm-22 21.8c-.6.6-.6 1.6 0 2.2.6.6 1.6.6 2.2 0 .6-.6.6-1.6 0-2.2-.6-.6-1.6-.6-2.2 0zm-21.9 21.9c-.6.6-.6 1.6 0 2.2.6.5 1.6.6 2.2 0 .6-.6.6-1.6 0-2.2-.6-.6-1.6-.5-2.2 0zm-21.9 22c-.6.6-.6 1.6 0 2.2.6.6 1.6.6 2.2 0 .6-.6.6-1.6 0-2.2-.6-.7-1.6-.6-2.2 0zm-21.8 22c-.6.5-.6 1.4 0 1.9.5.5 1.4.5 2 0 .5-.5.5-1.4 0-1.9-.6-.5-1.5-.5-2 0zm-21.8 22c-.5.5-.5 1.3 0 1.7.5.5 1.3.5 1.7 0 .5-.5.5-1.2 0-1.7-.5-.4-1.2-.4-1.7 0zM166 638.6c-.4.4-.4 1.1 0 1.5.4.4 1 .4 1.4 0 .4-.4.4-1 0-1.4-.3-.5-1-.5-1.4-.1zm-22 21.7c-.5.5-.5 1.3 0 1.8s1.2.5 1.7 0 .5-1.2 0-1.7-1.3-.5-1.7-.1zm-22 22c-.5.4-.5 1.2 0 1.7s1.2.5 1.7 0 .5-1.2 0-1.7c-.4-.5-1.2-.5-1.7 0zm-21.8 22c-.4.4-.4 1.1 0 1.4.4.4 1 .4 1.4 0 .4-.4.4-1.1 0-1.4-.3-.3-1-.4-1.4 0zm-21.9 21.9c-.4.4-.4 1.1 0 1.5.4.4 1.1.4 1.4 0 .4-.4.4-1 0-1.4-.3-.4-1-.4-1.4-.1zm-21.9 22c-.4.4-.4 1.1 0 1.5.4.4 1 .4 1.4 0 .4-.4.4-1 0-1.4-.3-.5-1-.5-1.4-.1zm-21.9 21.9c-.4.4-.4 1.1 0 1.5.4.4 1.1.4 1.4 0 .4-.4.4-1 0-1.4-.4-.5-1-.5-1.4-.1zm-22 21.9c-.4.4-.4 1.1 0 1.4.4.4 1 .4 1.4 0 .4-.4.5-1.1 0-1.4-.3-.4-1-.4-1.4 0zm-21.9 21.9c-.4.4-.4 1.1 0 1.5.4.4 1 .4 1.4 0 .4-.4.4-1 0-1.4-.3-.4-1-.5-1.4-.1zm-21.9 21.9c-.5.5-.5 1.1 0 1.6.4.4 1.1.4 1.6 0 .4-.5.5-1.1 0-1.6-.5-.4-1.2-.4-1.6 0zm-22 21.9c-.5.5-.5 1.2 0 1.7s1.3.5 1.7 0c.5-.5.5-1.2 0-1.7s-1.3-.5-1.7 0zm942.7-986.3c-.4.4-.4 1 0 1.4.4.4 1.1.4 1.5 0 .4-.4.4-1.1 0-1.5-.5-.3-1.1-.3-1.5.1zm-22 21.9c-.4.4-.4 1 0 1.4.4.4 1.1.4 1.4 0 .5-.4.4-1.1 0-1.5-.3-.3-.9-.3-1.4.1zm-21.8 21.9c-.4.4-.4 1 0 1.4.4.4 1.1.4 1.5 0 .4-.4.4-1.1 0-1.5-.5-.3-1.1-.3-1.5.1zm-22 21.9c-.4.4-.4 1.1 0 1.6s1.1.5 1.6 0 .5-1.1 0-1.6-1.2-.5-1.6 0zm-21.8 22c-.4.4-.4 1 0 1.4.4.4.9.4 1.3 0 .4-.3.4-.9 0-1.3-.4-.5-1-.4-1.3-.1zm-22 21.9c-.4.4-.4 1 0 1.4.4.4 1 .3 1.3 0 .4-.4.4-1 0-1.3-.3-.4-.9-.4-1.3-.1zM757.9 2.9c-.4.4-.4 1 0 1.4.4.4 1.1.4 1.4 0 .4-.4.4-1.1 0-1.5-.4-.3-1-.3-1.4.1zm-22.1 21.8c-.5.5-.5 1.2 0 1.7s1.2.5 1.7 0 .5-1.2 0-1.7-1.2-.5-1.7 0zm-22 21.8c-.5.5-.5 1.4 0 1.9.5.6 1.4.5 2 0 .5-.5.5-1.4 0-1.9-.6-.5-1.5-.6-2 0zm-21.8 22c-.5.5-.5 1.3-.1 1.8.5.5 1.3.5 1.9 0 .5-.5.5-1.3-.1-1.8-.5-.5-1.3-.5-1.7 0zm-22 22c-.5.5-.5 1.2 0 1.7s1.2.5 1.7 0 .5-1.3 0-1.7c-.4-.5-1.2-.5-1.7 0zm-21.9 21.8c-.5.5-.5 1.3 0 1.8s1.3.5 1.8 0 .5-1.3 0-1.8-1.3-.5-1.8 0zm-21.9 22c-.4.5-.5 1.2.1 1.7.5.5 1.2.5 1.7 0s.5-1.2 0-1.7c-.6-.5-1.3-.5-1.8 0zm-21.8 22c-.5.5-.4 1.1 0 1.5.5.5 1.1.5 1.6 0 .5-.4.5-1.1 0-1.5-.5-.5-1.2-.5-1.6 0zM582.2 178c-.5.5-.5 1.4 0 1.9s1.4.5 1.9 0c.6-.5.6-1.4 0-1.9-.4-.5-1.3-.5-1.9 0zm-21.7 22.1c-.4.5-.5 1.1 0 1.6s1.1.4 1.6 0c.4-.4.5-1.1 0-1.6-.4-.4-1.2-.4-1.6 0zM538.6 222c-.4.4-.5 1.1 0 1.6.4.4 1.1.4 1.5 0 .5-.5.5-1.1 0-1.6-.3-.4-1.1-.4-1.5 0zm-22.1 21.9c-.5.5-.5 1.3 0 1.8s1.3.5 1.8 0 .5-1.3 0-1.8c-.5-.6-1.2-.6-1.8 0zm-21.9 21.8c-.5.5-.5 1.4 0 2 .5.5 1.4.5 1.9 0s.6-1.4 0-1.9c-.5-.6-1.4-.6-1.9-.1zm-21.8 22c-.5.5-.5 1.2 0 1.7s1.2.5 1.7 0 .5-1.2 0-1.7-1.3-.5-1.7 0zm-21.9 21.9c-.5.5-.5 1.2 0 1.7s1.2.5 1.7 0 .5-1.2 0-1.7c-.5-.4-1.3-.4-1.7 0zM428.4 331c-.8.8-.7 2.1 0 2.8.8.8 2.1.8 2.8 0 .7-.8.8-2 0-2.8-.8-.7-2.1-.7-2.8 0zm-22.2 21.7c-.9.9-.9 2.4 0 3.3.9.9 2.4.9 3.3 0 .9-.9.9-2.4 0-3.3-.9-.9-2.4-.9-3.3 0zM384.7 375c-.7.7-.7 1.9 0 2.6.7.7 1.9.7 2.5 0 .7-.7.7-1.8 0-2.5-.7-.8-1.8-.8-2.5-.1zm-21.6 22.3c-.5.5-.5 1.3 0 1.8s1.3.5 1.8 0 .5-1.3 0-1.8-1.3-.5-1.8 0zm-21.9 21.9c-.5.5-.5 1.3 0 1.8s1.3.5 1.8 0 .5-1.3 0-1.8-1.3-.5-1.8 0zm-21.9 21.9c-.5.5-.5 1.3 0 1.8s1.3.5 1.8 0 .5-1.3 0-1.8-1.3-.5-1.8 0zm-22.1 21.8c-.6.6-.6 1.5 0 2.1.6.6 1.5.6 2.1 0 .6-.5.6-1.5 0-2.1-.6-.6-1.5-.6-2.1 0zm-21.9 22c-.6.5-.6 1.4 0 2.1.6.6 1.5.6 2.1 0 .6-.6.6-1.5 0-2.1-.6-.6-1.5-.6-2.1 0zm-22 21.8c-.6.6-.6 1.6 0 2.2.6.6 1.6.6 2.2 0 .6-.6.6-1.5 0-2.2-.6-.6-1.6-.6-2.2 0zm-21.9 21.9c-.6.6-.6 1.6 0 2.2.6.6 1.6.6 2.2 0 .6-.6.6-1.6 0-2.2-.6-.6-1.6-.6-2.2 0zm-21.9 21.9c-.6.6-.6 1.6 0 2.2.6.6 1.6.5 2.2 0 .6-.6.6-1.6 0-2.2-.6-.5-1.6-.6-2.2 0zm-21.8 22c-.5.6-.5 1.4 0 2 .6.5 1.4.5 2 0 .5-.5.5-1.4 0-1.9-.6-.5-1.5-.6-2-.1zm-21.9 22.1c-.5.5-.5 1.3 0 1.8s1.3.5 1.8 0 .5-1.3 0-1.8-1.3-.5-1.8 0zm-21.7 22.1c-.4.4-.5 1.1 0 1.4.4.4 1.1.4 1.5 0 .4-.4.4-1 0-1.4-.5-.5-1.1-.4-1.5 0zm-22 21.8c-.4.4-.5 1.1 0 1.6s1.1.5 1.6 0c.4-.4.4-1.1 0-1.5-.5-.5-1.1-.5-1.6-.1zm-22 21.8c-.5.5-.5 1.3 0 1.7.5.5 1.2.5 1.7 0s.5-1.3 0-1.8c-.5-.3-1.2-.3-1.7.1zm-21.8 22.2c-.4.4-.4 1 0 1.4.4.4 1.1.4 1.5 0 .4-.5.4-1.1 0-1.5-.4-.4-1.1-.3-1.5.1zm-21.9 21.9c-.4.4-.4 1 0 1.4.4.4 1.1.4 1.4 0s.4-1.1 0-1.5c-.3-.4-1-.3-1.4.1zm-21.9 21.9c-.4.4-.5 1.1 0 1.4.4.4 1.1.4 1.5 0 .4-.4.4-1.1 0-1.5-.5-.3-1.1-.3-1.5.1zm-21.9 21.9c-.4.4-.5 1 0 1.4.4.4 1.1.4 1.5 0 .4-.4.4-1.1 0-1.4-.5-.4-1.1-.4-1.5 0zm-21.9 21.9c-.4.4-.4 1 0 1.4.4.4 1.1.4 1.4 0 .4-.4.4-1.1 0-1.5-.4-.3-1-.3-1.4.1zm-22 21.9c-.5.5-.5 1.1 0 1.6.4.5 1.1.4 1.6 0 .5-.5.5-1.1 0-1.6s-1.2-.5-1.6 0zm-22 21.8c-.5.5-.5 1.2 0 1.7s1.2.5 1.7 0c.4-.5.4-1.2 0-1.7-.5-.5-1.3-.5-1.7 0zm-22 21.9c-.5.5-.5 1.2 0 1.7s1.3.5 1.7 0c.5-.5.5-1.3 0-1.7-.4-.4-1.2-.4-1.7 0z" fill="#fff"/></g></svg>