<!DOCTYPE svg PUBLIC "-//W3C//DTD SVG 20010904//EN" "http://www.w3.org/TR/2001/REC-SVG-20010904/DTD/svg10.dtd">
<svg version="1.0" xmlns="http://www.w3.org/2000/svg" width="141px" height="141px" viewBox="0 0 1410 1410" preserveAspectRatio="xMidYMid meet">
<g id="layer101" fill="#a72b17" stroke="none">
 <path d="M0 1250 l0 -160 65 0 65 0 0 -44 c0 -29 7 -52 21 -70 l20 -26 255 0 254 0 0 -50 0 -50 -65 0 c-36 0 -80 -6 -98 -14 -36 -14 -87 -69 -87 -92 0 -11 -24 -14 -125 -14 l-125 0 0 -55 0 -55 -90 0 -90 0 0 -165 0 -165 205 0 205 0 0 165 0 165 -90 0 -90 0 0 30 0 30 100 0 c80 0 100 -3 100 -14 0 -23 51 -78 87 -92 18 -8 62 -14 98 -14 l65 0 0 -94 0 -94 -34 -12 c-76 -25 -126 -94 -126 -174 0 -76 37 -138 102 -172 35 -18 131 -18 166 0 147 77 132 295 -24 346 l-34 12 0 94 0 94 65 0 c36 0 80 6 98 14 36 14 87 69 87 92 0 11 20 14 100 14 l100 0 0 -30 0 -30 -90 0 -90 0 0 -165 0 -165 205 0 205 0 0 165 0 165 -90 0 -90 0 0 55 0 55 -125 0 c-101 0 -125 3 -125 14 0 23 -51 78 -87 92 -18 8 -62 14 -98 14 l-65 0 0 50 0 50 254 0 255 0 20 26 c14 18 21 41 21 70 l0 44 65 0 65 0 0 160 0 160 -160 0 -160 0 0 -160 0 -160 65 0 65 0 0 -40 0 -40 -245 0 -245 0 0 40 0 40 70 0 70 0 0 160 0 160 -165 0 -165 0 0 -160 0 -160 70 0 70 0 0 -40 0 -40 -245 0 -245 0 0 40 0 40 65 0 65 0 0 160 0 160 -160 0 -160 0 0 -160z m270 0 l0 -110 -110 0 -110 0 0 110 0 110 110 0 110 0 0 -110z m540 0 l0 -110 -105 0 -105 0 0 110 0 110 105 0 105 0 0 -110z m550 0 l0 -110 -110 0 -110 0 0 110 0 110 110 0 110 0 0 -110z m-464 -484 c21 -18 28 -32 28 -61 0 -29 -7 -43 -28 -61 -26 -23 -33 -24 -191 -24 -158 0 -165 1 -191 24 -21 18 -28 32 -28 61 0 29 7 43 28 61 26 23 33 24 191 24 158 0 165 -1 191 -24z m-536 -311 l0 -105 -155 0 -155 0 0 105 0 105 155 0 155 0 0 -105z m1000 0 l0 -105 -155 0 -155 0 0 105 0 105 155 0 155 0 0 -105z m-579 -172 c84 -71 66 -184 -36 -223 -95 -36 -200 70 -162 163 36 85 133 114 198 60z"/>
 <path d="M520 705 l0 -25 140 0 140 0 0 25 0 25 -140 0 -140 0 0 -25z"/>
 <path d="M840 705 c0 -20 5 -25 25 -25 20 0 25 5 25 25 0 20 -5 25 -25 25 -20 0 -25 -5 -25 -25z"/>
 <path d="M90 500 l0 -30 70 0 70 0 0 30 0 30 -70 0 -70 0 0 -30z"/>
 <path d="M270 500 c0 -25 4 -30 25 -30 21 0 25 5 25 30 0 25 -4 30 -25 30 -21 0 -25 -5 -25 -30z"/>
 <path d="M90 410 l0 -30 115 0 115 0 0 30 0 30 -115 0 -115 0 0 -30z"/>
 <path d="M1090 500 c0 -25 4 -30 25 -30 21 0 25 5 25 30 0 25 -4 30 -25 30 -21 0 -25 -5 -25 -30z"/>
 <path d="M1180 500 l0 -30 70 0 70 0 0 30 0 30 -70 0 -70 0 0 -30z"/>
 <path d="M1090 410 l0 -30 115 0 115 0 0 30 0 30 -115 0 -115 0 0 -30z"/>
 </g>

</svg>