<!DOCTYPE svg PUBLIC "-//W3C//DTD SVG 20010904//EN" "http://www.w3.org/TR/2001/REC-SVG-20010904/DTD/svg10.dtd">
<svg version="1.0" xmlns="http://www.w3.org/2000/svg" width="150px" height="150px" viewBox="0 0 1500 1500" preserveAspectRatio="xMidYMid meet">
<g id="layer101" fill="#a72b17" stroke="none">
 <path d="M679 1474 c-13 -14 -30 -31 -38 -37 -70 -61 -73 -66 -67 -110 3 -23 5 -48 5 -54 -1 -15 0 -96 0 -120 1 -10 -2 -37 -5 -60 l-6 -43 -216 0 c-212 0 -216 0 -258 -25 -63 -37 -94 -95 -94 -176 0 -55 5 -72 30 -112 16 -26 34 -47 40 -47 6 0 7 -22 3 -60 -7 -75 14 -137 64 -180 43 -39 74 -51 130 -52 24 0 43 -4 43 -9 0 -5 16 -27 36 -48 48 -54 107 -76 183 -68 46 5 60 3 64 -7 3 -8 26 -26 51 -41 65 -38 147 -38 212 0 25 15 48 33 51 41 4 10 18 12 64 7 76 -8 135 14 183 68 20 21 36 43 36 48 0 5 19 9 43 9 124 3 207 102 194 232 -4 38 -3 60 3 60 6 0 24 21 40 47 41 64 43 155 5 219 -25 43 -95 94 -128 94 -14 0 -17 16 -19 113 l-3 112 -50 -1 c-59 -2 -117 -28 -162 -76 -34 -35 -63 -94 -63 -128 0 -18 -6 -20 -59 -20 l-59 0 -6 43 c-3 23 -6 50 -5 60 0 24 1 105 0 120 0 6 2 31 5 54 6 44 3 49 -67 110 -8 6 -25 23 -38 37 -19 21 -32 26 -71 26 -39 0 -52 -5 -71 -26z m84 -41 c-7 -2 -19 -2 -25 0 -7 3 -2 5 12 5 14 0 19 -2 13 -5z m97 -78 c7 -8 10 -22 6 -30 -4 -12 -26 -15 -116 -15 -90 0 -112 3 -116 15 -14 34 15 45 116 45 74 0 101 -4 110 -15z m6 -130 c14 -34 -15 -45 -116 -45 -101 0 -130 11 -116 45 8 22 224 22 232 0z m416 -222 c6 -7 22 -13 37 -13 33 0 77 -29 102 -66 39 -59 15 -161 -45 -194 -34 -18 -38 -33 -20 -77 42 -99 -30 -193 -148 -193 -57 0 -58 -1 -78 -39 -39 -77 -108 -106 -181 -78 -47 19 -61 15 -79 -19 -20 -37 -71 -64 -120 -64 -49 0 -100 27 -120 64 -18 34 -32 38 -79 19 -73 -28 -142 1 -181 78 -20 38 -21 39 -78 39 -118 0 -190 94 -148 193 18 44 14 59 -20 77 -60 33 -84 135 -45 194 42 64 51 66 319 66 l242 0 0 -62 0 -63 -110 -73 -110 -72 0 -65 c0 -86 25 -137 81 -166 33 -16 52 -19 88 -14 25 3 62 5 81 5 36 -2 98 -2 160 -1 19 0 62 -1 95 -2 104 -4 155 54 155 177 l0 66 -115 76 -115 77 0 59 0 58 114 0 c124 0 146 8 146 55 0 60 48 125 115 156 l40 18 3 -101 c1 -56 8 -108 14 -115z m-418 95 c17 -28 -8 -42 -84 -46 -119 -7 -173 14 -140 53 20 24 208 17 224 -7z m-74 -181 c0 -86 -3 -82 138 -176 87 -58 92 -63 92 -97 0 -72 -56 -125 -115 -110 -21 5 -24 10 -15 26 5 10 10 40 10 67 0 104 -70 150 -112 73 -18 -33 -20 -71 -7 -145 3 -17 -1 -20 -31 -20 -26 0 -34 4 -31 15 2 8 6 38 8 65 9 104 -66 163 -110 88 -21 -36 -25 -110 -8 -142 10 -18 8 -21 -14 -27 -59 -15 -115 38 -115 110 0 33 5 39 108 108 l107 73 3 83 3 82 44 0 45 0 0 -73z m-123 -304 c-3 -10 -5 -4 -5 12 0 17 2 24 5 18 2 -7 2 -21 0 -30z m170 0 c-3 -10 -5 -4 -5 12 0 17 2 24 5 18 2 -7 2 -21 0 -30z"/>
 <path d="M145 1350 c-19 -21 -18 -22 48 -88 l67 -67 22 23 22 22 -64 65 c-35 36 -67 65 -71 65 -3 0 -14 -9 -24 -20z"/>
 <path d="M250 1130 c0 -27 3 -30 30 -30 27 0 30 3 30 30 0 27 -3 30 -30 30 -27 0 -30 -3 -30 -30z"/>
 <path d="M350 1130 c0 -27 3 -30 30 -30 27 0 30 3 30 30 0 27 -3 30 -30 30 -27 0 -30 -3 -30 -30z"/>
 <path d="M440 1130 c0 -27 3 -30 30 -30 27 0 30 3 30 30 0 27 -3 30 -30 30 -27 0 -30 -3 -30 -30z"/>
 <path d="M190 235 c-54 -55 -63 -68 -54 -83 20 -31 38 -23 102 41 l63 63 -24 22 -23 22 -64 -65z"/>
 <path d="M1215 280 c-19 -21 -18 -22 48 -88 l67 -67 22 23 22 22 -64 65 c-35 36 -67 65 -71 65 -3 0 -14 -9 -24 -20z"/>
 <path d="M720 80 l0 -80 30 0 30 0 0 80 0 80 -30 0 -30 0 0 -80z"/>
 </g>

</svg>