<svg version="1.1" id="Слой_1" xmlns="http://www.w3.org/2000/svg" x="0" y="0" viewBox="0 0 78 78" xml:space="preserve"><circle cx="39" cy="39" r="39" fill="#ebeafc"/><path d="M37.3 48.8c-.5 0-1.1 0-1.7-.1-.6-.1-1.2-.2-1.7-.3s-1.1-.3-1.5-.4-.8-.3-1.1-.4l.9-3.7c.5.2 1.2.5 2 .7s1.8.4 3 .4c1.4 0 2.4-.3 3-.8.6-.5 1-1.2 1-2.1 0-.5-.1-1-.3-1.4-.2-.4-.5-.7-.9-.9-.4-.2-.9-.4-1.4-.5s-1.1-.1-1.8-.1h-1.7v-3.6h2c.4 0 .9 0 1.3-.1s.8-.2 1.1-.4.6-.5.8-.8c.2-.3.3-.7.3-1.2 0-.4-.1-.7-.2-1s-.4-.5-.6-.7-.5-.3-.9-.4c-.3-.1-.7-.1-1-.1-.9 0-1.7.1-2.4.4-.7.3-1.4.6-2 1L31.6 29c.3-.2.7-.4 1.1-.6.4-.2.9-.4 1.4-.6.5-.2 1.1-.3 1.7-.4.6-.1 1.2-.2 1.9-.2 1.2 0 2.3.1 3.2.4.9.3 1.6.7 2.2 1.2s1 1.1 1.3 1.9c.3.7.4 1.5.4 2.3 0 .8-.2 1.6-.7 2.4-.5.8-1.1 1.4-1.9 1.8 1.1.4 1.9 1.1 2.5 2 .6.9.9 1.9.9 3.1 0 1-.2 1.8-.5 2.7-.3.8-.8 1.5-1.5 2.1-.7.6-1.5 1.1-2.6 1.4-1 .2-2.2.3-3.7.3z" fill="#2502a5"/></svg>