<svg version="1.1" id="Слой_1" xmlns="http://www.w3.org/2000/svg" x="0" y="0" viewBox="0 0 78 78" xml:space="preserve"><style>.st1{fill:#111}</style><path d="M16.4 31.2c-7.8 7.8-7.8 20.4 0 28.3 7.8 7.8 20.5 7.8 28.3 0 7.9-7.8 7.9-20.5 0-28.3-7.8-7.7-20.4-7.7-28.3 0z" fill="#2a9dee"/><path class="st1" d="M66.1 8.4H21.9c-.5 0-.9.4-.9.9s.4.9.9.9h44.2c.9 0 1.6.7 1.6 1.6v30.6h-5.4c-.5 0-.9.4-.9.9s.4.9.9.9h5.4v9.2c0 .6-.3 1.1-.8 1.4-.5.3-.6.8-.3 1.3.2.3.5.5.8.5.2 0 .3 0 .5-.1 1.1-.6 1.7-1.8 1.7-3V11.9c0-1.9-1.5-3.5-3.5-3.5z"/><path class="st1" d="M58.9 49.8c0 1.9 1.6 3.5 3.5 3.5s3.5-1.6 3.5-3.5-1.6-3.5-3.5-3.5c-2 0-3.5 1.6-3.5 3.5zm3.5-1.6c.9 0 1.6.7 1.6 1.6 0 .9-.7 1.6-1.6 1.6-.9 0-1.6-.7-1.6-1.6 0-.9.7-1.6 1.6-1.6zm-31.9 7.9c0-.5-.4-.9-.9-.9H13.1c-.9 0-1.6-.7-1.6-1.6v-9.2h23.1c.5 0 .9-.4.9-.9s-.4-.9-.9-.9H11.5V11.9c0-.9.7-1.6 1.6-1.6h5.1c.5 0 .9-.4.9-.9s-.4-.9-.9-.9h-5.1c-1.9 0-3.5 1.6-3.5 3.5v41.7c0 1.9 1.6 3.5 3.5 3.5h16.4c.5-.1 1-.5 1-1.1z"/><path class="st1" d="M62.8 55.4l-8.4-2.5v-3c.7-.3 1.3-.7 1.9-1.2 1.5-1.3 2.6-3.2 2.9-5.2l1.1-6.8c1-.4 1.8-1.4 1.8-2.6 0-.7-.3-1.4-.8-1.9l-1.8-1.8-1.3-3.9c-.8-2.3-2.8-3.8-5.1-4.1-.3-.8-1.1-1.3-2-1.3H46c-.9 0-1.7.5-2 1.3-2.3.2-4.3 1.8-5.1 4.1l-1.3 3.9-1.8 1.8c-.5.5-.8 1.2-.8 1.9 0 1.2.7 2.2 1.8 2.6l1.1 6.8c.3 2 1.3 3.8 2.9 5.2.6.5 1.2.9 1.9 1.2v3l-8.4 2.5c-2.6.8-4.3 3.1-4.3 5.7v5.1c0 1.2 1 2.2 2.2 2.2h22.7c.5 0 .9-.4.9-.9s-.4-.9-.9-.9h-15v-2.8c0-.5-.4-.9-.9-.9s-1 .3-1 .8v2.8h-6c-.2 0-.3-.1-.3-.3v-5.1c0-1.8 1.2-3.4 2.9-3.9l8.9-2.7h9.8l8.9 2.7c1.7.5 2.9 2.1 2.9 3.9v5.1c0 .2-.1.3-.3.3h-6v-2.8c0-.5-.4-.9-.9-.9s-.9.4-.9.9v3.8c0 .5.4.9.9.9h6.9c1.2 0 2.2-1 2.2-2.2v-5.1c.1-2.6-1.6-4.9-4.2-5.7zM37.6 35c-.5 0-.8-.4-.8-.8 0-.2.1-.4.2-.6l2-2c.1-.1.2-.2.2-.4l1.4-4.1c.5-1.4 1.7-2.4 3.1-2.7v4c0 .5.4.9.9.9s.9-.4.9-.9v-5.1c0-.2.1-.3.3-.3H51c.2 0 .3.1.3.3v5.1c0 .5.4.9.9.9s.9-.4.9-.9v-4c1.4.3 2.6 1.3 3.1 2.7l1.4 4.1c0 .1.1.3.2.4l2 2c.2.2.2.4.2.6 0 .5-.4.8-.8.8H37.6zm13.2 15.8c.6 0 1.2-.1 1.8-.2v2.1h-8.2v-2.1c.6.1 1.2.2 1.8.2h1.1c.5 0 .9-.4.9-.9s-.4-.9-.9-.9h-1.1c-3.3 0-6.1-2.4-6.6-5.6l-1-6.4h19.8l-1 6.4c-.5 3.3-3.3 5.6-6.6 5.6-.5 0-.9.4-.9.9 0 .4.4.9.9.9zm-33.9-4.5c-1.9 0-3.5 1.6-3.5 3.5s1.6 3.5 3.5 3.5h8.8c1.9 0 3.5-1.6 3.5-3.5s-1.6-3.5-3.5-3.5h-8.8zm10.4 3.5c0 .9-.7 1.6-1.6 1.6h-8.8c-.9 0-1.6-.7-1.6-1.6 0-.9.7-1.6 1.6-1.6h8.8c.9 0 1.6.7 1.6 1.6z"/><path class="st1" d="M27.6 13.5h-8.8c-.9 0-1.6.7-1.6 1.6v3.8c0 .9.7 1.6 1.6 1.6h3.5v2.3l-4.2 2.1c-.5.3-.9.8-.9 1.4v.5c0 .6.3 1.1.9 1.4l4.2 2.1v2.3h-3.5c-.9 0-1.6.7-1.6 1.6V38c0 .9.7 1.6 1.6 1.6h8.8c.9 0 1.6-.7 1.6-1.6v-.9H32c.5 0 .9-.4.9-.9s-.4-.9-.9-.9h-2.8V34c0-.9-.7-1.6-1.6-1.6h-3.5v-2.3l4.2-2.1c.5-.3.9-.8.9-1.4v-.5c0-.6-.3-1.1-.9-1.4l-4.2-2.1v-2.3h3.5c.9 0 1.6-.7 1.6-1.6v-.9h30.9V27c0 .5.4.9.9.9s.9-.4.9-.9V17c0-.5-.4-.9-.9-.9H29.2v-.9c0-1-.7-1.7-1.6-1.7zm-.3 20.8v3.2h-8.2v-3.2h8.2zm0-7.9l-4.1 2.1-4.1-2.1v-.1l4.1-2.1 4.1 2.2zm0-7.9h-8.2v-3.2h8.2v3.2zm3.8 31.3c0 1.9 1.6 3.5 3.5 3.5s3.5-1.6 3.5-3.5-1.6-3.5-3.5-3.5-3.5 1.6-3.5 3.5zm5 0c0 .9-.7 1.6-1.6 1.6-.9 0-1.6-.7-1.6-1.6 0-.9.7-1.6 1.6-1.6.9 0 1.6.7 1.6 1.6z"/></svg>