<svg version="1.1" id="Слой_1" xmlns="http://www.w3.org/2000/svg" x="0" y="0" viewBox="0 0 78 78" xml:space="preserve"><style>.st1{fill:#111}</style><path d="M19.4 26.2c-7.8 7.8-7.8 20.4 0 28.3 7.8 7.8 20.5 7.8 28.3 0 7.9-7.8 7.9-20.5 0-28.3-7.8-7.7-20.4-7.7-28.3 0z" fill="#2a9dee"/><path class="st1" d="M38.1 49.2l-.3-.2 15-21.1c2.6 1.3 5.9.5 7.6-1.9l2.9-4.1c.9-1.3 1.3-2.9 1-4.5-.3-1.6-1.2-2.9-2.5-3.9-.4-.3-1-.2-1.3.2l-4.4 6.2c-.5.7-1.5.9-2.2.4-.3-.2-.6-.6-.7-1-.1-.4 0-.8.3-1.2l4.4-6.2c.1-.2.2-.5.2-.7 0-.2-.2-.5-.4-.6-2.7-1.9-6.5-1.2-8.4 1.5l-2.9 4.1c-.9 1.3-1.3 2.9-1 4.5.2 1.3.8 2.4 1.7 3.3l-5.3 7.4-5.5-7.8-1.1-7.6c-.1-.5-.3-1-.6-1.5L32 10.9c-1.1-1.6-3.3-1.9-4.8-.8L21 14.4c-.8.5-1.3 1.3-1.4 2.2-.2.9 0 1.8.6 2.6l2.6 3.6c.3.4.7.8 1.2 1.1l6.8 3.6 7 9.9-5.5 7.7-.3-.2c-1.6-1.1-3.7-.7-4.8.8l-1.4 1.9c-.3.4-.2 1 .2 1.3.4.3 1 .2 1.3-.2l1.4-1.9c.5-.7 1.5-.9 2.2-.4L36 50l1 .7c.3.2.6.6.7 1 .1.4 0 .8-.3 1.2l-8.7 12.3c-1.7 2.4-5.1 3-7.5 1.3-1.2-.8-2-2-2.2-3.4-.2-1.4.1-2.8.9-4l4.9-6.9c.3-.4.2-1-.2-1.3-.4-.3-1-.2-1.3.2L18.4 58c-1.1 1.6-1.5 3.5-1.2 5.4.3 1.9 1.4 3.6 3 4.7 1.3.9 2.7 1.3 4.2 1.3 2.3 0 4.6-1.1 6-3.1L38.9 54c.5-.8.7-1.7.6-2.6-.1-.9-.7-1.7-1.4-2.2zm-6.1-23l-.3-.3-7-3.7c-.2-.1-.4-.3-.5-.5l-2.6-3.6c-.2-.3-.3-.8-.3-1.2.1-.4.3-.8.7-1l2.4-1.6 3.8 5.4c.3.4.9.5 1.3.2s.5-.9.2-1.3l-3.8-5.4 2.3-1.6c.7-.5 1.7-.3 2.2.4l2.6 3.6c.1.2.2.4.3.7l1.1 7.2-1.2.9c-.4.3-.5.9-.2 1.3s.9.5 1.3.2l1-.7 5.5 7.8-1.9 2.7-6.9-9.5zM36.3 48l-2.6-1.8 15.5-21.8c.1-.2.2-.5.2-.7 0-.2-.2-.5-.4-.6-.9-.6-1.5-1.6-1.7-2.6-.2-1.1.1-2.1.7-3l2.9-4.1c1.1-1.6 3.2-2.1 4.9-1.5L52 17.1c-.5.8-.7 1.7-.6 2.6.2.9.7 1.7 1.4 2.2 1.6 1.1 3.7.7 4.8-.8l3.8-5.3c.5.6.9 1.3 1 2 .2 1.1-.1 2.1-.7 3l-2.9 4.1c-1.3 1.8-3.9 2.3-5.8 1l-1.7-1.2c-.4-.3-1-.2-1.3.2-.3.4-.2 1 .2 1.3l.9.6L36.3 48z"/><path class="st1" d="M30.6 49.6c-.4-.3-1-.2-1.3.2l-8 11.3c-.3.4-.2 1 .2 1.3.2.1.4.2.5.2.3 0 .6-.1.8-.4l8-11.3c.3-.4.2-1-.2-1.3zm34.9 8.5l-4.9-6.9c-.3-.4-.9-.5-1.3-.2s-.5.9-.2 1.3l4.9 6.9c.8 1.2 1.1 2.6.9 4-.2 1.4-1 2.6-2.2 3.4-2.4 1.7-5.8 1.1-7.5-1.3L46.5 53c-.2-.3-.3-.8-.3-1.2.1-.4.3-.8.7-1l6.2-4.3c.7-.5 1.7-.3 2.2.4l1.4 1.9c.3.4.9.5 1.3.2s.5-.9.2-1.3l-1.4-1.9c-1.1-1.6-3.3-1.9-4.8-.8l-.3.2-3.5-4.9c-.3-.4-.9-.5-1.3-.2s-.5.9-.2 1.3l3.5 4.9-2.8 1.7-2.6-3.7c-.3-.4-.9-.5-1.3-.2s-.5.9-.2 1.3l2.6 3.7-.2.1c-.8.5-1.3 1.3-1.4 2.2-.2.9 0 1.8.6 2.6l8.7 12.3c1.4 2 3.7 3.1 6 3.1 1.4 0 2.9-.4 4.2-1.3 1.6-1.1 2.7-2.8 3-4.7.2-1.8-.2-3.7-1.3-5.3z"/><path class="st1" d="M49.8 52c-.4.3-.5.9-.2 1.3l8 11.3c.2.3.5.4.8.4.2 0 .4-.1.5-.2.4-.3.5-.9.2-1.3l-8-11.3c-.3-.4-.9-.5-1.3-.2zm11.9 10.6c.2 0 .4-.1.5-.2.4-.3.5-.9.2-1.3l-8-11.3c-.3-.4-.9-.5-1.3-.2s-.5.9-.2 1.3l8 11.3c.2.3.5.4.8.4zm-36.8 2.3c.2.1.4.2.5.2.3 0 .6-.1.8-.4l8-11.3c.3-.4.2-1-.2-1.3-.4-.3-1-.2-1.3.2l-8 11.3c-.4.4-.3 1 .2 1.3z"/></svg>