<svg version="1.1" id="Слой_1" xmlns="http://www.w3.org/2000/svg" x="0" y="0" viewBox="0 0 78 78" xml:space="preserve"><style>.st1{fill:#111}</style><path d="M17.4 31.2c-7.8 7.8-7.8 20.4 0 28.3 7.8 7.8 20.5 7.8 28.3 0 7.9-7.8 7.9-20.5 0-28.3-7.8-7.7-20.4-7.7-28.3 0z" fill="#2a9dee"/><path class="st1" d="M68.6 63.5h-3.3v-3.3c0-.5-.4-.9-.9-.9h-1.2V56c0-.5-.4-.9-.9-.9h-1.2V40.3h1.2c.5 0 .9-.4.9-.9v-3.3h1.2c.5 0 .9-.4.9-.9V32h3.3c.4 0 .7-.2.8-.6.1-.3 0-.7-.3-1l-25-20.8c-.3-.3-.8-.3-1.1 0L18 30.4c-.3.2-.4.6-.3 1s.5.6.8.6h3.3v3.3c0 .5.4.9.9.9H24v3.3c0 .5.4.9.9.9h1.2v14.9h-1.2c-.5 0-.9.4-.9.9v3.3h-1.2c-.5 0-.9.4-.9.9v3.3h-3.3c-.5 0-.9.4-.9.9v4.2c0 .5.4.9.9.9h49.9c.5 0 .9-.4.9-.9v-4.2c.1-.7-.3-1.1-.8-1.1zM61.5 57v2.4h-6.6V57h6.6zM47.8 46.9h-8.3c-.5 0-.9.4-.9.9v11.6h-4.5v-3.3c0-.5-.4-.9-.9-.9H32V40.3h1.2c.5 0 .9-.4.9-.9v-3.3h19v3.3c0 .5.4.9.9.9h1.2v14.9H54c-.5 0-.9.4-.9.9v3.3h-4.5V47.8c.1-.5-.3-.9-.8-.9zm-.9 1.7v10.7h-6.6V48.6h6.6zM57 55.2V40.3h2.4v14.9H57zm4.5-16.6h-6.6v-2.4h6.6v2.4zm-39-8.4h-1.4l22.5-18.8 22.5 18.8h-1.4L44.2 13.8c-.3-.3-.8-.3-1.1 0L22.5 30.2zm2.4 4.2h-1.2V32h11.7c.5 0 .9-.4.9-.9s-.4-.9-.9-.9H25.3l18.3-14.6 18.3 14.6H39.3c-.5 0-.9.4-.9.9s.4.9.9.9h24.2v2.4H24.9zm.9 4.2v-2.4h6.6v2.4h-6.6zm4.5 1.7v14.9h-2.4V40.3h2.4zM25.8 57h6.6v2.4h-6.6V57zm41.9 10.7H19.5v-2.4h36.7c.5 0 .9-.4.9-.9s-.4-.9-.9-.9H23.7v-2.4h39.8v2.4h-3.4c-.5 0-.9.4-.9.9s.4.9.9.9h7.6v2.4z"/><path class="st1" d="M49 38.3H38.2c-.6 0-1.1.5-1.1 1.1v5.4c0 .6.5 1.1 1.1 1.1H49c.6 0 1.1-.5 1.1-1.1v-5.4c.1-.6-.4-1.1-1.1-1.1zm-1.1 5.4h-8.5v-3.1h8.5v3.1zM43.6 14c-2.9 0-5.2 2.3-5.2 5.2 0 2.9 2.3 5.2 5.2 5.2 2.9 0 5.2-2.3 5.2-5.2 0-2.9-2.3-5.2-5.2-5.2zm0 8.1c-1.6 0-2.9-1.3-2.9-2.9 0-1.6 1.3-2.9 2.9-2.9s2.9 1.3 2.9 2.9-1.3 2.9-2.9 2.9z"/></svg>