<svg version="1.1" id="Слой_1" xmlns="http://www.w3.org/2000/svg" x="0" y="0" viewBox="0 0 292 120" xml:space="preserve"><style>.st1{fill:#2400a8}.st4{fill:none;stroke:#00b04c;stroke-width:2.8346;stroke-miterlimit:22.9256}</style><path d="M286.5 120H5.5c-3 0-5.5-2.5-5.5-5.5V5.5C0 2.5 2.5 0 5.5 0h281c3 0 5.5 2.5 5.5 5.5v109c0 3-2.5 5.5-5.5 5.5z" opacity=".77" fill-rule="evenodd" clip-rule="evenodd" fill="#f8f9f9"/><path class="st1" d="M69.7 87.8c-.5 0-1 .1-1.4.2-.4.1-.8.3-1.1.5l-.4-.9c.3-.2.7-.3 1.2-.5.5-.1 1.1-.2 1.7-.2.5 0 1 .1 1.4.2.4.1.8.3 1.1.5.3.2.6.5.7.8.2.3.3.7.3 1.2 0 .3 0 .5-.1.8-.1.3-.2.5-.4.7-.2.2-.4.4-.7.6-.3.2-.6.3-.9.3.3.1.7.2 1 .3.3.1.6.3.8.6.2.2.4.5.6.9.1.3.2.7.2 1.2 0 .6-.1 1.1-.3 1.5s-.5.7-.9 1c-.4.3-.8.4-1.3.6-.5.1-1.1.2-1.7.2-.4 0-.8 0-1.1-.1-.3-.1-.6-.1-.9-.2-.3-.1-.5-.2-.7-.2s-.3-.1-.4-.2l.3-.9c.1.1.2.1.4.2s.4.2.6.2c.2.1.5.1.8.2.3.1.6.1.9.1.4 0 .9 0 1.2-.1.4-.1.7-.2 1-.4s.5-.4.6-.7c.2-.3.2-.6.2-1.1 0-.5-.1-.9-.3-1.2-.2-.3-.4-.5-.8-.7s-.7-.3-1.2-.4-.9-.1-1.4-.1H68v-.9h.9c.3 0 .7 0 1-.1.4-.1.7-.2 1-.3s.5-.4.7-.6.3-.6.3-1c0-.5-.2-1-.6-1.3-.2-.5-.8-.7-1.6-.7zm12.5 9.3h.9v3.1h-1V98h-6.2v2.2h-1v-3.1h.8c.3-.5.6-1.1.8-1.6.2-.5.4-1 .5-1.5.1-.5.2-1.1.2-1.6 0-.6.1-1.2.1-1.9v-.6h4.9v7.2zm-4-6.3c0 .6 0 1.1-.1 1.6 0 .5-.1 1.1-.2 1.6s-.2 1-.4 1.6c-.2.5-.4 1-.7 1.5h4.4v-6.3h-3zm9.1-1.1c.5 0 1 .1 1.3.2.4.2.7.4.9.6.2.3.4.6.5.9s.2.8.2 1.2v5.1c-.1 0-.3.1-.5.1s-.4.1-.7.1c-.3 0-.5.1-.9.1h-1c-.4 0-.8 0-1.2-.1s-.7-.2-.9-.4c-.3-.2-.5-.5-.6-.8-.2-.3-.2-.7-.2-1.2 0-.4.1-.8.2-1.1.2-.3.4-.6.7-.8.3-.2.7-.3 1.1-.4s.9-.1 1.4-.1h.5c.2 0 .3 0 .5.1.1 0 .3.1.4.1s.2 0 .2.1v-.5c0-.3 0-.6-.1-.8s-.1-.5-.3-.7c-.1-.2-.3-.4-.6-.5-.3-.1-.6-.2-1-.2-.6 0-1 0-1.3.1s-.5.2-.6.2l-.1-.9c.2-.1.4-.2.8-.2.4-.1.8-.2 1.3-.2zm.1 7.5h1c.3 0 .5-.1.8-.1v-2.8c-.1-.1-.3-.1-.5-.2s-.6-.1-1-.1c-.2 0-.5 0-.8.1-.3 0-.5.1-.7.2-.2.1-.4.3-.6.5-.1.2-.2.5-.2.8 0 .3 0 .6.1.8.1.2.2.4.4.5.2.1.4.2.7.3s.5 0 .8 0zm11.8.7h-1v-3.7h-4.4v3.7h-1v-8h1v3.4h4.4v-3.4h1v8zm8.1-6.7c-.3.4-.7.8-1.1 1.4l-1.2 1.8c-.4.6-.8 1.3-1.2 1.9-.4.6-.7 1.2-1 1.6h-.9v-8h1v6.4c.3-.4.6-1 .9-1.5L105 93c.4-.6.8-1.2 1.3-1.7.4-.5.8-1 1.2-1.4h.9v8h-1v-6.7zm5.8 3.5c-.2.2-.3.5-.5.8s-.4.6-.5.9c-.2.3-.3.6-.5.9-.2.3-.3.5-.4.8h-1c.3-.6.6-1.2 1-1.8.4-.6.7-1.2 1.1-1.6-.2-.1-.4-.1-.6-.3-.2-.1-.4-.3-.5-.4s-.3-.4-.4-.6c-.1-.2-.1-.5-.1-.8 0-.4.1-.8.3-1.1.2-.3.4-.6.7-.8.3-.2.6-.4 1.1-.5.4-.1.8-.2 1.3-.2h.7c.3 0 .5 0 .8.1.3 0 .5.1.7.1.2 0 .4.1.5.1v7.8h-1v-3.2h-2c-.5-.2-.6-.2-.7-.2zm2.5-3.9c-.1 0-.3-.1-.6-.1s-.6-.1-1.1-.1c-.3 0-.6 0-.8.1-.3.1-.5.2-.7.3-.2.1-.4.3-.5.5-.1.2-.2.5-.2.8 0 .3.1.6.2.8.1.2.3.4.5.5s.5.2.8.3c.3.1.6.1 1 .1h1.6v-3.2zm13.4 6.3h.9v3.1h-1V98h-6.2v2.2h-1v-3.1h.8c.3-.5.6-1.1.8-1.6.2-.5.4-1 .5-1.5.1-.5.2-1.1.2-1.6 0-.6.1-1.2.1-1.9v-.6h4.9v7.2zm-4-6.3c0 .6 0 1.1-.1 1.6 0 .5-.1 1.1-.2 1.6s-.3 1-.4 1.6c-.2.5-.4 1-.7 1.5h4.4v-6.3h-3zm9.4 0v1.3c0 .4 0 .7-.1 1.1 0 .4-.1.8-.1 1.1-.1.4-.2.7-.3 1.1-.1.3-.3.7-.4 1-.2.3-.4.6-.6.8-.2.2-.5.4-.8.6-.3.1-.7.2-1 .3l-.1-.8c.5-.1.9-.3 1.3-.6.3-.3.6-.8.8-1.3.2-.6.3-1.2.4-2 .1-.7.1-1.6.1-2.4v-1h4.9v8h-1v-7.2h-3.1zm8.8 3.9c-.2.2-.3.5-.5.8-.2.3-.4.6-.5.9-.2.3-.3.6-.5.9-.2.3-.3.5-.4.8h-1c.3-.6.6-1.2 1-1.8.4-.6.7-1.2 1.1-1.6-.2-.1-.4-.1-.6-.3-.2-.1-.4-.3-.5-.4-.2-.2-.3-.4-.4-.6-.1-.2-.1-.5-.1-.8 0-.4.1-.8.3-1.1.2-.3.4-.6.7-.8.3-.2.6-.4 1.1-.5s.8-.2 1.3-.2h.7c.3 0 .5 0 .8.1.3 0 .5.1.7.1.2 0 .4.1.5.1v7.8h-1v-3.2h-2c-.2 0-.6-.2-.7-.2zm2.5-3.9c-.1 0-.3-.1-.6-.1s-.6-.1-1.1-.1c-.3 0-.6 0-.8.1-.3.1-.5.2-.7.3-.2.1-.4.3-.5.5s-.2.5-.2.8c0 .3.1.6.2.8s.3.4.5.5c.2.1.5.2.8.3.3.1.6.1 1 .1h1.6v-3.2zm9.8-1.1c.3 0 .7 0 1 .1s.8.1 1.1.3.6.4.9.7c.2.3.3.7.3 1.2 0 .4-.1.7-.3 1-.2.3-.5.5-.9.7.6.2 1 .4 1.3.7.3.3.4.8.4 1.3s-.1 1-.3 1.3c-.2.3-.5.6-.9.7-.4.2-.8.3-1.2.3-.5.1-.9.1-1.4.1-.6 0-1 0-1.5-.1-.4-.1-.8-.2-1.1-.2v-7.7c.3-.1.6-.2 1-.2.4-.1 1-.2 1.6-.2zm-1.6 3.6h1.8c.6 0 1.1-.1 1.5-.3.4-.2.6-.6.6-1 0-.3-.1-.6-.2-.7-.1-.2-.3-.3-.5-.4s-.5-.1-.7-.2h-.8c-.3 0-.7 0-1 .1-.3 0-.5.1-.6.1v2.4zm0 .8v3c.1 0 .1 0 .3.1s.3 0 .4 0h1c.4 0 .7 0 1-.1.3 0 .6-.1.8-.2s.4-.3.6-.5c.1-.2.2-.5.2-.8 0-.3-.1-.5-.2-.7s-.3-.4-.5-.5c-.2-.1-.5-.2-.7-.3-.3-.1-.6-.1-.9-.1h-2zm9.9-4.4c.5 0 1 .1 1.3.2.4.2.7.4.9.6.2.3.4.6.5.9s.2.8.2 1.2v5.1c-.1 0-.3.1-.5.1s-.4.1-.7.1c-.3 0-.5.1-.9.1h-1c-.4 0-.8 0-1.2-.1s-.7-.2-.9-.4c-.3-.2-.5-.5-.6-.8-.2-.3-.2-.7-.2-1.2 0-.4.1-.8.2-1.1.2-.3.4-.6.7-.8.3-.2.7-.3 1.1-.4s.9-.1 1.4-.1h.5c.2 0 .3 0 .5.1.1 0 .3.1.4.1s.2 0 .2.1v-.5c0-.3 0-.6-.1-.8s-.1-.5-.3-.7c-.1-.2-.3-.4-.6-.5-.3-.1-.6-.2-1-.2-.6 0-1 0-1.3.1s-.5.2-.6.2l-.1-.9c.2-.1.4-.2.8-.2.4-.1.8-.2 1.3-.2zm.1 7.5h1c.3 0 .5-.1.8-.1v-2.8c-.1-.1-.3-.1-.5-.2s-.6-.1-1-.1c-.2 0-.5 0-.8.1-.3 0-.5.1-.7.2-.2.1-.4.3-.6.5-.1.2-.2.5-.2.8 0 .3 0 .6.1.8.1.2.2.4.4.5.2.1.4.2.7.3s.5 0 .8 0zm15.2.7h-9.8v-8h1v7.2h3.4v-7.2h1v7.2h3.4v-7.2h1v8zm2.2-4c0-.7.1-1.3.3-1.8.2-.5.5-1 .8-1.3s.7-.6 1.1-.8.9-.3 1.3-.3c1 0 1.8.3 2.4 1 .6.6.9 1.6.9 3v.4h-5.6c0 1 .3 1.7.7 2.3.5.5 1.2.8 2.2.8.5 0 1-.1 1.3-.2.3-.1.6-.2.7-.3l.2.9c-.1.1-.4.2-.8.3-.4.1-.9.2-1.4.2-.7 0-1.3-.1-1.8-.3-.5-.2-.9-.5-1.2-.9s-.6-.8-.7-1.3c-.3-.5-.4-1.1-.4-1.7zm5.7-.6c0-.8-.2-1.5-.6-2s-.9-.7-1.6-.7c-.4 0-.7.1-1 .2s-.5.3-.7.6-.4.5-.5.8-.2.7-.2 1h4.6zm7.9-2.5h-3.6V98h-1v-8h4.6v.8zm8.4 3.1c0 .6-.1 1.2-.3 1.7-.2.5-.4 1-.8 1.3-.3.4-.7.6-1.2.8-.4.2-.9.3-1.5.3-.5 0-1-.1-1.5-.3-.4-.2-.8-.5-1.2-.8-.3-.4-.6-.8-.8-1.3-.2-.5-.3-1.1-.3-1.7 0-.6.1-1.2.3-1.7.2-.5.4-1 .8-1.3.3-.4.7-.7 1.2-.9.4-.2.9-.3 1.5-.3.5 0 1 .1 1.5.3.4.2.8.5 1.2.9.3.4.6.8.8 1.3.3.5.3 1.1.3 1.7zm-1 0c0-1-.2-1.8-.7-2.4-.5-.6-1.1-.9-1.9-.9-.8 0-1.4.3-1.9.9-.5.6-.7 1.4-.7 2.4s.2 1.8.7 2.4c.5.6 1.1.9 1.9.9.8 0 1.4-.3 1.9-.9.4-.6.7-1.4.7-2.4zm7.6-2.8c.2-.2.4-.4.6-.5.2-.1.4-.3.7-.4s.5-.2.7-.2c.2 0 .4-.1.6-.1.6 0 1.1.1 1.6.3.4.2.8.5 1.1.8s.5.8.6 1.3c.1.5.2 1.1.2 1.7 0 .5-.1.9-.2 1.4-.1.5-.3.9-.6 1.3s-.6.7-1.1 1-1 .4-1.7.4-1.4-.1-1.8-.4-.8-.7-1.1-1.2-.4-1-.5-1.6c-.1-.6-.1-1.2-.1-1.8 0-.8.1-1.7.2-2.4.1-.8.3-1.5.6-2.1s.8-1.1 1.4-1.5c.6-.4 1.4-.7 2.5-.8.3 0 .6-.1.8-.1.2 0 .4-.1.5-.1.1 0 .3 0 .4-.1s.2 0 .3-.1l.1.9c-.1 0-.3.1-.5.1s-.7.1-1.2.2c-.6.1-1.2.2-1.6.4-.5.2-.8.4-1.1.8s-.5.7-.7 1.2c-.6.4-.7 1-.7 1.6zm-.1 1.1v.9c0 .5 0 1 .1 1.5s.2.9.4 1.3.5.7.8.9c.3.2.8.3 1.3.3s.8-.1 1.2-.3c.3-.2.6-.4.8-.7s.3-.6.4-1c.1-.4.1-.8.1-1.2 0-.4 0-.8-.1-1.2-.1-.4-.2-.7-.4-1-.2-.3-.5-.5-.8-.7-.3-.2-.8-.3-1.3-.3-.2 0-.5 0-.8.1s-.5.2-.7.3c-.2.1-.4.3-.6.4-.2.4-.3.6-.4.7zm13.8-1c-.3.4-.7.8-1.1 1.4l-1.2 1.8c-.4.6-.8 1.3-1.2 1.9-.4.6-.7 1.2-1 1.6h-.9v-8h1v6.4c.2-.4.6-1 .9-1.5s.8-1.2 1.2-1.8c.4-.6.8-1.2 1.3-1.7.4-.5.8-1 1.2-1.4h.9v8h-1v-6.7zm5.5 6c.7 0 1.3-.1 1.7-.4.4-.2.6-.6.6-1.1 0-.4-.1-.6-.2-.8-.2-.2-.3-.4-.6-.5-.2-.1-.5-.2-.7-.2-.3 0-.5-.1-.7-.1h-1.1v-.9h1.6c.2 0 .5-.1.7-.2s.4-.2.5-.4c.1-.2.2-.4.2-.7 0-.3-.1-.5-.2-.7-.1-.2-.3-.3-.5-.4s-.4-.2-.7-.2c-.3 0-.5-.1-.8-.1-.6 0-1.1.1-1.4.2-.3.1-.6.2-.7.3l-.2-.9c.1-.1.4-.2.8-.3s.9-.2 1.5-.2c1 0 1.8.2 2.3.6.5.4.8.9.8 1.7 0 .5-.1.8-.4 1.1-.3.3-.6.5-.9.6.5.1.9.4 1.2.7s.5.8.5 1.4c0 .8-.3 1.4-.9 1.8-.6.4-1.4.6-2.5.6-.7 0-1.3-.1-1.8-.2-.4-.1-.7-.2-.9-.3l.3-.9s.1.1.2.1.3.1.5.2.4.1.7.1c.5.1.8.1 1.1.1zm12 .7h-1v-3.7h-4.4v3.7h-1v-8h1v3.4h4.4v-3.4h1v8zm2.2-4c0-.7.1-1.3.3-1.8.2-.5.5-1 .8-1.3s.7-.6 1.1-.8.9-.3 1.3-.3c1 0 1.8.3 2.4 1 .6.6.9 1.6.9 3v.4h-5.6c0 1 .3 1.7.7 2.3.5.5 1.2.8 2.2.8.5 0 1-.1 1.3-.2.3-.1.6-.2.7-.3l.2.9c-.1.1-.4.2-.8.3-.4.1-.9.2-1.4.2-.7 0-1.3-.1-1.8-.3-.5-.2-.9-.5-1.2-.9s-.6-.8-.7-1.3c-.4-.5-.4-1.1-.4-1.7zm5.7-.6c0-.8-.2-1.5-.6-2s-.9-.7-1.6-.7c-.4 0-.7.1-1 .2s-.5.3-.7.6-.4.5-.5.8-.2.7-.2 1h4.6zm6.6 4.8c-.6 0-1.2-.1-1.6-.3s-.9-.5-1.2-.8c-.3-.4-.6-.8-.7-1.3-.2-.5-.2-1.1-.2-1.7 0-.6.1-1.2.3-1.7.2-.5.4-1 .7-1.3.3-.4.7-.7 1.2-.9.5-.2 1-.3 1.5-.3.4 0 .8 0 1.2.1.4.1.7.2.9.3l-.3.9c-.2-.1-.4-.2-.7-.2-.3-.1-.6-.1-1-.1-.9 0-1.6.3-2 .9s-.7 1.4-.7 2.4c0 .5.1.9.2 1.3s.3.7.5 1c.2.3.5.5.9.7.4.2.8.2 1.3.2.4 0 .8 0 1.1-.1.3-.1.5-.2.6-.3l.2.9c-.2.1-.5.2-.9.3h-1.3zm6.3-8.4c.5 0 1 .1 1.3.2.4.2.7.4.9.6.2.3.4.6.5.9s.2.8.2 1.2v5.1c-.1 0-.3.1-.5.1s-.4.1-.7.1c-.3 0-.5.1-.9.1h-1c-.4 0-.8 0-1.2-.1s-.7-.2-.9-.4c-.3-.2-.5-.5-.6-.8-.2-.3-.2-.7-.2-1.2 0-.4.1-.8.2-1.1.2-.3.4-.6.7-.8.3-.2.7-.3 1.1-.4s.9-.1 1.4-.1h.5c.2 0 .3 0 .5.1.1 0 .3.1.4.1s.2 0 .2.1v-.5c0-.3 0-.6-.1-.8s-.1-.5-.3-.7c-.1-.2-.3-.4-.6-.5-.3-.1-.6-.2-1-.2-.6 0-1 0-1.3.1s-.5.2-.6.2l-.1-.9c.2-.1.4-.2.8-.2.3-.1.7-.2 1.3-.2zm.1 7.5h1c.3 0 .5-.1.8-.1v-2.8c-.1-.1-.3-.1-.5-.2s-.6-.1-1-.1c-.2 0-.5 0-.8.1-.3 0-.5.1-.7.2-.2.1-.4.3-.6.5-.1.2-.2.5-.2.8 0 .3 0 .6.1.8.1.2.2.4.4.5.2.1.4.2.7.3s.4 0 .8 0z"/><path d="M52.5 69.3h16.2v-8.4l-4.5-3.7c-.8-.6-.4-.6-1.8-.2l-5.5 1.5c-2 .7-1.3-.1-2.6 1.7l-1.7 2.5c-.2.4-.1 5.1-.1 6.1v.5zM61.7 58l-.4.4c-.2.1-.2.2-.4.3l-.3-.3 1.1-.4zm-1.6.5l.5.3c-.1.2-.3.3-.5.4v-.7zm1.2.4c.4-.3 1.6-1.3 2-1.4v2.9c-.3-.1-1.8-1.3-2-1.5zm2.4-1.3l2 1.6-2 1.3v-2.9zm-4 1v.9c-2.2.6-1.2.2-3.3.1l3.3-1zm.4 1.2l.9-.6 1.6 1.2c-.4 0-1-.1-1.4-.2-.6-.1-.8 0-1.1-.4zm-3.8.3l1 .1c-.3.1-.7.2-1 .3v-.4zm1.3.6c.3-.1.5-.2.8-.2l-.6.5-.2-.3zm6.5-.1c.2-.2 1.6-1 1.8-1.1v1.4l-1.8-.3zm-.6 2c-.2-.1-2.2-1.7-2.4-2l6.1.7c-.2.3-3.1 1.1-3.7 1.3zm-9.4-1.5c.1-.2.9-1.3 1-1.3v1l-1 .3zm12.1-1.5c.3.2.6.5.9.7.3.2.7.4.9.7l-1.8-.2v-1.2zm-8.9 1.7c-.1-.2 0-.2-.1-.4l.4.2-.3.2zm-1 0c0-.3.1-.2.3-.3.1 0 .2-.1.4-.1v.7l-.6.2-.1-.5zm2-.2c.1-.1.1 0 .1-.1.7-.5.6-.6 1.1-.5v1.8l-1.4-1 .2-.2zm1.6-.6c.7 0 1 .5 1.4.8-.1.1 0 .1-.1.1l-.6.4c-.3.2-.5.3-.7.4v-1.7zm-4.7.9v.3c-.2-.1-.3 0-.6-.1l.6-.2zm2.7 0c.2.1 1 .6 1.1.9-.5-.1-1.5 0-1.8-.4l.7-.5zm-3.4.6l.7.1c-.2.1-.4.2-.7.2V62zm5.7.4c.1-.2 1-.7 1.3-.8v1l-1.3-.2zm-.5 1.5c-.2-.3-1.5-1.2-1.7-1.5l4.4.5c-.2.2-.2.2-.7.3-.3.1-.5.1-.7.2-.5.2-.9.3-1.3.5zm-6.1-2.1v.8l-.8.2.8-1zm8.1-.1l1.2.9-1.2-.1v-.8zm-4.6.6c.3 0 .4.1.6.3.2.2.3.2.5.4-.3.2-.7.5-1.1.6v-1.3zm-3.5.8c-.1.1 0 .1-.4.1l.2-.1c.4-.1.1 0 .2 0zm2.7-.9l.5.1v1.3c-.2-.1-.4-.2-.5-.4v-1zm-1.4.4v.8l-.5-.1v-.6l.5-.1zm1.6 1c-.3-.1-.1 0-.3-.2.3.1.2-.1.3.2zm.8.1c.2-.2.7-.5.9-.6v.7l-.9-.1zm1.1-.5c.3.2.7.5.9.8l-.9-.1v-.7zm-5.2.2h.5v4.5h-.5v-4.5zm1.3.2l.7.1V68h-.7v-4.4zm1.8.2c.6 0 2.6.2 3.1.4V68h-3.1v-4.2zm3.5.3c.5-.2 1.1-.3 1.7-.5l1.6-.5V68h-3.4c0-.8 0-3.4.1-3.9zm3.7-1c.1 0 0 0 .1-.1l.4-.1c.8-.2 3.6-1.1 4.1-1.1V68h-4.7l.1-4.9zm-28-33.2c-.7.2-1.6.4-2.3.6-.8.2-1.5.4-2.3.6l-3.5 1c-.4.1-.2.1-.4.4l-1.5 2.2c-.9 1.4-.9 1-.9 2-.1 1.9 0 3.9 0 5.8h16.1v-8.4l-5.2-4.2zm-1 1.2c.4-.3.4-.3.9-.4.1.1.1.1.3.2l.2.2-1.7 1.1c-.4.3-1.4 1-1.8 1.1-.2-.1-.3-.2-.5-.4l2.6-1.8zm1.8.3l.5.4-3.7 2.1-.4-.3v-.1l3.6-2.1zm-6.9 2c1-.9 1-1.4 2.2-1.5-.2.2-.7.7-1 .9-.3.2-.4.5-1.2.6zm-1.1.3c.1-.4.4-.6.6-.9.2-.3.5-.3 1-.5-.2.3-.5.5-.7.8-.2.3-.4.5-.9.6zm5.1.4c.3-.2.6-.4.9-.5.3-.2.6-.3 1-.5l2-1c.2.2.4.3.5.5-.2.2-.6.3-1 .5-.6.3-2.6 1.2-2.9 1.5-.1-.1-.2-.1-.3-.2l-.1-.1c0-.1 0-.1-.1-.2zM28.3 33c-.1-.3 0-.2.2-.2l-.2.2zm2.5 0c.2-.1.4-.4.7-.5.9-.7 1-1 2.3-1.2-.3.2-2.6 2-3 1.7zm3.3 1.7c.2-.2 1.8-.8 2-1l2-.9c.2.1.4.3.6.4-.2.2-.2.2-.5.3l-2.7 1.1c-.3.2-.7.3-1 .4-.1 0-.2-.1-.4-.3zm-5 .3c.2-.2 1.9-1.5 2.6-1.6.1.2.2.2.3.3l-2.5 1.6-.4-.3zm-3-.7c.1-.2.4-.5.5-.7.2-.2.4-.4.5-.6.1.6 0 .7-.2 1-.2.3-.1.1-.8.3zm2.3.7l.1-.1c.4-.5 1.2-1 1.8-1.1-.2.3-.6.4-.9.7-.2.2-.4.4-1 .5zm6.5.3c.2-.1 4-1.6 4.3-1.7.2.1.4.3.6.5-1 .3-4 1.5-4.5 1.6l-.4-.4zm-6.6-.9c.2-.2.5-.3.8-.3-.2.2-.6.5-.8.7v-.4zm1.4 1c.3-.3.9-.6 1.3-.8 1.1-.7 1.3-1 1.8-.4L30 35.7l-.3-.3zm3.3-1.1l.5.4c-.9.4-2 1-2.9 1.4l-.3-.3 2.7-1.5zm-6 .4l-.4.5-.1-.4.5-.1zm-.3.8c.1-.3.3-.4.5-.6 0 .5.1.5-.5.6zm7-.6l.4.4c-.1 0-2.7 1.2-3 1.3l-.3-.3 2.9-1.4zM24.8 36c.2-.3.5-.8.8-1v.8c-.3.1-.5.1-.8.2zm9.6-.5l.4.3c-.3.3-2.9 1.1-3.3 1.2-.1-.1-.3-.2-.3-.3l3.2-1.2zm-9.3 1c.1-.2-.1-.1.2-.2.1 0 .2 0 .3-.1v4.9h-.5v-4.6zm1.4-.5l.7-.2v5.4h-.7V36zm2.4-.7l1.8 1.4c.1.1.5.4.6.5.2.2.1 3.6.1 4-.4.1-2.5 0-3.1 0v-5.8l.6-.1zm2.8 1.8c1.1-.4 2.3-.7 3.4-1.1v5.2h-3.4v-4.1zm3.8-1.2c.2-.2 2-.7 2.3-.8l2.4-.7v6.8h-4.7v-5.3zm22.5-6c-.5.3-2 1-2.3 1.5l-3 4.5c-.3.4-.2 1-.2 1.6v5c.1.1-.1.1.3.1h15.8v-9.4c-.3-.2-1.7-1.5-2.1-1.8l-2.1 1.1c-.4-.2-1.7-1.6-2.2-1.8-.3.2-1.8 1.1-2.1 1.1L58 29.9zm-.9 1.2c-.1.3-.3.3-.5.7l-.6-.1 1.1-.6zm-.1.8c0-.2.7-1 1-1.3.4.1.5.4.9.8.3.3.6.5.9.7l-.3.2-2.5-.4zm3.8.6c.1-.1.2-.2.4-.3.3-.2 1-.8 1.2-.9.4.4 1.2 1 1.6 1.4l-.4.3-2.8-.5zm-4.3 1.3c0-.5-.1-1 0-1.4.8 0 1.7.3 2.5.4-.3.4-1.4 1.3-1.9 1.7-.2.2-.4.4-.6.5v-1.2zm8-.7c.6-.2 1.5-.9 2-1.1.3.1.6.5.8.7.3.3.6.4.8.7-.4.1-.4.2-.9.2l-2.4-.4c-.1 0-.1 0-.2-.1h-.1zm-4.1-.2l2.4.4-2.4 1.4v-1.8zm4.4.8c.3-.1 1.6.2 1.9.3-.3.2-1.7.8-1.9.8v-1.1zm-4.4 1.7c.1-.3 1.3-.8 1.8-1.1l1.4-.8c.3-.1.2 0 .5 0V35c-.3.1-.6.3-.9.4-.3.1-.6.3-.9.4-.3.1-.6.3-.9.4-.3.1-.6.3-.9.4l-.1-1.2zm-3.9.4c.1-.2.6-.5.8-.7.5-.3 2.3-1.8 2.5-1.9v1.9c-.1.1-2.6 1.5-2.9 1.7-.5-.3-.4-.5-.4-1zm-.6-2.7c0 2.5.2 2.1-.6 2.8-.1.1-.5.4-.6.5-.3-.2-.7-.5-.9-.8l2.1-2.5zm0-1.3v.8c-.4.6-.9 1.2-1.4 1.8-.6.8-.8 1.1-1.6 1.5l3-4.1zm-3.3 4.7c.2-.2.7-.4 1-.6.2.1.3.3.5.5s.3.2.5.5l-2-.4zm5.8 0c.3-.2 1.2-.7 1.5-.8v1.2c-.2.1-.5.2-.7.3-.3-.3-.6-.5-.8-.7zm-3.6.3c.2-.2.8-.5 1.1-.5v.7l-1.1-.2zm2 .2c-.1.1.2.2-.3.1v-.2l.3.1zm1.2-.4l1.1.9-2.1-.3 1-.6zm-3.1.5l1 .2v3.9h-.5c-.3 0-.3 0-.5-.1v-4zm1.9 4.1c-.4 0-.3 0-.3-.8v-2.1c0-1-.1-.8.2-.8.1.1 0-.2.1.2v3.5zm2.4-3.6c.2-.2.4-.2.7-.3v2.3c0 1.5.2 1.6-.4 1.6l-.3-.1v-3.5zm5.5-1.6c0-.7-.1-.6.5-.8.3-.1.6-.2.9-.4.7-.2 1.4-.7 2-.6v7c-.5 0-3 .1-3.3-.1-.1-1.5-.1-3.5-.1-5.1zm-11.9.8l1.8.3v4.2h-1.7l-.1-4.5zm4.3.7l1.7.3v3.5h-1.7v-3.8zm3.3-.4c.7-.2 3.2-1.3 3.7-1.4v5.6h-3.7v-4.2zM28.2 56.9c-.5.8-1.1 1.7-1.6 2.5-.2.4-.5.9-.8 1.3-.3.4-.5.8-.8 1.2-.1.2-.3.5-.4.6-.2.3-.1 6.7-.1 7h16.1V59.2c-1-.2-2.1-.4-3.1-.6-1.7-.2-8.2-1.4-9.3-1.7m1.4 1.7c-.1-.2-.6-.9-.7-1.2l1.5.3c-.3.3-.6.7-.8.9zm2.2.3c-.1-.2-.2-.4-.4-.5-.2-.2-.3-.2-.3-.5l1.5.3c-.1.2-.5.6-.8.7zm2.6.3l-.8-.8c.3.1 1.2.2 1.4.3-.1.2-.4.4-.6.5zm-5.8-1.5l.1.1c1.1 1.5.5 1.2-.1 1.2v-1.3zm8.3 1.8c-.2-.2-.5-.4-.7-.6.2 0 1 .2 1.3.3-.2.1-.5.2-.6.3zm-6.1-1.4c.2.2.7.9.8 1.1-.6.1-1.2-.1-1.7-.1l.9-1zm1.4 1.1c.3-.1.7-.5 1-.7.3.1.2.2.5.4.2.2.3.2.4.5l-1.6-.1c-.2-.1-.2-.1-.3-.1zm-3.6.2h.3l-.3.3v-.3zm7.1-.5c.3.1.7.5.8.7l-1.7-.2.9-.5zm3.7.8c-.1 0-.4-.2-.5-.3.2 0 .3 0 .5.1l.4.1c-.2.1-.2.1-.4.1zm-10.3-.2l2 .2c-.4.3-1.3 1.2-1.7 1.4l-.8-.1-.1-.2v-.6l.6-.7zm8.2.1c.3 0 .6-.2.8-.3l.8.5c-.3 0-1.3 0-1.6-.2zM29.8 61c.3-.2.6-.5.8-.7.3-.2.6-.4.8-.7l2 .1c0 .1 0 .1-.1.2l-2 1.4-1.4-.2c-.1 0-.1 0-.1-.1zm10.4-1.2c.3-.1.1-.1.2.1-.2.1-.1.1-.4 0 0 0 0-.1.2-.1zm-8.3 1.4c2.4-1.6 1.4-1.4 4-1.2-.2.2-.1.1-.3.2l-.4.2c-2.4 1.4-1.8 1.2-3.6 1l.3-.2zm-3.8-3.6l.2-.2v2.7c-.2.2-.4.3-.5.6l-1.6-.2 1.9-2.9zm5.3 4c3.7-2.1 2.2-1.5 5-1.4-.2.2-1.4.7-1.8.9-2.2.9-1.3.9-3.2.5zm-5.2-1c0 .4.1.3-.2.2l.2-.2zm-1.3 1.1c-.2-.1-.4-.5-.4-.7l.9.1c-.2.2-.3.4-.5.6zm1.3-.3c-.2-.1-.1 0-.1-.2.1.1.1 0 .1.2zm.4-.1l.4.1c0 .2-.3.4-.4.5v-.6zm1.7.7c-.2-.1-.3-.3-.5-.5.3 0 .6.1.9.1 0 .2-.2.3-.4.4zm1.8.1l-.3-.3c.2 0 .2 0 .4.1.1 0 .2 0 .2.1.1 0 .1 0 .1.1-.2-.1-.2-.1-.4 0zm-5.9-1l.5.9h-.5v-.9zm.9.9c.1-.3.5-.5.6-.8.2.2.5.5.5.8h-1.1zm1.7.1c.2-.2.5-.4.7-.6l.6.7-1.3-.1zm1.8.1c.2-.2.4-.2.6-.4.3.1.5.3.6.5l-1.2-.1zm1.9.1c.4-.3.6-.3 1.1 0h-1.1zm2.1-.1c-.1.2.1.1-.2.1l.2-.1zm-8.3.1c-.1.2 0 .1-.1.2 0-.2-.1-.1.1-.2zm-.1.7s-.1.1 0-.2l.1-.2c.4-.4.3-.3 1.6-.2-.9.9-.6.7-1.7.6zm2.4-.6h1c-.3.2-.6.5-1 .7v-.7zm0 .9c.2-.1 1-.6 1.2-.8h1.5c-.1.2 0 .1-.2.2-.4.2-1.2.8-1.7.7-.2 0-.3 0-.4-.1h-.4zm1.3.2c.4-.1 1.6-.9 1.8-.9l1.4.1c-.2.1-2.1 1-2.3 1-.2 0-.6-.1-.9-.2zm-5.1-.7c0-.3.5-1 .8-1.3.2-.2.1-.2.3-.4 0 .4.1 1.6-.1 1.9l-1-.2zm.5.8c-.1-.2-.2-.4-.3-.5h.6c.2.1 0 0 .1.1l-.4.4zm2-.5c.2-.3.5-.5.9-.7v.8c-.3.1-.6 0-.9-.1zm-.8.6c-.2-.1-.3-.2-.3-.5l.8.1c-.2.2-.4.3-.5.4zm.9-.3l.7.2-.4.2-.3-.4zm2 .4c-.3.2-.4.1-.5-.1l.5.1zm-4.7-.6c.2.1.3.3.4.6h-.4v-.6zm1.2.1v.6h-.5l.5-.6zm.3.4l.1.2c-.2-.1-.1 0-.1-.2zm.5.1c.2-.2.3-.2.5-.4l.5.5c-.4.1-.8 0-1-.1zm1.9-.1c.2.1.2.2.3.2-.4.1-.3.1-.3-.2zm1.2.1l.4.2h-.8l.4-.2zm-5.1.3c.4-.1.8 0 1.2 0v4.2h-1.2v-4.2zm1.5 0l2 .1v4h-2v-4.1zm2.4.1l2.4.1v3.9h-2.4v-4zm2.6-.5c.2 0 1.3-.6 1.6-.7.9-.4.7-.3 1.8-.3v5.6h-3.4v-4.6zm3.6-1.5c.1-.2 0-.1.3-.2l2.2-1c1.6-.7 1.1-.7 3-.6v7.9h-5.5v-6.1z" fill-rule="evenodd" clip-rule="evenodd" fill="#231f20"/><path d="M38.4 34.3c0-.2 0-.1-.1-.2-.1.2-.1.1.1.2m-2.1 1.1c.2-.1.1 0 .1-.2-.1 0-.1-.1-.1.2" fill="#cfc9ce" fill-rule="evenodd" clip-rule="evenodd"/><path class="st4" d="M32.7 22.7C40 22.7 46 28.6 46 36v13.3H32.7c-7.3 0-13.3-5.9-13.3-13.3s5.9-13.3 13.3-13.3z"/><path d="M32.7 78.4C40 78.4 46 72.5 46 65.1V51.8H32.7c-7.3 0-13.3 5.9-13.3 13.3s5.9 13.3 13.3 13.3zm29-55.7c-7.3 0-13.3 5.9-13.3 13.3v13.3h13.3c7.4 0 13.3-6 13.3-13.3s-5.9-13.3-13.3-13.3z" stroke="#2400a8" fill="none" stroke-width="2.835" stroke-miterlimit="22.926"/><path class="st4" d="M61.7 78.4c-7.3 0-13.3-5.9-13.3-13.3V51.8h13.3C69 51.8 75 57.7 75 65.1s-5.9 13.3-13.3 13.3z"/><path class="st1" d="M254.5 40v-6.8h-.4c-.7 0-1.2.1-1.5.4-.3.3-.5.9-.5 1.9v1.7c0 1.1.1 1.9.4 2.2.3.4 1 .6 2 .6m8 18.6h-8V44.8c-1 0-1.7.2-2 .5-.3.3-.4 1.1-.4 2.2v11.1h-7.4v-9.1c0-1.5.1-2.7.3-3.5.2-.8.6-1.5 1.2-2s1.6-1 2.9-1.3c-1.8-.2-3-.7-3.6-1.6-.5-.9-.8-2.5-.8-4.7 0-2 .3-3.6.8-4.8.5-1.2 1.2-2 2.2-2.5 1-.5 2.1-.8 3.3-.9 1.2-.1 3.2-.2 5.9-.2h5.7v30.6zm-27.9-10.9c-.4-3.5-.8-7.8-1.2-12.9-.8 5.9-1.3 10.2-1.5 12.9h2.7zm4.2-19.7l4.6 30.6h-8.1l-.4-5.5H232l-.4 5.5h-8.2l4-30.6h11.4zm-34.5 0h8v12.9c1.5 0 2.2-.9 2.3-2.5l.1-6c.1-2.2.5-3.7 1.3-4.5h7.4c-.7.7-1.1 2.3-1 4.6v5.3c0 3.2-1.8 5-5.4 5.4 3.6.4 5.4 2.3 5.4 5.5v4.9c0 2.3.3 4 1 5H216c-.9-.8-1.3-2.3-1.3-4.5v-6c0-.8-.2-1.4-.7-1.8-.5-.5-1-.7-1.8-.7v13h-8V28zm-2.8 13.3h-8V36c0-1.5-.1-2.5-.3-2.9-.2-.4-.5-.6-1.1-.6-.6 0-1.1.2-1.2.7-.2.5-.3 1.5-.3 3v14.2c0 1.5.1 2.5.3 2.9.2.5.6.7 1.2.7s1-.2 1.2-.7c.2-.5.3-1.5.3-3.2v-3.9h8v1.2c0 3.2-.2 5.4-.7 6.8-.4 1.3-1.4 2.5-3 3.5-1.5 1-3.4 1.5-5.7 1.5-2.3 0-4.3-.4-5.8-1.3-1.5-.8-2.5-2-3-3.5s-.7-3.7-.7-6.7v-8.9c0-2.2.1-3.9.2-5 .2-1.1.6-2.2 1.4-3.2.7-1 1.8-1.8 3.1-2.4 1.3-.6 2.9-.9 4.6-.9 2.3 0 4.3.5 5.8 1.4 1.5.9 2.5 2 3 3.4s.7 3.5.7 6.3v2.9zm-29.4 9.2v-4.4c0-1.3-.1-2.1-.4-2.4-.3-.3-1-.4-2.2-.5v10.1c1 0 1.7-.1 2.1-.4.3-.2.5-1 .5-2.4zm7.9 1c0 2.3-.3 3.9-.9 4.9-.6 1-1.5 1.6-2.7 1.9-1.2.3-3.1.4-5.8.4h-9.2V28h8v10.5h1.2c2.5 0 4.3.1 5.6.4 1.3.3 2.2.9 2.8 1.9.6 1 .9 2.5.9 4.7v6zm-21.7 7.1h-8V34.1H148v17.4c0 2.3-.3 3.9-.9 4.9-.6 1-1.5 1.6-2.7 1.9-1.2.3-3.1.4-5.7.4h-1.2v-5.3c1 0 1.6-.1 2-.4.4-.2.5-1.1.5-2.5V28h18.3v30.6zm-29.6-10.9c-.4-3.5-.8-7.8-1.2-12.9-.8 5.9-1.3 10.2-1.5 12.9h2.7zm4.2-19.7l4.6 30.6h-8.1l-.4-5.5h-3l-.4 5.5h-8.2l4-30.6h11.5zm-25.2 5.2V41h.6c.7 0 1.2-.2 1.5-.5.3-.4.4-1.1.4-2.2v-2.5c0-1-.2-1.7-.5-2-.3-.4-1-.6-2-.6zm-8-5.2h8c2.2 0 3.8.2 5 .5 1.2.3 2 .8 2.6 1.5.6.6 1 1.4 1.2 2.3.2.9.3 2.3.3 4.2v2.7c0 2-.2 3.4-.6 4.3-.4.9-1.1 1.6-2.2 2.1s-2.5.7-4.2.7h-2.1v12.4h-8V28zm-1.6 0L96 48.3c-.3 3.2-.7 5.5-1.1 6.7-.4 1.3-1.1 2.2-2.3 2.8-1.1.6-3 .8-5.5.8h-4.6v-4h.5c1.1 0 1.7-.1 1.9-.3.2-.2.4-.4.4-.8 0 0-.2-.9-.5-2.6L80.5 28h6.9L90 47.1 91.2 28h6.9z"/><path d="M259 66.4v-2.9h-.2c-.3 0-.5.1-.7.2-.1.1-.2.4-.2.8v.7c0 .5.1.8.2 1 .2.2.5.2.9.2m3.5 8.1H259v-6c-.4 0-.7.1-.8.2-.1.1-.2.5-.2 1v4.8h-3.2v-4c0-.7 0-1.2.1-1.5.1-.3.2-.6.5-.9.3-.2.7-.4 1.3-.6-.8-.1-1.3-.3-1.5-.7-.2-.4-.4-1.1-.4-2 0-.9.1-1.6.3-2.1.2-.5.5-.9 1-1.1.4-.2.9-.4 1.4-.4.5 0 1.4-.1 2.5-.1h2.5v13.4zm-9.1 0h-2.9v-6l-1.8 6h-3V61.2h2.9v6l1.9-6h2.9v13.3zm-9.1-13.3v13.3h-3.5v-5.6h-1v5.6h-3.5V61.2h3.5V66h1v-4.8h3.5zM232 69.8c-.2-1.5-.3-3.4-.5-5.6-.3 2.6-.6 4.4-.6 5.6h1.1zm1.8-8.6l2 13.3h-3.5l-.2-2.4h-1.2l-.2 2.4h-3.6l1.8-13.3h4.9zm-7.3 13.3H223V63.9h-1v10.6h-3.5V61.2h7.9v13.3zm-9.4-13.3v13.3h-3v-9l-1.2 9h-2.1l-1.3-8.8v8.8h-3V61.2h4.5c.1.8.3 1.7.4 2.8l.5 3.4.8-6.2h4.4zm-15.4 3.4c0-.6 0-1-.1-1.2-.1-.2-.2-.3-.4-.3s-.3.1-.4.2c-.1.1-.1.5-.1 1.2v6.2c0 .8 0 1.2.1 1.4.1.2.2.3.4.3s.4-.1.4-.3c.1-.2.1-.7.1-1.5v-6zm3.5 4.4c0 1.3 0 2.3-.1 2.8-.1.6-.3 1.1-.6 1.5-.3.5-.8.8-1.3 1.1-.6.2-1.2.4-2 .4-.7 0-1.3-.1-1.9-.3-.6-.2-1-.6-1.4-1-.3-.5-.5-1-.6-1.5-.1-.5-.1-1.5-.1-2.9v-2.3c0-1.3 0-2.3.1-2.8.1-.6.3-1.1.6-1.5.3-.5.8-.8 1.3-1.1.6-.2 1.2-.4 2-.4.7 0 1.3.1 1.9.3.6.2 1 .6 1.4 1 .3.5.5 1 .6 1.5.1.5.1 1.5.1 2.9V69zm-16.9-7.8h3.5v5.6c.6 0 1-.4 1-1.1l.1-2.6c0-1 .2-1.6.6-1.9h3.2c-.3.3-.5 1-.5 2v2.3c0 1.4-.8 2.2-2.3 2.4 1.6.2 2.3 1 2.3 2.4v2.1c0 1 .1 1.7.5 2.2h-3.2c-.4-.3-.6-1-.6-1.9V70c0-.3-.1-.6-.3-.8-.2-.2-.5-.3-.8-.3v5.6h-3.5V61.2zm-7.8 5.2v-2.9h-.2c-.3 0-.5.1-.7.2-.1.1-.2.4-.2.8v.7c0 .5.1.8.2 1 .2.2.5.2.9.2zm3.5 8.1h-3.5v-6c-.4 0-.7.1-.8.2-.1.1-.2.5-.2 1v4.8h-3.2v-4c0-.7 0-1.2.1-1.5.1-.3.2-.6.5-.9.3-.2.7-.4 1.3-.6-.8-.1-1.3-.3-1.5-.7-.2-.4-.4-1.1-.4-2 0-.9.1-1.6.3-2.1.2-.5.5-.9 1-1.1.4-.2.9-.4 1.4-.4.5 0 1.4-.1 2.5-.1h2.5v13.4zm-12.1-4.7c-.2-1.5-.3-3.4-.5-5.6-.3 2.6-.6 4.4-.6 5.6h1.1zm1.8-8.6l2 13.3h-3.5l-.2-2.4h-1.2l-.2 2.4H167l1.8-13.3h4.9zm-7.3 0v13.3h-3.5v-5.6h-1v5.6h-3.5V61.2h3.5V66h1v-4.8h3.5zM153.8 71v-1.9c0-.6-.1-.9-.2-1-.1-.1-.4-.2-1-.2v4.4c.4 0 .7-.1.9-.2.2-.2.3-.5.3-1.1zm3.4.4c0 1-.1 1.7-.4 2.1-.3.4-.6.7-1.2.8-.5.1-1.4.2-2.5.2h-4V61.2h3.5v4.6h.5c1.1 0 1.9.1 2.4.2s1 .4 1.2.8c.3.4.4 1.1.4 2v2.6zm-9.4 3.1h-3.5V63.9h-1v7.5c0 1-.1 1.7-.4 2.1-.3.4-.6.7-1.2.8-.5.1-1.3.2-2.5.2h-.5v-2.3c.4 0 .7-.1.9-.2.2-.1.2-.5.2-1.1v-9.8h7.9v13.4zm-15.4-13.3h5.8v2.7h-2.3v2.5h2.2v2.5h-2.2v2.9h2.5v2.7h-6V61.2zm-.8 0v2.7h-2v10.6h-3.5V63.9H124v-2.7h7.6zm-8.4 13.3h-2.9v-6l-1.8 6h-3V61.2h2.9v6l1.9-6h2.9v13.3zm-12.4-9.9c0-.6 0-1-.1-1.2-.1-.2-.2-.3-.4-.3s-.3.1-.4.2c-.1.1-.1.5-.1 1.2v6.2c0 .8 0 1.2.1 1.4.1.2.2.3.4.3s.4-.1.4-.3c.1-.2.1-.7.1-1.5v-6zm3.4 4.4c0 1.3 0 2.3-.1 2.8-.1.6-.3 1.1-.6 1.5-.3.5-.8.8-1.3 1.1-.6.2-1.2.4-2 .4-.7 0-1.3-.1-1.9-.3-.6-.2-1-.6-1.4-1-.3-.5-.5-1-.6-1.5-.1-.5-.1-1.5-.1-2.9v-2.3c0-1.3 0-2.3.1-2.8.1-.6.3-1.1.6-1.5.3-.5.8-.8 1.3-1.1.6-.2 1.2-.4 2-.4.7 0 1.3.1 1.9.3.6.2 1 .6 1.4 1 .3.5.5 1 .6 1.5.1.5.1 1.5.1 2.9V69zm-12.8-5.5v3.4h.3c.3 0 .5-.1.7-.2.1-.2.2-.5.2-1v-1.1c0-.5-.1-.8-.2-.9-.3-.1-.6-.2-1-.2zm-3.5-2.3h3.5c.9 0 1.7.1 2.2.2.5.1.9.4 1.1.6.3.3.4.6.5 1 .1.4.1 1 .1 1.8V66c0 .8-.1 1.5-.3 1.9-.2.4-.5.7-1 .9-.5.2-1.1.3-1.8.3h-.9v5.4h-3.5V61.2zm-.8 0v2.7h-2v10.6h-3.5V63.9h-2v-2.7h7.5zM88.9 67h-3.5v-2.3c0-.7 0-1.1-.1-1.3-.1-.2-.2-.2-.5-.2s-.5.1-.5.3c-.1.2-.1.6-.1 1.3V71c0 .6 0 1.1.1 1.3.1.2.2.3.5.3s.4-.1.5-.3c.1-.2.1-.7.1-1.4v-1.7h3.5v.5c0 1.4-.1 2.4-.3 2.9-.2.6-.6 1.1-1.3 1.5-.7.4-1.5.6-2.5.6s-1.8-.2-2.5-.5c-.7-.4-1.1-.9-1.3-1.5-.2-.6-.3-1.6-.3-2.9v-3.9c0-1 0-1.7.1-2.2.1-.5.3-.9.6-1.4.3-.4.8-.8 1.4-1 .6-.3 1.2-.4 2-.4 1 0 1.9.2 2.5.6.7.4 1.1.9 1.3 1.5.2.6.3 1.5.3 2.7V67z" fill="#00b04c"/></svg>