<svg xmlns="http://www.w3.org/2000/svg" xmlns:xlink="http://www.w3.org/1999/xlink" width="34" height="100" viewBox="0 0 34 100"><defs><path id="mnb0a" d="M923.94 396.02c-20.13 9.74-29.6 28.94-29.52 40.63a57.9 57.9 0 0 0 0 10.43c.3 3.26.9 6.41 1.81 9.48 1.75 5.95 4.8 11.7 8.64 17.19 4.36 5.99 8.72 11.55 16.53 16.75l1.17-.78c-8.4-2.4-14-5.13-19.1-8.3-.84-.53-1.88.1-1.09.68a74.64 74.64 0 0 0 20.23 10.49c.25.08.5.13.73.15.24.02.46 0 .63-.04.18-.04.32-.1.4-.2a.3.3 0 0 0 .09-.14.3.3 0 0 0-.02-.17c-2.18-5.36-3.54-10.83-4.83-16.52-.13-.6-1.86-.75-2.09-.19-1.69 4.22-1.7 8.5.09 12.7.3.72 2.43.66 2.1-.06a14.86 14.86 0 0 1-.12-12.13l-2.09-.18c1.33 5.65 2.61 11.1 4.55 16.4l1.8-.41a76.3 76.3 0 0 1-20.39-10.39l-1.08.69c5.21 3.3 10.8 6.1 19.54 8.6 1.2.34 1.9-.33 1.17-.78-13.1-9.08-19.38-19.74-24.3-30.98-2.24-6-3.3-12.27-3.12-19.04a43.83 43.83 0 0 1 5.34-20.27c4.4-8.32 13.74-16.66 23.46-21.75.71-.38.92-1.04.78-1.5a.72.72 0 0 0-.44-.5.73.73 0 0 0-.18-.04.9.9 0 0 0-.2 0c-.15.03-.32.08-.5.18z"/></defs><g><g opacity=".6" transform="translate(-893 -394)"><use fill="#a3a2a5" xlink:href="#mnb0a"/></g></g></svg>